<svg xmlns="http://www.w3.org/2000/svg" width="57.105" height="57.106" viewBox="0 0 57.105 57.106">
    <g id="female" transform="translate(-34 -132.581)">
        <g id="Group_1284" data-name="Group 1284" transform="translate(34 132.581)">
            <g id="Background" transform="translate(0 0)">
                <path id="Path_443" data-name="Path 443"
                    d="M177.677,156.793a28.553,28.553,0,1,1-28.553-28.553A28.553,28.553,0,0,1,177.677,156.793Z"
                    transform="translate(-120.572 -128.24)" fill="#1d4269" opacity="0.1" />
            </g>
        </g>
        <g id="girl-svgrepo-com" transform="translate(30.575 126.761)">
            <g id="Group_3248" data-name="Group 3248" transform="translate(16.216 17.54)">
                <path id="Path_1256" data-name="Path 1256"
                    d="M377.251,240c0,.077,0,.168-.008.257a14.792,14.792,0,0,1-.3,2.728c-.856,6.126-3.09,18.1-1,20.542l.009.01c-2.106-2.426.133-14.419.989-20.552a14.789,14.789,0,0,0,.3-2.728c0-.089.008-.18.008-.257Z"
                    transform="translate(-345.068 -226.91)" fill="#1d4269" />
                <path id="Path_1257" data-name="Path 1257"
                    d="M126.647,161.757a5.286,5.286,0,0,1,1.666-1.481h0c.346-.943.86-2.122,1.363-3.149a14.963,14.963,0,0,1-8.647-10.483c0-5.473,14.348-3.466,14.932-11.727.22.269.595.76,1.12,1.372.15.175.312.36.487.552q.131.144.271.294a17.594,17.594,0,0,0,10.486,5.754c-.1,6.55-3.864,12.108-9.117,14.241.5,1.026,1.016,2.2,1.362,3.146h0a5.286,5.286,0,0,1,1.665,1.48,21.735,21.735,0,0,1,4.456,1.327c-.789-4.209.938-13.656,1.666-18.868a14.791,14.791,0,0,0,.3-2.728c0-.089.008-.18.008-.257h0c0-8.22-6.7-12.761-15.152-13.074-8.453.31-15.16,4.853-15.16,13.075a14.886,14.886,0,0,0,.307,3.005c.856,6.122,3.079,18.044,1,20.511C120.795,163.479,123.324,162.414,126.647,161.757Z"
                    transform="translate(-118.352 -128.14)" fill="#1d4269" />
                <path id="Path_1258" data-name="Path 1258" d="M256,436h0Z"
                    transform="translate(-239.91 -399.998)" fill="#1d4269" />
                <path id="Path_1259" data-name="Path 1259"
                    d="M383.065,441.929c-.006-.006-.011-.015-.017-.021l.017.021Z"
                    transform="translate(-352.106 -405.216)" fill="#1d4269" />
                <path id="Path_1260" data-name="Path 1260"
                    d="M248.12,128.036c.264-.009.531-.014.8-.016Q248.517,128.022,248.12,128.036Z"
                    transform="translate(-232.951 -128.02)" fill="#1d4269" />
                <path id="Path_1261" data-name="Path 1261"
                    d="M340.062,155.413h0a11.946,11.946,0,0,0-7.1-11.2A11.947,11.947,0,0,1,340.062,155.413Z"
                    transform="translate(-307.88 -142.323)" fill="#1d4269" />
            </g>
            <path id="Path_1262" data-name="Path 1262"
                d="M263.16,141.092h0c0,.077,0,.168-.008.257a14.784,14.784,0,0,1-.3,2.728c-.728,5.212-2.455,14.659-1.666,18.868a7.343,7.343,0,0,1,2.538,1.674c-2.092-2.445.142-14.416,1-20.542a14.789,14.789,0,0,0,.3-2.728c0-.089.008-.18.008-.257h0a11.947,11.947,0,0,0-7.094-11.2,20.6,20.6,0,0,0-9-1.9l-.122,0q-.4,0-.8.016h-.01C256.457,128.331,263.16,132.873,263.16,141.092Z"
                transform="translate(-216.633 -110.462)" fill="#47709b" />
            <path id="Path_1263" data-name="Path 1263"
                d="M209.548,214.948q.184-.067.376-.147l1.03-1.915s2.122-.727,3.593-1.179a32.406,32.406,0,0,0-1.286-3.077c.408-.12.809-.259,1.2-.418,5.253-2.133,9.022-7.69,9.117-14.241a17.6,17.6,0,0,1-10.486-5.754c-.094-.1-.184-.2-.271-.294-.174-.192-.337-.377-.487-.552-.525-.612-.9-1.1-1.12-1.372,1.007,1.231,3.8,7.833,10.934,8.711-.119,8.132-5.872,14.041-13.125,14.415a12.634,12.634,0,0,1-4.094-.916c-.5,1.026-1.016,2.205-1.363,3.149.7.1,4.872,1.528,4.872,1.528Zm.149-5.8h0c-.225,0-.448-.007-.67-.019C209.25,209.138,209.472,209.145,209.7,209.145Z"
                transform="translate(-177.391 -161.682)" fill="#f2d6ce" />
            <g id="Group_3249" data-name="Group 3249" transform="translate(32.157 46.53)">
                <path id="Path_1264" data-name="Path 1264"
                    d="M254.876,432.8h0l.228-.423c-.128.053-.253.1-.376.147Z"
                    transform="translate(-254.728 -425.791)" fill="#e6cbc3" />
                <path id="Path_1265" data-name="Path 1265" d="M256,435.972h0l0,0Z"
                    transform="translate(-255.851 -428.96)" fill="#e6cbc3" />
                <path id="Path_1266" data-name="Path 1266"
                    d="M287.777,379.511a12.15,12.15,0,0,1,1.278-.348c-.346-.943-.86-2.121-1.362-3.146-.392.159-.794.3-1.2.418A32.244,32.244,0,0,1,287.777,379.511Z"
                    transform="translate(-282.779 -376.016)" fill="#e6cbc3" />
            </g>
            <g id="Group_3250" data-name="Group 3250" transform="translate(16.877 51.157)">
                <path id="Path_1267" data-name="Path 1267"
                    d="M147.068,415.874a8.785,8.785,0,0,1-4.208,2.344,4.258,4.258,0,0,0-2.075-1.608l-1.341,1.37,0,0h0l-.206-.211c.074.09.139.168.177.211-.262.306-.783.969-.994,1.242-.213-.288-.849-1.114-1.579-1.919a2.948,2.948,0,0,0-.817.911,8.785,8.785,0,0,1-4.413-2.572l.037-.047c-3.323.657-5.853,1.721-6.983,2.99a2.258,2.258,0,0,0-.65,1.5v2.5a29.934,29.934,0,0,0,29.456.792v-3.289C153.468,418.353,150.942,416.819,147.068,415.874Z"
                    transform="translate(-124.012 -415.6)" fill="#1d4269" />
                <path id="Path_1268" data-name="Path 1268" d="M256,436h0Z"
                    transform="translate(-240.568 -433.612)" fill="#1d4269" />
            </g>
            <g id="Group_3251" data-name="Group 3251" transform="translate(29.704 51.156)">
                <path id="Path_1269" data-name="Path 1269"
                    d="M235,424.248a5.191,5.191,0,0,0-1.258.7c.73.806,1.366,1.631,1.579,1.919.211-.273.732-.936.994-1.242-.037-.043-.1-.121-.177-.211Z"
                    transform="translate(-233.74 -423.236)" fill="#fff" />
                <path id="Path_1270" data-name="Path 1270"
                    d="M325.867,416.919a21.715,21.715,0,0,0-4.456-1.327c.013.016.026.031.038.048-.058.072-.13.149-.206.227,3.874.945,6.4,2.479,6.4,4.215v3.289c.475-.253.944-.515,1.4-.792v-2.5a2.193,2.193,0,0,0-.562-1.392l-.017-.021c-.018-.021-.035-.043-.053-.064l-.009-.01A7.34,7.34,0,0,0,325.867,416.919Z"
                    transform="translate(-311.015 -415.592)" fill="#fff" />
            </g>
            <g id="Group_3252" data-name="Group 3252" transform="translate(24.474 49.675)">
                <path id="Path_1271" data-name="Path 1271"
                    d="M196.68,406.518l-1.108-2.062s-4.175-1.43-4.872-1.528h0a5.3,5.3,0,0,0-1.666,1.481l-.037.047a8.784,8.784,0,0,0,4.413,2.572,2.952,2.952,0,0,1,.817-.911,5.19,5.19,0,0,1,1.258-.7l1.138,1.163.206.211h0Z"
                    transform="translate(-188.996 -402.928)" fill="#f2ae27" />
                <path id="Path_1272" data-name="Path 1272"
                    d="M262.13,402.928h0a12.187,12.187,0,0,0-1.278.348c-1.471.453-3.593,1.179-3.593,1.179l-1.03,1.915-.228.423h0l0,0,1.341-1.37a4.258,4.258,0,0,1,2.075,1.608,8.794,8.794,0,0,0,4.208-2.344c.076-.079.147-.155.206-.227-.013-.017-.026-.031-.038-.048A5.292,5.292,0,0,0,262.13,402.928Z"
                    transform="translate(-248.168 -402.928)" fill="#f2ae27" />
            </g>
            <g id="Group_3253" data-name="Group 3253" transform="translate(18.894 24.318)">
                <path id="Path_1273" data-name="Path 1273"
                    d="M250.938,383.855c-.225,0-.448-.007-.67-.019.222.012.445.019.67.019Z"
                    transform="translate(-237.526 -360.71)" fill="#ffe1d9" />
                <path id="Path_1274" data-name="Path 1274"
                    d="M167.13,194.711C160,193.833,157.2,187.231,156.2,186c.057,9.009-13.729,7.353-14.851,12.035-.028-.1-.056-.2-.081-.309a14.96,14.96,0,0,0,8.647,10.483,12.631,12.631,0,0,0,4.094.916C161.257,208.752,167.01,202.843,167.13,194.711ZM148.623,202.9c.266-.4,2.838.933,6.053.933s5.789-1.338,6.054-.933-2.285,2.687-6.054,2.687S148.357,203.308,148.623,202.9Z"
                    transform="translate(-141.264 -186)" fill="#ffe1d9" />
            </g>
            <path id="Path_1275" data-name="Path 1275"
                d="M156.2,186c-.584,8.261-14.932,6.254-14.932,11.727.025.1.053.206.081.309C142.467,193.353,156.252,195.009,156.2,186Z"
                transform="translate(-122.37 -161.682)" fill="#f2d6ce" />
            <path id="Path_1276" data-name="Path 1276"
                d="M216.18,330.023c-.266-.4-2.839.933-6.054.933s-5.787-1.338-6.053-.933,2.284,2.687,6.053,2.687S216.445,330.428,216.18,330.023Z"
                transform="translate(-177.819 -288.803)" fill="#e6baad" />
            <ellipse id="Ellipse_278" data-name="Ellipse 278" cx="2.133" cy="1.706" rx="2.133"
                ry="1.706" transform="translate(25.481 32.5)" fill="#f5f5f5" />
            <ellipse id="Ellipse_279" data-name="Ellipse 279" cx="1.28" cy="0.853" rx="1.28"
                ry="0.853" transform="translate(26.334 33.353)" fill="#734822" />
            <ellipse id="Ellipse_280" data-name="Ellipse 280" cx="2.133" cy="1.706" rx="2.133"
                ry="1.706" transform="translate(35.719 32.5)" fill="#f5f5f5" />
            <ellipse id="Ellipse_281" data-name="Ellipse 281" cx="1.28" cy="0.853" rx="1.28"
                ry="0.853" transform="translate(36.572 33.353)" fill="#734822" />
        </g>
    </g>
</svg>
