<svg version="1.2" baseProfile="tiny-ps" xmlns="http://www.w3.org/2000/svg" viewBox="0 0 46 47"
    width="46" height="47">
    <title>Dietitian add Certifications</title>
    <style>
        tspan { white-space:pre }
        .shp0 { fill: #b1b1b1 }
    </style>
    <g id="Dietitian add Certifications">
        <g id="Group 3208">
            <g id="image">
                <path id="Path 240" fill-rule="evenodd" class="shp0"
                    d="M22.68 14.05C22.68 10.92 25.22 8.38 28.35 8.38C31.48 8.38 34.02 10.92 34.02 14.05C34.02 17.18 31.48 19.72 28.35 19.72C25.22 19.72 22.68 17.18 22.68 14.05ZM26.46 14.05C26.46 15.09 27.31 15.94 28.35 15.94C29.39 15.94 30.24 15.09 30.24 14.05C30.24 13.01 29.39 12.16 28.35 12.16C27.31 12.16 26.46 13.01 26.46 14.05Z" />
                <path id="Path 241" fill-rule="evenodd" class="shp0"
                    d="M45.36 4.6L45.36 42.4C45.36 44.49 43.67 46.18 41.58 46.18L3.78 46.18C1.69 46.18 0 44.49 0 42.4L0 4.6C0 2.51 1.69 0.82 3.78 0.82L41.58 0.82C43.67 0.82 45.36 2.51 45.36 4.6ZM41.58 38.62L32.13 29.17L29.13 32.18C27.65 33.64 25.27 33.64 23.8 32.18L13.23 21.61L3.78 31.06L3.78 42.4L41.58 42.4L41.58 38.62ZM41.58 4.6L3.78 4.6L3.78 25.71L10.57 18.92C12.04 17.46 14.42 17.46 15.89 18.92L26.46 29.49L29.47 26.49C30.94 25.02 33.32 25.02 34.8 26.49L41.58 33.27L41.58 4.6Z" />
            </g>
        </g>
    </g>
</svg>