<svg xmlns="http://www.w3.org/2000/svg" width="32.299" height="37.271" viewBox="0 0 32.299 37.271">
  <g id="action" transform="translate(-34.149)">
    <path id="Path_1584" data-name="Path 1584" d="M113.47,225.166v14.266h20.751V225.166l-10.375-.728Z" transform="translate(-73.546 -208.1)" fill="#785252"/>
    <path id="Path_1585" data-name="Path 1585" d="M66.594,171.419v-2.086a1.377,1.377,0,0,1,1.377-1.377H92.793a1.377,1.377,0,0,1,1.377,1.377v2.086a1.377,1.377,0,0,1-1.377,1.377H67.971A1.377,1.377,0,0,1,66.594,171.419Z" transform="translate(-30.083 -155.73)" fill="#e5936a"/>
    <path id="Path_1586" data-name="Path 1586" d="M92.793,200.023H67.971a1.377,1.377,0,0,1-1.377-1.377v1.229a1.377,1.377,0,0,0,1.377,1.377H92.793a1.377,1.377,0,0,0,1.377-1.377v-1.229a1.377,1.377,0,0,1-1.377,1.377Z" transform="translate(-30.083 -184.186)" fill="#c77e67"/>
    <path id="Path_1587" data-name="Path 1587" d="M66.019,292.393H61.973a.363.363,0,0,1-.361-.324,11.581,11.581,0,0,0-2.963-6.693,23.239,23.239,0,0,1-1.078,7.017H43.028a23.236,23.236,0,0,1-1.078-7.017,11.581,11.581,0,0,0-2.963,6.693.363.363,0,0,1-.361.324H34.579a.365.365,0,0,1-.363-.342c-.838-13.07,6.533-16.9,9.959-16.9h12.25c3.425,0,10.8,3.828,9.959,16.9A.365.365,0,0,1,66.019,292.393Z" transform="translate(0 -255.123)" fill="#f2ae27"/>
    <path id="Path_1588" data-name="Path 1588" d="M316.073,275.153h-1.89c3.455,0,10.924,3.9,9.935,17.241h1.55a.365.365,0,0,0,.363-.342C326.869,278.981,319.5,275.153,316.073,275.153Z" transform="translate(-259.649 -255.123)" fill="#5d91b9"/>
    <path id="Path_1589" data-name="Path 1589" d="M206.667,220.68l-.957,4.309a1.47,1.47,0,0,0,.514,1.464l.76.611a3.776,3.776,0,0,0,4.733,0l.76-.611a1.47,1.47,0,0,0,.514-1.464l-.957-4.309Z" transform="translate(-159.039 -204.616)" fill="#ebae9d"/>
    <path id="Path_1590" data-name="Path 1590" d="M143.459,146.132h-16.3a1.337,1.337,0,0,0-1.337,1.337v.5a1.337,1.337,0,0,0,1.337,1.337h16.3a1.337,1.337,0,0,0,1.337-1.337v-.5A1.337,1.337,0,0,0,143.459,146.132Z" transform="translate(-84.997 -135.494)" fill="#ebae9d"/>
    <path id="Path_1591" data-name="Path 1591" d="M173.814,50.528v6.761a4.5,4.5,0,0,0,4.5,4.5h2.994a4.5,4.5,0,0,0,4.5-4.5V50.528a3.1,3.1,0,0,0-3.1-3.1h-5.781A3.1,3.1,0,0,0,173.814,50.528Z" transform="translate(-129.498 -43.972)" fill="#ffcdbe"/>
    <path id="Path_1592" data-name="Path 1592" d="M178.6,5.6V7.468a16.394,16.394,0,0,0-13.189,0V5.6A5.6,5.6,0,0,1,171,0h2A5.6,5.6,0,0,1,178.6,5.6Z" transform="translate(-121.702)" fill="#a29aa5"/>
    <path id="Path_1593" data-name="Path 1593" d="M245.187,0h-1.926a5.6,5.6,0,0,1,5.6,5.6V6.762a16.246,16.246,0,0,1,1.926.706V5.6A5.6,5.6,0,0,0,245.187,0Z" transform="translate(-193.889)" fill="#8c818f"/>
    <path id="Path_1594" data-name="Path 1594" d="M155.112,75.7a1.013,1.013,0,0,1-.471-.116c-.255-.133-.516-.26-.776-.377a15.162,15.162,0,0,0-12.482,0c-.262.118-.523.245-.778.378a1.018,1.018,0,1,1-.944-1.8c.291-.152.589-.3.885-.43a17.2,17.2,0,0,1,14.155,0c.295.133.593.277.883.429a1.018,1.018,0,0,1-.473,1.921Z" transform="translate(-97.324 -66.598)" fill="#b5adb7"/>
    <path id="Path_1595" data-name="Path 1595" d="M336.846,263.382h-.773a.586.586,0,0,0-.581.67,54.78,54.78,0,0,1-.1,17.428h2.381a.862.862,0,0,0,.839-.665,35.833,35.833,0,0,0,.14-15.893A1.95,1.95,0,0,0,336.846,263.382Z" transform="translate(-279.313 -244.209)" fill="#1d4269"/>
    <path id="Path_1596" data-name="Path 1596" d="M121.861,263.382h.773a.586.586,0,0,1,.581.67,54.78,54.78,0,0,0,.1,17.428h-2.381a.862.862,0,0,1-.839-.665,35.833,35.833,0,0,1-.14-15.893A1.95,1.95,0,0,1,121.861,263.382Z" transform="translate(-78.796 -244.209)" fill="#1d4269"/>
    <g id="Group_3332" data-name="Group 3332" transform="translate(46.473 9.93)">
      <path id="Path_1597" data-name="Path 1597" d="M224.967,182.527a4.058,4.058,0,0,1-2.2-.6.562.562,0,1,1,.615-.942,3.2,3.2,0,0,0,3.166,0,.562.562,0,0,1,.615.942A4.057,4.057,0,0,1,224.967,182.527Z" transform="translate(-221.126 -177.653)" fill="#766d78"/>
      <g id="Group_3331" data-name="Group 3331" transform="translate(0)">
        <path id="Path_1598" data-name="Path 1598" d="M204.011,137.928a.562.562,0,0,1-.562-.562v-.389a.562.562,0,1,1,1.125,0v.389A.562.562,0,0,1,204.011,137.928Z" transform="translate(-203.449 -136.414)" fill="#766d78"/>
        <path id="Path_1599" data-name="Path 1599" d="M294.085,137.928a.562.562,0,0,1-.562-.562v-.389a.562.562,0,1,1,1.125,0v.389A.562.562,0,0,1,294.085,137.928Z" transform="translate(-286.966 -136.414)" fill="#766d78"/>
      </g>
    </g>
  </g>
</svg>
