<svg xmlns="http://www.w3.org/2000/svg" width="32.585" height="28.639" viewBox="0 0 32.585 28.639">
  <g id="art" transform="translate(0 -31)">
    <path id="Path_1574" data-name="Path 1574" d="M30,406v3.819a.954.954,0,0,0,.955.955h7.637a.954.954,0,0,0,.955-.955V406Z" transform="translate(-28.091 -351.134)" fill="#373366"/>
    <path id="Path_1575" data-name="Path 1575" d="M38.592,31H30.955a.954.954,0,0,0-.955.955v3.819h9.546V31.955A.954.954,0,0,0,38.592,31Z" transform="translate(-28.091 0)" fill="#554d99"/>
    <path id="Path_1576" data-name="Path 1576" d="M214.22,136.955h-.955l-.955-.955-.955.955h-9.61l-.955-.955-.955.955H195V150.32h4.837l.955.955.955-.955h9.61l.955.955.955-.955h.955a.954.954,0,0,0,.955-.955V137.909A.954.954,0,0,0,214.22,136.955Z" transform="translate(-182.59 -98.318)" fill="#ffbe40"/>
    <path id="Path_1577" data-name="Path 1577" d="M199.837,262.682l.955.955.955-.955h9.61l.955.955.955-.955h.955a.954.954,0,0,0,.955-.955V256H195v6.682Z" transform="translate(-182.59 -210.68)" fill="#ff9f40"/>
    <path id="Path_1578" data-name="Path 1578" d="M200.175,110.093h-.955v-1.909h-1.909v1.909h-3.882V92.909h3.882v1.909h1.909V92.909h.955a.955.955,0,0,0,0-1.909h-19.22a.955.955,0,0,0,0,1.909h4.837v1.909H187.7V92.909h3.819v17.183H187.7v-1.909h-1.909v1.909h-4.837a.955.955,0,0,0,0,1.909h19.22a.955.955,0,1,0,0-1.909Z" transform="translate(-168.544 -56.181)" fill="#ffbe40"/>
    <path id="Path_1579" data-name="Path 1579" d="M187.7,264.592v-1.909h-1.909v1.909h-4.837a.955.955,0,0,0,0,1.909h19.22a.955.955,0,1,0,0-1.909h-.955v-1.909h-1.909v1.909h-3.882V256h-1.909v8.592Z" transform="translate(-168.544 -210.68)" fill="#ff9f40"/>
    <path id="Path_1580" data-name="Path 1580" d="M12.41,91H5.728l-.784,1.909L3.819,91H.955A.954.954,0,0,0,0,91.955v19.093A.954.954,0,0,0,.955,112H3.819l.99-1.909L5.728,112H12.41a.954.954,0,0,0,.955-.955V91.955A.954.954,0,0,0,12.41,91Z" transform="translate(0 -56.181)" fill="#ffdf40"/>
    <path id="Path_1581" data-name="Path 1581" d="M.955,266.5H3.819l.99-1.909.919,1.909H12.41a.954.954,0,0,0,.955-.955V256H0v9.546A.954.954,0,0,0,.955,266.5Z" transform="translate(0 -210.68)" fill="#ffbe40"/>
    <path id="Path_1582" data-name="Path 1582" d="M60,91v21h1.909V91Z" transform="translate(-56.181 -56.181)" fill="#ffbe40"/>
    <path id="Path_1583" data-name="Path 1583" d="M60,256h1.909v10.5H60Z" transform="translate(-56.181 -210.68)" fill="#ff9f40"/>
  </g>
</svg>
