<svg xmlns="http://www.w3.org/2000/svg" width="25.217" height="27.083" viewBox="0 0 25.217 27.083">
  <g id="notification-new" transform="translate(-3.373 -1.125)">
    <path id="Path_1123" data-name="Path 1123" d="M24.854,16.627V14.2H22.986V17a.85.85,0,0,0,.28.653l2.522,2.522V21.67H5.242V20.176l2.522-2.522A.85.85,0,0,0,8.044,17V12.332a7.471,7.471,0,0,1,7.471-7.471A7.367,7.367,0,0,1,19.25,5.878V3.74a9.068,9.068,0,0,0-2.8-.747V1.125H14.581V2.993a9.479,9.479,0,0,0-8.4,9.339v4.3L3.654,19.149a.85.85,0,0,0-.28.653v2.8a.877.877,0,0,0,.934.934h6.537a4.669,4.669,0,0,0,9.339,0h6.537a.877.877,0,0,0,.934-.934V19.8a.85.85,0,0,0-.28-.653ZM15.515,26.34a2.8,2.8,0,0,1-2.8-2.8h5.6a2.8,2.8,0,0,1-2.8,2.8Z" transform="translate(0)" fill="#1d4269"/>
    <path id="Path_1124" data-name="Path 1124" d="M32.221,8.236A3.736,3.736,0,1,1,28.486,4.5,3.736,3.736,0,0,1,32.221,8.236Z" transform="translate(-3.632 -0.573)" fill="#1d4269"/>
  </g>
</svg>
