<svg xmlns="http://www.w3.org/2000/svg" width="35.577" height="33.133" viewBox="0 0 35.577 33.133">
  <g id="books-svgrepo-com_3_" data-name="books-svgrepo-com (3)" transform="translate(0 -12.113)">
    <g id="Group_3242" data-name="Group 3242" transform="translate(0 12.113)">
      <path id="Path_1253" data-name="Path 1253" d="M25.537,41.967a2.529,2.529,0,0,1-2.522,2.522H2.522A2.529,2.529,0,0,1,0,41.967V14.635a2.529,2.529,0,0,1,2.522-2.522H23.015a2.529,2.529,0,0,1,2.522,2.522Z" transform="translate(0 -12.113)" fill="#1d4269"/>
      <rect id="Rectangle_1256" data-name="Rectangle 1256" width="15.354" height="3.036" transform="translate(5.798 6.211)" fill="#fff"/>
      <rect id="Rectangle_1257" data-name="Rectangle 1257" width="15.354" height="1.518" transform="translate(5.798 15.678)" fill="#f2ae27"/>
      <rect id="Rectangle_1258" data-name="Rectangle 1258" width="11.727" height="1.518" transform="translate(7.612 18.637)" fill="#f2ae27"/>
    </g>
    <g id="Group_3243" data-name="Group 3243" transform="translate(8.397 35.615)">
      <path id="Path_1254" data-name="Path 1254" d="M117.067,254.287H96.328a3.887,3.887,0,0,0,0,7.774h20.739Z" transform="translate(-91.513 -253.359)" fill="#c3c6c8"/>
      <path id="Path_1255" data-name="Path 1255" d="M109.493,254.719H88.057a4.815,4.815,0,1,1,0-9.63h21.436a.928.928,0,0,1,0,1.856H88.057a2.959,2.959,0,1,0,0,5.918h21.436a.928.928,0,0,1,0,1.856Z" transform="translate(-83.242 -245.089)" fill="#f2ae27"/>
      <rect id="Rectangle_1259" data-name="Rectangle 1259" width="21.471" height="0.433" transform="translate(4.083 3.154)" fill="#7d868c"/>
      <rect id="Rectangle_1260" data-name="Rectangle 1260" width="21.471" height="0.433" transform="translate(4.083 4.599)" fill="#7d868c"/>
      <rect id="Rectangle_1261" data-name="Rectangle 1261" width="21.471" height="0.433" transform="translate(4.083 6.043)" fill="#7d868c"/>
    </g>
  </g>
</svg>
