<svg xmlns="http://www.w3.org/2000/svg" width="15.935" height="23.223" viewBox="0 0 15.935 23.223">
  <g id="bookmark_4_" data-name="bookmark (4)" transform="translate(0 0)">
    <path id="Path_1959" data-name="Path 1959" d="M93.767,0H82.836a2.505,2.505,0,0,0-2.5,2.5V21.6c0,1.2.661,1.621,1.228,1.621a1.762,1.762,0,0,0,1.222-.607L88.3,17.1l5.518,5.518a1.762,1.762,0,0,0,1.222.607h0a1.129,1.129,0,0,0,.98-.57,2.021,2.021,0,0,0,.247-1.051V2.5a2.505,2.505,0,0,0-2.5-2.5Z" transform="translate(-80.334 0)" fill="#ff5b5b"/>
    <path id="Path_1960" data-name="Path 1960" d="M261.467,0H256V17.1l5.518,5.518a1.762,1.762,0,0,0,1.222.607h0a1.129,1.129,0,0,0,.98-.57,2.021,2.021,0,0,0,.247-1.051V2.5a2.505,2.505,0,0,0-2.5-2.5Z" transform="translate(-248.035 0)" fill="#ff0059"/>
  </g>
</svg>
