<svg xmlns="http://www.w3.org/2000/svg" width="36.767" height="36.767" viewBox="0 0 36.767 36.767">
  <g id="career" transform="translate(-24 -24)">
    <path id="Path_1290" data-name="Path 1290" d="M220.646,250.11l-2.186,5.421-9.826-9.826H208V240h.96a3.8,3.8,0,0,1,2.689,1.114l3.64,3.64Z" transform="translate(-169.42 -198.884)" fill="#ffbfa1"/>
    <path id="Path_1291" data-name="Path 1291" d="M316.437,328h7.636a1.268,1.268,0,0,1,1.177,1.739l-3.9,9.744a1.9,1.9,0,0,1-1.766,1.2H312Z" transform="translate(-265.179 -279.911)" fill="#ffc431"/>
    <path id="Path_1292" data-name="Path 1292" d="M39.214,240v19.651H24V245.379A5.379,5.379,0,0,1,29.378,240Z" transform="translate(0 -198.884)" fill="#ffbfa1"/>
    <path id="Path_1293" data-name="Path 1293" d="M42.23,241.114A3.8,3.8,0,0,0,39.541,240H29.379A5.379,5.379,0,0,0,24,245.378v14.273H39.214V245.705l2.853,2.853,3.8-3.8Z" transform="translate(0 -198.884)" fill="#548aff"/>
    <path id="Path_1294" data-name="Path 1294" d="M120,208v4.12a2.853,2.853,0,0,0,5.705,0V208Z" transform="translate(-88.393 -169.42)" fill="#ffbfa1"/>
    <path id="Path_1295" data-name="Path 1295" d="M127.607,136v6.339a3.8,3.8,0,1,1-7.607,0V136Z" transform="translate(-88.393 -103.125)" fill="#ffceb6"/>
    <path id="Path_1296" data-name="Path 1296" d="M90.536,106.143l-.507-.38A5.071,5.071,0,0,1,88,101.705v-1.268a3.17,3.17,0,0,1,3.17-3.17A2.294,2.294,0,0,1,93.221,96h1.752a4.437,4.437,0,0,1,4.437,4.437v1.9H96.54a4.587,4.587,0,0,1-4.1-2.536l-.417.835a3.076,3.076,0,0,1-1.484,1.428Z" transform="translate(-58.929 -66.295)" fill="#b1712c"/>
    <ellipse id="Ellipse_282" data-name="Ellipse 282" cx="0.5" cy="1" rx="0.5" ry="1" transform="translate(34.437 37.331)" fill="#91591c"/>
    <ellipse id="Ellipse_283" data-name="Ellipse 283" cx="0.5" cy="1" rx="0.5" ry="1" transform="translate(37.437 37.331)" fill="#91591c"/>
    <rect id="Rectangle_1262" data-name="Rectangle 1262" width="1.268" height="2.835" rx="0.634" transform="translate(31.668 31.255) rotate(-26.565)" fill="#a36522"/>
    <path id="Path_1297" data-name="Path 1297" d="M216,177.9l1.268-1.9H216Z" transform="translate(-176.786 -139.956)" fill="#a36522"/>
    <path id="Path_1298" data-name="Path 1298" d="M186.777,458.536h-8.241A2.536,2.536,0,0,1,176,456h12.044Z" transform="translate(-139.956 -397.769)" fill="#ffc431"/>
    <path id="Path_1299" data-name="Path 1299" d="M83.487,348l4.12,4.12h5.071l1.918-.959a2.926,2.926,0,0,1,4.195,2.136l.227,1.358-1.9,1.9-1.9-1.9-3.8,1.9h-4.5a4.437,4.437,0,0,1-3.138-1.3L80,351.487Z" transform="translate(-51.563 -298.326)" fill="#ffceb6"/>
    <path id="Path_1300" data-name="Path 1300" d="M307.014,339.483l3.9-9.744A1.268,1.268,0,0,0,309.735,328h-.663L304,340.678h1.248a1.9,1.9,0,0,0,1.766-1.2Z" transform="translate(-257.813 -279.911)" fill="#ffd873"/>
    <path id="Path_1301" data-name="Path 1301" d="M281.75,25.268V41.75a1.267,1.267,0,0,1-1.268,1.268h-1.268v3.17l-4.437-3.17h-9.509A1.267,1.267,0,0,1,264,41.75V25.268A1.267,1.267,0,0,1,265.268,24h15.214A1.267,1.267,0,0,1,281.75,25.268Z" transform="translate(-220.983 0)" fill="#91c0ff"/>
    <path id="Path_1302" data-name="Path 1302" d="M281.75,25.268V27.8H264V25.268A1.267,1.267,0,0,1,265.268,24h15.214A1.267,1.267,0,0,1,281.75,25.268Z" transform="translate(-220.983 0)" fill="#548aff"/>
    <circle id="Ellipse_284" data-name="Ellipse 284" cx="0.5" cy="0.5" r="0.5" transform="translate(44.437 25.331)" fill="#f5714f"/>
    <circle id="Ellipse_285" data-name="Ellipse 285" cx="0.5" cy="0.5" r="0.5" transform="translate(46.437 25.331)" fill="#ffc431"/>
    <ellipse id="Ellipse_286" data-name="Ellipse 286" cy="0.5" ry="0.5" transform="translate(49.437 25.331)" fill="#02c26a"/>
    <path id="Path_1303" data-name="Path 1303" d="M292.437,101.071h-3.8a.634.634,0,0,1-.634-.634v-3.8a.634.634,0,0,1,.634-.634h3.8a.634.634,0,0,1,.634.634v3.8A.634.634,0,0,1,292.437,101.071Zm-3.17-1.268H291.8V97.268h-2.536Z" transform="translate(-243.081 -66.295)" fill="#639aff"/>
    <path id="Path_1304" data-name="Path 1304" d="M0,0H4.482V1.268H0Z" transform="translate(47.004 31.795) rotate(-45)" fill="#ef5e3b"/>
    <g id="Group_3255" data-name="Group 3255" transform="translate(44.919 30.339)">
      <path id="Path_1305" data-name="Path 1305" d="M376,104h1.268v1.268H376Z" transform="translate(-369.027 -104)" fill="#639aff"/>
      <path id="Path_1306" data-name="Path 1306" d="M408,104h4.437v1.268H408Z" transform="translate(-398.491 -104)" fill="#639aff"/>
      <path id="Path_1307" data-name="Path 1307" d="M376,136h3.8v1.268H376Z" transform="translate(-369.027 -133.464)" fill="#639aff"/>
      <path id="Path_1308" data-name="Path 1308" d="M292.437,181.071h-3.8a.634.634,0,0,1-.634-.634v-3.8a.634.634,0,0,1,.634-.634h3.8a.634.634,0,0,1,.634.634v3.8A.634.634,0,0,1,292.437,181.071Zm-3.17-1.268H291.8v-2.536h-2.536Z" transform="translate(-288 -170.295)" fill="#639aff"/>
    </g>
    <path id="Path_1309" data-name="Path 1309" d="M0,0H4.482V1.268H0Z" transform="translate(47.003 38.134) rotate(-45)" fill="#ef5e3b"/>
    <path id="Path_1310" data-name="Path 1310" d="M376,184h2.536v1.268H376Z" transform="translate(-324.108 -147.322)" fill="#639aff"/>
    <path id="Path_1311" data-name="Path 1311" d="M424,184h3.17v1.268H424Z" transform="translate(-368.304 -147.322)" fill="#639aff"/>
    <path id="Path_1312" data-name="Path 1312" d="M376,216h5.071v1.268H376Z" transform="translate(-324.108 -176.786)" fill="#639aff"/>
    <rect id="Rectangle_1263" data-name="Rectangle 1263" width="1.268" height="4.034" rx="0.634" transform="translate(28.62 47.267) rotate(-45)" fill="#4f7ff7"/>
    <rect id="Rectangle_1264" data-name="Rectangle 1264" width="1.268" height="4.75" rx="0.634" transform="translate(24.627 50.247) rotate(-45)" fill="#4f7ff7"/>
  </g>
</svg>
