<svg xmlns="http://www.w3.org/2000/svg" width="25.742" height="38.51" viewBox="0 0 25.742 38.51">
  <g id="catalogue" transform="translate(-84.872 0)">
    <path id="Path_1313" data-name="Path 1313" d="M106.059,32.437H86.034a1.162,1.162,0,0,1-1.162-1.162V1.162A1.162,1.162,0,0,1,86.034,0h20.025a1.162,1.162,0,0,1,1.162,1.162V31.275A1.162,1.162,0,0,1,106.059,32.437Z" fill="#8ac9fe"/>
    <path id="Path_1314" data-name="Path 1314" d="M328.759,0h-3.075a1.162,1.162,0,0,1,1.162,1.162V31.275a1.162,1.162,0,0,1-1.162,1.162h3.075a1.162,1.162,0,0,0,1.162-1.162V1.162A1.162,1.162,0,0,0,328.759,0Z" transform="translate(-222.7 0)" fill="#60b7ff"/>
    <path id="Path_1315" data-name="Path 1315" d="M142.024,11.2a1.161,1.161,0,0,1,.256-.029h17.794V6.257a1.157,1.157,0,0,0-.273-.748Z" transform="translate(-52.853 -5.095)" fill="#fd4755"/>
    <path id="Path_1316" data-name="Path 1316" d="M151.171,113.175H131.146a1.162,1.162,0,0,1-1.162-1.162V81.9a1.162,1.162,0,0,1,1.162-1.162h20.025a1.162,1.162,0,0,1,1.162,1.162v30.113A1.162,1.162,0,0,1,151.171,113.175Z" transform="translate(-41.719 -74.665)" fill="#0593fc"/>
    <path id="Path_1317" data-name="Path 1317" d="M167.069,123.981v-5.615a.542.542,0,0,1,.542-.542h6.057a.542.542,0,0,1,.542.542v5.615a.542.542,0,0,1-.542.542h-6.057A.542.542,0,0,1,167.069,123.981Z" transform="translate(-76.015 -108.962)" fill="#ffc4c8"/>
    <path id="Path_1318" data-name="Path 1318" d="M167.069,392v-5.615a.542.542,0,0,1,.542-.542h6.057a.542.542,0,0,1,.542.542V392a.542.542,0,0,1-.542.542h-6.057A.542.542,0,0,1,167.069,392Z" transform="translate(-76.015 -356.822)" fill="#ffc4c8"/>
    <path id="Path_1319" data-name="Path 1319" d="M167.069,262.157v-5.615a.542.542,0,0,1,.542-.542h6.057a.542.542,0,0,1,.542.542v5.615a.542.542,0,0,1-.542.542h-6.057A.542.542,0,0,1,167.069,262.157Z" transform="translate(-76.015 -236.745)" fill="#fff3be"/>
    <path id="Path_1320" data-name="Path 1320" d="M373.871,80.738H370.8a1.162,1.162,0,0,1,1.162,1.162v30.113a1.162,1.162,0,0,1-1.162,1.162h3.075a1.162,1.162,0,0,0,1.162-1.162V81.9a1.162,1.162,0,0,0-1.162-1.162Z" transform="translate(-264.419 -74.665)" fill="#0182fc"/>
    <g id="Group_3256" data-name="Group 3256" transform="translate(100.063 12.729)">
      <path id="Path_1321" data-name="Path 1321" d="M290.105,170.4h-2.686a.581.581,0,1,1,0-1.162h2.686a.581.581,0,0,1,0,1.162Z" transform="translate(-286.838 -169.235)" fill="#c4e2ff"/>
    </g>
    <g id="Group_3257" data-name="Group 3257" transform="translate(100.063 23.122)">
      <path id="Path_1322" data-name="Path 1322" d="M290.105,308.572h-2.686a.581.581,0,1,1,0-1.162h2.686a.581.581,0,0,1,0,1.162Z" transform="translate(-286.838 -307.41)" fill="#c4e2ff"/>
    </g>
    <g id="Group_3258" data-name="Group 3258" transform="translate(100.063 32.888)">
      <path id="Path_1323" data-name="Path 1323" d="M290.105,438.415h-2.686a.581.581,0,0,1,0-1.162h2.686a.581.581,0,0,1,0,1.162Z" transform="translate(-286.838 -437.253)" fill="#c4e2ff"/>
    </g>
    <g id="Group_3259" data-name="Group 3259" transform="translate(100.063 10.532)">
      <path id="Path_1324" data-name="Path 1324" d="M294.6,141.2h-7.181a.581.581,0,1,1,0-1.162H294.6a.581.581,0,0,1,0,1.162Z" transform="translate(-286.838 -140.033)" fill="#c4e2ff"/>
    </g>
    <g id="Group_3260" data-name="Group 3260" transform="translate(100.063 20.925)">
      <path id="Path_1325" data-name="Path 1325" d="M294.6,279.371h-7.181a.581.581,0,0,1,0-1.162H294.6a.581.581,0,0,1,0,1.162Z" transform="translate(-286.838 -278.209)" fill="#c4e2ff"/>
    </g>
    <g id="Group_3261" data-name="Group 3261" transform="translate(100.063 30.691)">
      <path id="Path_1326" data-name="Path 1326" d="M294.6,409.214h-7.181a.581.581,0,1,1,0-1.162H294.6a.581.581,0,0,1,0,1.162Z" transform="translate(-286.838 -408.052)" fill="#c4e2ff"/>
    </g>
    <g id="Group_3262" data-name="Group 3262" transform="translate(107.54 10.532)">
      <path id="Path_1327" data-name="Path 1327" d="M386.532,140.032h-.286v1.162h.286a.581.581,0,0,0,0-1.162Z" transform="translate(-386.246 -140.032)" fill="#b3dafe"/>
      <path id="Path_1328" data-name="Path 1328" d="M386.532,278.208h-.286v1.162h.286a.581.581,0,0,0,0-1.162Z" transform="translate(-386.246 -267.815)" fill="#b3dafe"/>
      <path id="Path_1329" data-name="Path 1329" d="M386.532,408.051h-.286v1.162h.286a.581.581,0,0,0,0-1.162Z" transform="translate(-386.246 -387.892)" fill="#b3dafe"/>
    </g>
    <g id="Group_3263" data-name="Group 3263" transform="translate(104.586 0.414)">
      <path id="Path_1330" data-name="Path 1330" d="M349.338,5.51l-2.363.756v4.9h2.636V6.258a1.157,1.157,0,0,0-.273-.748Z" transform="translate(-346.975 -5.51)" fill="#fb2b3a"/>
    </g>
  </g>
</svg>
