<svg xmlns="http://www.w3.org/2000/svg" width="24.889" height="23.824" viewBox="0 0 24.889 23.824">
  <g id="chat-left-text" transform="translate(0.25 0.25)">
    <path id="Path_1985" data-name="Path 1985" d="M21.34,1.524H3.049A1.524,1.524,0,0,0,1.524,3.049V20.709l3.049-3.049a3.049,3.049,0,0,1,2.155-.894H21.34a1.524,1.524,0,0,0,1.524-1.524V3.049A1.524,1.524,0,0,0,21.34,1.524ZM3.049,0A3.049,3.049,0,0,0,0,3.049v19.5a.762.762,0,0,0,1.3.538L5.65,18.738a1.524,1.524,0,0,1,1.078-.446H21.34a3.049,3.049,0,0,0,3.049-3.049V3.049A3.049,3.049,0,0,0,21.34,0Z" fill="#1d4269" stroke="#1d4269" stroke-width="0.5" fill-rule="evenodd"/>
    <path id="Path_1986" data-name="Path 1986" d="M6.75,7.512a.762.762,0,0,1,.762-.762H21.231a.762.762,0,1,1,0,1.524H7.512A.762.762,0,0,1,6.75,7.512Zm0,3.811a.762.762,0,0,1,.762-.762H21.231a.762.762,0,1,1,0,1.524H7.512A.762.762,0,0,1,6.75,11.323Zm0,3.811a.762.762,0,0,1,.762-.762h7.622a.762.762,0,1,1,0,1.524H7.512A.762.762,0,0,1,6.75,15.134Z" transform="translate(-2.177 -2.177)" fill="#1d4269" stroke="#1d4269" stroke-width="0.5" fill-rule="evenodd"/>
  </g>
</svg>
