<svg xmlns="http://www.w3.org/2000/svg" width="20.261" height="18.321" viewBox="0 0 20.261 18.321">
  <path id="city-alt" d="M9.608,3.834h9.653V17.321H0V0H9.608ZM3.834,15.382V13.487H1.939v1.895Zm0-3.834V9.609H1.939v1.939Zm0-3.834V5.775H1.939V7.714Zm0-3.879v-1.9H1.939V3.834H3.834ZM7.713,15.382V13.487H5.774v1.895Zm0-3.834V9.609H5.774v1.939Zm0-3.834V5.775H5.774V7.714Zm0-3.879v-1.9H5.774V3.834H7.713Zm9.608,11.547V5.774H9.608V7.713h1.939V9.608H9.608v1.939h1.939v1.939H9.608v1.895h7.713ZM15.382,7.713V9.608H13.487V7.713Zm0,3.834v1.939H13.487V11.547Z" transform="translate(0.5 0.5)" fill="none" stroke="#1d4269" stroke-width="1"/>
</svg>
