<svg xmlns="http://www.w3.org/2000/svg" width="29.005" height="36.489" viewBox="0 0 29.005 36.489">
  <g id="comics" transform="translate(-52.508)">
    <path id="Path_1529" data-name="Path 1529" d="M81.513,112.08v24.357a2.149,2.149,0,0,1-2.149,2.149H54.658a2.15,2.15,0,0,1-2.15-2.149V112.08a2.15,2.15,0,0,1,2.15-2.149H79.364A2.149,2.149,0,0,1,81.513,112.08Z" transform="translate(0 -102.096)" fill="#da4a54"/>
    <path id="Path_1530" data-name="Path 1530" d="M81.513,2.149V9.983h-29V2.149A2.15,2.15,0,0,1,54.658,0H79.364A2.149,2.149,0,0,1,81.513,2.149Z" fill="#ffd064"/>
    <g id="Group_3323" data-name="Group 3323" transform="translate(54.071 1.197)">
      <g id="Group_3319" data-name="Group 3319" transform="translate(21.082 1.623)">
        <path id="Path_1531" data-name="Path 1531" d="M372.953,44.988a2.709,2.709,0,1,1,1.515-4.955.551.551,0,0,1-.616.913,1.608,1.608,0,1,0-.9,2.941,1.19,1.19,0,0,0,.818-.289,1.174,1.174,0,0,0,.119-.123.551.551,0,0,1,.844.707,2.248,2.248,0,0,1-1.782.806Z" transform="translate(-370.244 -39.57)" fill="#da4a54"/>
      </g>
      <g id="Group_3320" data-name="Group 3320" transform="translate(0 1.623)">
        <path id="Path_1532" data-name="Path 1532" d="M77.145,44.988a2.709,2.709,0,1,1,1.515-4.955.551.551,0,0,1-.616.913,1.608,1.608,0,1,0-.9,2.941,1.15,1.15,0,0,0,.938-.413.551.551,0,1,1,.844.708,2.249,2.249,0,0,1-1.782.806Z" transform="translate(-74.436 -39.57)" fill="#da4a54"/>
      </g>
      <path id="Path_1533" data-name="Path 1533" d="M147.113,44.988a2.709,2.709,0,1,1,2.709-2.709A2.712,2.712,0,0,1,147.113,44.988Zm0-4.317a1.608,1.608,0,1,0,1.608,1.608A1.609,1.609,0,0,0,147.113,40.671Z" transform="translate(-139.418 -37.947)" fill="#da4a54"/>
      <path id="Path_1534" data-name="Path 1534" d="M237.05,39.8a1.8,1.8,0,0,0-1.36-.509,1.922,1.922,0,0,0-1.425.567,1.633,1.633,0,0,0-1.359-.589,1.923,1.923,0,0,0-1.039.293.55.55,0,0,0-1.067.189v4.343a.551.551,0,1,0,1.1,0s0-2.243,0-2.246c0-.9.394-1.478,1-1.478.3,0,.721,0,.758,1.269,0,.093,0,2.454,0,2.454a.551.551,0,0,0,1.1,0s0-2.518,0-2.534l0,0c0-.772.31-1.163.922-1.163.4,0,.524.127.564.169.128.134.273.469.236,1.3,0,.008,0,2.233,0,2.233a.551.551,0,0,0,1.1,0V41.9A2.735,2.735,0,0,0,237.05,39.8Z" transform="translate(-219.656 -37.604)" fill="#da4a54"/>
      <g id="Group_3321" data-name="Group 3321" transform="translate(19.072 1.457)">
        <path id="Path_1535" data-name="Path 1535" d="M342.6,42.824a.551.551,0,0,1-.551-.551V37.791a.551.551,0,1,1,1.1,0v4.483A.551.551,0,0,1,342.6,42.824Z" transform="translate(-342.045 -37.24)" fill="#da4a54"/>
      </g>
      <g id="Group_3322" data-name="Group 3322" transform="translate(19.072)">
        <path id="Path_1536" data-name="Path 1536" d="M342.6,17.931a.551.551,0,0,1-.551-.551v-.037a.551.551,0,1,1,1.1,0v.037A.551.551,0,0,1,342.6,17.931Z" transform="translate(-342.045 -16.793)" fill="#da4a54"/>
      </g>
    </g>
    <g id="Group_3326" data-name="Group 3326" transform="translate(54.364 14.85)">
      <path id="Path_1537" data-name="Path 1537" d="M103.4,324l-11.944,3.353a1.8,1.8,0,1,1-.975-3.473l11.944-3.353A1.8,1.8,0,1,1,103.4,324Z" transform="translate(-88.408 -312.472)" fill="#d2a572"/>
      <path id="Path_1538" data-name="Path 1538" d="M123.189,276.241a5.222,5.222,0,0,1-6.439-3.616l-1.337-4.763a5.222,5.222,0,0,1,10.056-2.823l1.337,4.763A5.222,5.222,0,0,1,123.189,276.241Z" transform="translate(-112.604 -257.459)" fill="#eccda0"/>
      <path id="Path_1539" data-name="Path 1539" d="M124.434,275.722a5.227,5.227,0,0,1-7.683-3.087l-1.337-4.763a5.227,5.227,0,0,1,4.954-6.635,5.225,5.225,0,0,0-2.373,5.911l1.337,4.763A5.225,5.225,0,0,0,124.434,275.722Z" transform="translate(-112.605 -257.47)" fill="#eab57f"/>
      <g id="Group_3324" data-name="Group 3324" transform="translate(6.149 8.693)">
        <path id="Path_1540" data-name="Path 1540" d="M165.661,342.808a.551.551,0,0,1-.53-.4l-.285-1.016a.551.551,0,0,1,1.06-.3l.285,1.016a.551.551,0,0,1-.53.7Z" transform="translate(-164.825 -339.954)" fill="#4d5961"/>
        <path id="Path_1541" data-name="Path 1541" d="M202.477,332.472a.551.551,0,0,1-.53-.4l-.285-1.016a.551.551,0,0,1,1.06-.3l.285,1.016a.551.551,0,0,1-.53.7Z" transform="translate(-199.017 -330.355)" fill="#4d5961"/>
      </g>
      <path id="Path_1542" data-name="Path 1542" d="M80.389,264.252l.442-.124a2.52,2.52,0,0,1,3.107,1.745l.005.019A2.52,2.52,0,0,1,82.2,269l-.442.124a2.52,2.52,0,0,1-3.107-1.745l-.005-.019A2.52,2.52,0,0,1,80.389,264.252Z" transform="translate(-78.55 -260.067)" fill="#5e6b75"/>
      <path id="Path_1543" data-name="Path 1543" d="M82.823,268.745a2.479,2.479,0,0,1-.623.27l-.441.124a2.52,2.52,0,0,1-3.107-1.744l-.005-.019a2.52,2.52,0,0,1,1.745-3.107l.441-.124a2.477,2.477,0,0,1,.672-.093,2.518,2.518,0,0,0-1.123,2.837l.005.019A2.517,2.517,0,0,0,82.823,268.745Z" transform="translate(-78.551 -260.084)" fill="#4d5961"/>
      <path id="Path_1544" data-name="Path 1544" d="M143.683,213.592a3.622,3.622,0,0,0,4.466,2.508,5.891,5.891,0,0,0,4.079-7.264l-.13-.462-6.639,1.864A2.62,2.62,0,0,0,143.683,213.592Z" transform="translate(-138.915 -208.374)" fill="#5e6b75"/>
      <g id="Group_3325" data-name="Group 3325" transform="translate(4.632 1.298)">
        <path id="Path_1545" data-name="Path 1545" d="M149.251,232.584a5.918,5.918,0,0,1-1.1.431,3.621,3.621,0,0,1-4.466-2.508,2.62,2.62,0,0,1,1.777-3.354l2.016-.566a2.62,2.62,0,0,0-1.777,3.354A3.623,3.623,0,0,0,149.251,232.584Z" transform="translate(-143.549 -226.587)" fill="#4d5961"/>
        <path id="Path_1546" data-name="Path 1546" d="M177.867,382.187c-.356-1.268-1.028.288-2.3.644s-2.651-.623-2.3.644a2.384,2.384,0,0,0,4.59-1.289Z" transform="translate(-171.106 -370.644)" fill="#4d5961"/>
      </g>
    </g>
    <path id="Path_1547" data-name="Path 1547" d="M305.349,172.3h-4.584a2.591,2.591,0,0,0-2.591,2.591v3.333a2.591,2.591,0,0,0,2.591,2.591h.683a4.869,4.869,0,0,1,.313,4.08c2.859-.727,2.774-2.82,2.43-4.08h1.158a2.591,2.591,0,0,0,2.591-2.591v-3.333A2.591,2.591,0,0,0,305.349,172.3Z" transform="translate(-228.158 -160.019)" fill="#f7f9f9"/>
    <g id="Group_3327" data-name="Group 3327" transform="translate(71.919 14.754)">
      <path id="Path_1548" data-name="Path 1548" d="M332.7,208.117h-5.078a.551.551,0,0,1,0-1.1H332.7a.551.551,0,1,1,0,1.1Z" transform="translate(-326.914 -207.016)" fill="#5986cb"/>
      <path id="Path_1549" data-name="Path 1549" d="M330.748,241.005h-3.125a.551.551,0,1,1,0-1.1h3.125a.551.551,0,0,1,0,1.1Z" transform="translate(-326.915 -237.56)" fill="#5986cb"/>
      <circle id="Ellipse_300" data-name="Ellipse 300" cx="3.772" cy="3.772" r="3.772" transform="translate(0 12.185)" fill="#5986cb"/>
    </g>
    <g id="Group_3328" data-name="Group 3328" transform="translate(75.033 28.267)">
      <path id="Path_1550" data-name="Path 1550" d="M369.122,400.092a.551.551,0,0,1-.537-.675l.546-2.355a.551.551,0,0,1,1.073.249l-.546,2.355A.551.551,0,0,1,369.122,400.092Z" transform="translate(-368.571 -396.636)" fill="#ffd064"/>
    </g>
    <g id="Group_3329" data-name="Group 3329" transform="translate(74.701 32.018)">
      <path id="Path_1551" data-name="Path 1551" d="M364.465,450.4a.551.551,0,0,1-.537-.676l.008-.036a.551.551,0,0,1,1.073.25l-.008.036A.551.551,0,0,1,364.465,450.4Z" transform="translate(-363.914 -449.265)" fill="#ffd064"/>
    </g>
  </g>
</svg>
