<svg xmlns="http://www.w3.org/2000/svg" width="32.142" height="32.142" viewBox="0 0 32.142 32.142">
  <g id="consulting" transform="translate(0)">
    <path id="Path_1411" data-name="Path 1411" d="M21.1,451.531H.653A.653.653,0,0,1,0,450.877v-2.744a.653.653,0,0,1,.653-.653H21.1Zm0,0" transform="translate(0 -419.389)" fill="#ff933b"/>
    <path id="Path_1412" data-name="Path 1412" d="M19.664,447.48a5.21,5.21,0,0,0-.457,2.135v.021a.523.523,0,0,1-.523.523H0v.719a.653.653,0,0,0,.653.653H21.1v-4.05Zm0,0" transform="translate(0 -419.388)" fill="#f27d27"/>
    <path id="Path_1413" data-name="Path 1413" d="M381.164,315.978a2.744,2.744,0,0,0-5.488,0v1.307a2.744,2.744,0,1,0,5.488,0Zm0,0" transform="translate(-352.092 -293.57)" fill="#feccc1"/>
    <path id="Path_1414" data-name="Path 1414" d="M411.091,313.234a2.762,2.762,0,0,0-.555.056,2.745,2.745,0,0,1,2.189,2.687v1.307a2.745,2.745,0,0,1-2.189,2.688,2.746,2.746,0,0,0,3.3-2.687v-1.307A2.744,2.744,0,0,0,411.091,313.234Zm0,0" transform="translate(-384.763 -293.57)" fill="#f9b3a7"/>
    <path id="Path_1415" data-name="Path 1415" d="M338.394,416.742V415.48a3.92,3.92,0,0,0-2.634-3.7l-1.4-.486a4.208,4.208,0,0,0-1.381-.233h-.8a4.207,4.207,0,0,0-1.381.233l-1.4.486a3.92,3.92,0,0,0-2.634,3.7V417.4h10.975A.653.653,0,0,0,338.394,416.742Zm0,0" transform="translate(-306.252 -385.253)" fill="#636363"/>
    <path id="Path_1416" data-name="Path 1416" d="M464.573,420.6l-.366-.127a3.92,3.92,0,0,1,1.563,3.133v2.613h.784a.653.653,0,0,0,.653-.653v-1.262A3.92,3.92,0,0,0,464.573,420.6Zm0,0" transform="translate(-435.066 -394.08)" fill="#494949"/>
    <path id="Path_1417" data-name="Path 1417" d="M91.205,353.012l-.959-.333v.006l-2.221,3.854L85.8,352.686v-.006l-.958.333a3.92,3.92,0,0,0-2.634,3.7v1.915H93.839v-1.915a3.92,3.92,0,0,0-2.634-3.7Zm0,0" transform="translate(-77.05 -330.539)" fill="#636363"/>
    <path id="Path_1418" data-name="Path 1418" d="M220.018,356.084l-.366-.127a3.921,3.921,0,0,1,1.563,3.133V361.7h1.437v-1.915A3.92,3.92,0,0,0,220.018,356.084Zm0,0" transform="translate(-205.863 -333.61)" fill="#494949"/>
    <path id="Path_1419" data-name="Path 1419" d="M139.434,346.927l2.221,3.854,2.221-3.854v-.006l-1.111-.386h-2.221l-1.111.386Zm0,0" transform="translate(-130.68 -324.78)" fill="#ddf5ff"/>
    <path id="Path_1420" data-name="Path 1420" d="M136.609,251.459a2.744,2.744,0,0,0-5.488,0v1.307a2.744,2.744,0,0,0,5.488,0Zm0,0" transform="translate(-122.89 -233.101)" fill="#feccc1"/>
    <path id="Path_1421" data-name="Path 1421" d="M166.539,248.715a2.762,2.762,0,0,0-.555.056,2.745,2.745,0,0,1,2.188,2.688v1.307a2.745,2.745,0,0,1-2.188,2.688,2.746,2.746,0,0,0,3.3-2.688v-1.307A2.744,2.744,0,0,0,166.539,248.715Zm0,0" transform="translate(-155.565 -233.101)" fill="#f9b3a7"/>
    <path id="Path_1422" data-name="Path 1422" d="M16.594,0H2.613A2.613,2.613,0,0,0,0,2.613V9.408a2.613,2.613,0,0,0,2.613,2.613H4.05l2.374,2.374a.523.523,0,0,0,.892-.37v-2h9.277a2.613,2.613,0,0,0,2.613-2.613V2.613A2.613,2.613,0,0,0,16.594,0Zm0,0" transform="translate(0)" fill="#8db0ff"/>
    <path id="Path_1423" data-name="Path 1423" d="M16.594,0H2.613A2.613,2.613,0,0,0,0,2.613V9.408a2.613,2.613,0,0,0,2.613,2.613H4.05l2.374,2.374a.523.523,0,0,0,.892-.37v-2h9.277a2.613,2.613,0,0,0,2.613-2.613V2.613A2.613,2.613,0,0,0,16.594,0Zm0,0" transform="translate(0)" fill="#8db0ff"/>
    <path id="Path_1424" data-name="Path 1424" d="M2.613,131.652A2.613,2.613,0,0,1,0,129.039v1.307a2.613,2.613,0,0,0,2.613,2.613H4.05l2.374,2.374a.523.523,0,0,0,.892-.37v-.045l-2.884-2.884a1.307,1.307,0,0,0-.924-.383Zm0,0" transform="translate(0 -120.938)" fill="#669af7"/>
    <path id="Path_1425" data-name="Path 1425" d="M125.831,0H124.2a2.611,2.611,0,0,1,2.209,1.217.654.654,0,0,1-.552,1h-1.07a3.92,3.92,0,0,0-3.92,3.92v3.92a.653.653,0,0,1-.653.653h-2.352a1.306,1.306,0,0,0-1.307,1.307h9.277a2.613,2.613,0,0,0,2.613-2.613V2.613A2.613,2.613,0,0,0,125.831,0Zm0,0" transform="translate(-109.238 0)" fill="#669af7"/>
    <path id="Path_1426" data-name="Path 1426" d="M208.663,56.2h13.981a2.613,2.613,0,0,1,2.613,2.613V65.6a2.613,2.613,0,0,1-2.613,2.613h-6.729v2a.523.523,0,0,1-.892.37l-2.374-2.374h-3.985A2.613,2.613,0,0,1,206.05,65.6V58.808a2.613,2.613,0,0,1,2.613-2.613Zm0,0" transform="translate(-193.115 -52.667)" fill="#ffd664"/>
    <g id="Group_3283" data-name="Group 3283" transform="translate(12.935 3.528)">
      <path id="Path_1427" data-name="Path 1427" d="M208.664,185.765a2.613,2.613,0,0,1-2.613-2.613v1.437a2.613,2.613,0,0,0,2.613,2.613h3.985l2.374,2.374a.523.523,0,0,0,.892-.37v-.176l-2.884-2.884a1.306,1.306,0,0,0-.924-.383Zm0,0" transform="translate(-206.051 -175.182)" fill="#f9c646"/>
      <path id="Path_1428" data-name="Path 1428" d="M369.917,56.194h-1.633a2.613,2.613,0,0,1,2.613,2.613v6.664a1.307,1.307,0,0,1-1.307,1.307h-5.1a1.306,1.306,0,0,0-1.307,1.307v.131h6.729A2.613,2.613,0,0,0,372.53,65.6V58.808a2.613,2.613,0,0,0-2.613-2.613Zm0,0" transform="translate(-353.323 -56.194)" fill="#f9c646"/>
    </g>
  </g>
</svg>
