<svg xmlns="http://www.w3.org/2000/svg" width="74.487" height="77.356" viewBox="0 0 74.487 77.356">
  <g id="reunion-interview-svgrepo-com" transform="translate(-8.563 -11.239)">
    <path id="Path_647" data-name="Path 647" d="M187.677,179.458a29.293,29.293,0,0,0,.261,9.2H159.37a29.293,29.293,0,0,0,.261-9.2,4.433,4.433,0,0,0-1.631-3l.652-1.957,9.262-4.5c-.717,3.066.652,8.023.652,7.957a6.039,6.039,0,0,1,5.022-3.979s3.913.326,5.022,3.979c.065.13,1.37-4.892.652-7.957l9.392,4.5.652,1.957A4.433,4.433,0,0,0,187.677,179.458Z" transform="translate(-127.847 -136.519)" fill="#f2ae27"/>
    <path id="Path_648" data-name="Path 648" d="M236.749,36.4a2.2,2.2,0,0,1-.326,1.109,8.565,8.565,0,0,0-7.7,0A2.2,2.2,0,0,1,228.4,36.4c0-1.565,1.892-2.8,4.174-2.8C234.922,33.6,236.749,34.839,236.749,36.4Z" transform="translate(-186.768 -22.361)" fill="#2b3b4e"/>
    <path id="Path_649" data-name="Path 649" d="M224.749,59.957a16.686,16.686,0,0,1-.261,3.066.9.9,0,0,0-.717-.065h0c.13-2.544-1.37-2.935-1.37-2.935a4.3,4.3,0,0,1-2.544-3.326,10.608,10.608,0,0,1-3.587,2.283c-5.088,2.087-4.827,3.979-4.827,4.044h0l-.065-.065h0a.7.7,0,0,0-.717.065,16.684,16.684,0,0,1-.261-3.066c0-5.74,3.261-7.957,7.24-7.957S224.749,54.218,224.749,59.957Z" transform="translate(-171.703 -37.76)" fill="#324a5e"/>
    <path id="Path_650" data-name="Path 650" d="M229.8,159.583h0c-5.283-2.544-4.7-5.805-4.7-5.805h0a4.309,4.309,0,0,1,.326-.978c1.174,2.022,2.674,3.457,4.37,3.457s3.2-1.435,4.37-3.457a5.741,5.741,0,0,1,.326.978h0C234.428,153.713,235.015,157.04,229.8,159.583Z" transform="translate(-183.99 -122.124)" fill="#f9b54c"/>
    <path id="SVGCleanerId_0" d="M258.631,158.4s.587,3.326-4.631,5.87c0,0,3.913.326,5.022,3.979C259.088,168.379,261.24,160.357,258.631,158.4Z" transform="translate(-208.194 -126.811)" fill="#fff"/>
    <g id="Group_1340" data-name="Group 1340" transform="translate(45.806 31.589)">
      <path id="SVGCleanerId_0_1_" d="M258.631,158.4s.587,3.326-4.631,5.87c0,0,3.913.326,5.022,3.979C259.088,168.379,261.24,160.357,258.631,158.4Z" transform="translate(-254 -158.4)" fill="#fff"/>
    </g>
    <path id="Path_651" data-name="Path 651" d="M218.991,158.4s-.587,3.326,4.631,5.87c0,0-3.913.326-5.022,3.979C218.535,168.379,216.382,160.357,218.991,158.4Z" transform="translate(-177.816 -126.811)" fill="#fff"/>
    <path id="Path_652" data-name="Path 652" d="M223.775,87.127a.7.7,0,0,0-.717-.065h0c.13-2.544-1.37-2.935-1.37-2.935a4.3,4.3,0,0,1-2.544-3.326,10.608,10.608,0,0,1-3.587,2.283c-5.088,2.087-4.827,3.979-4.827,4.044h0l-.065-.065h0a.7.7,0,0,0-.717.065c-.522.391-.522,1.435-.065,2.413.457.913,1.239,1.37,1.7,1.044,1.174,3,3.066,5.348,5.283,5.348,2.152,0,4.109-2.348,5.283-5.348.522.326,1.239-.13,1.7-1.044A2.212,2.212,0,0,0,223.775,87.127Z" transform="translate(-170.99 -61.864)" fill="#ffd05b"/>
    <g id="Group_1341" data-name="Group 1341" transform="translate(15.02 46.591)">
      <path id="Path_654" data-name="Path 654" d="M169.109,251.248h0l-.13,2.152a.923.923,0,0,1-.913.848H168a34.421,34.421,0,0,0,.2-3.848h.065A.822.822,0,0,1,169.109,251.248Z" transform="translate(-151.237 -250.4)" fill="#ffd05b"/>
      <path id="Path_655" data-name="Path 655" d="M66.309,254.248h0a.988.988,0,0,1-.978-.848l-.13-2.152a.822.822,0,0,1,.848-.848h.065A33.6,33.6,0,0,0,66.309,254.248Z" transform="translate(-65.2 -250.4)" fill="#ffd05b"/>
      <path id="Path_656" data-name="Path 656" d="M97.758,317.5h0a8.708,8.708,0,0,1-10.958,0h0a10.142,10.142,0,0,1,.522-1.5,4.657,4.657,0,0,0,2.8.913h4.24a4.657,4.657,0,0,0,2.8-.913A4.506,4.506,0,0,1,97.758,317.5Z" transform="translate(-83.278 -305.303)" fill="#ffd05b"/>
    </g>
    <g id="Group_1342" data-name="Group 1342" transform="translate(15.895 37.981)">
      <path id="Path_657" data-name="Path 657" d="M86.451,202.557c-.391-3.913-5.283-4.957-7.762-4.957h-.13c-2.479,0-7.305,1.044-7.762,4.957-.652,6.066.13,10.045,1.435,12.654a4.746,4.746,0,0,0,4.24,2.609h4.24a4.773,4.773,0,0,0,4.24-2.609C86.32,212.6,87.1,208.623,86.451,202.557Z" transform="translate(-70.562 -197.6)" fill="#324a5e"/>
      <path id="Path_658" data-name="Path 658" d="M86.02,215.211a4.816,4.816,0,0,1-1.37,1.631,4.657,4.657,0,0,1-2.8.913h-4.24a4.621,4.621,0,0,1-4.174-2.544c-1.3-2.544-2.087-6.522-1.435-12.654.391-3.913,5.218-4.957,7.7-4.957h.065c2.479,0,7.305,1.044,7.762,4.957C88.107,208.688,87.324,212.6,86.02,215.211Z" transform="translate(-71.567 -197.6)" fill="#324a5e"/>
      <path id="Path_659" data-name="Path 659" d="M83.2,393.8l.2-.2c-.065.13-.065.261-.13.326C83.265,393.991,83.265,393.926,83.2,393.8Z" transform="translate(-81.139 -361.64)" fill="#324a5e"/>
    </g>
    <path id="Path_660" data-name="Path 660" d="M92.636,327.418a13.251,13.251,0,0,1-13.436,0,3.4,3.4,0,0,1,1.239-2.218,8.613,8.613,0,0,0,10.958,0A4.061,4.061,0,0,1,92.636,327.418Z" transform="translate(-61.897 -266.412)" fill="#fff"/>
    <path id="Path_661" data-name="Path 661" d="M156,393.6l.2.2a.286.286,0,0,1-.065.2C156.065,393.861,156.065,393.73,156,393.6Z" transform="translate(-126.174 -323.659)" fill="#324a5e"/>
    <path id="Path_662" data-name="Path 662" d="M60.039,347.792a9.888,9.888,0,0,0-5.153-5.935L47.776,338.4h0a13.251,13.251,0,0,1-13.436,0h0l-7.175,3.457a10.28,10.28,0,0,0-1.565.978,41.415,41.415,0,0,0,35.939,23.22v-8.479a32.629,32.629,0,0,0-1.5-9.784Z" transform="translate(-17.037 -277.46)" fill="#e6e9ee"/>
    <path id="Path_663" data-name="Path 663" d="M62.755,383.6H42.666a4.655,4.655,0,0,0-3.066,1.109A41.461,41.461,0,0,0,67.581,403.3V388.492A4.83,4.83,0,0,0,62.755,383.6Z" transform="translate(-28.754 -315.289)" fill="#324a5e"/>
    <g id="Group_1343" data-name="Group 1343" transform="translate(58.721 46.591)">
      <path id="Path_664" data-name="Path 664" d="M437.109,251.546h0l-.13,2.218a.923.923,0,0,1-.913.848H436a33.6,33.6,0,0,0,.2-3.848h.065A.77.77,0,0,1,437.109,251.546Z" transform="translate(-419.237 -250.698)" fill="#ffd05b"/>
      <path id="Path_665" data-name="Path 665" d="M334.309,254.248h0a.988.988,0,0,1-.978-.848l-.13-2.152a.822.822,0,0,1,.848-.848h.065A17.843,17.843,0,0,0,334.309,254.248Z" transform="translate(-333.2 -250.4)" fill="#ffd05b"/>
      <path id="Path_666" data-name="Path 666" d="M365.023,317.165h0a8.812,8.812,0,0,1-11.023,0h0a14.686,14.686,0,0,1,.522-1.565,4.657,4.657,0,0,0,2.8.913h4.24a4.657,4.657,0,0,0,2.8-.913A3.348,3.348,0,0,1,365.023,317.165Z" transform="translate(-350.608 -304.968)" fill="#ffd05b"/>
    </g>
    <path id="Path_667" data-name="Path 667" d="M365.6,393.8l.2-.2c-.065.13-.065.261-.13.326C365.665,393.991,365.6,393.926,365.6,393.8Z" transform="translate(-301.596 -323.659)" fill="#324a5e"/>
    <path id="Path_668" data-name="Path 668" d="M360.236,327.418a13.251,13.251,0,0,1-13.436,0,3.4,3.4,0,0,1,1.239-2.218,8.613,8.613,0,0,0,10.958,0A4.061,4.061,0,0,1,360.236,327.418Z" transform="translate(-285.861 -266.412)" fill="#fff"/>
    <path id="Path_669" data-name="Path 669" d="M423.6,393.6l.2.2a.286.286,0,0,1-.065.2C423.665,393.861,423.665,393.73,423.6,393.6Z" transform="translate(-350.138 -323.659)" fill="#324a5e"/>
    <path id="Path_670" data-name="Path 670" d="M298.273,342.77a8.978,8.978,0,0,0-1.565-.913L289.6,338.4h0a13.251,13.251,0,0,1-13.436,0h0l-7.109,3.457a9.888,9.888,0,0,0-5.153,5.935,30.972,30.972,0,0,0-1.5,9.784v8.479A41.538,41.538,0,0,0,298.273,342.77Z" transform="translate(-215.224 -277.46)" fill="#e6e9ee"/>
    <g id="Group_1344" data-name="Group 1344" transform="translate(52.72 37.981)">
      <path id="Path_671" data-name="Path 671" d="M301.292,383.6a4.885,4.885,0,0,0-4.892,4.892V403.3a41.317,41.317,0,0,0,27.981-18.589,5.025,5.025,0,0,0-3.066-1.109Z" transform="translate(-296.4 -353.271)" fill="#324a5e"/>
      <path id="Path_672" data-name="Path 672" d="M354.051,202.557c-.391-3.913-5.283-4.957-7.762-4.957h-.13c-2.479,0-7.305,1.044-7.762,4.957-.652,6.066.13,10.045,1.435,12.654a4.746,4.746,0,0,0,4.24,2.609h4.24a4.773,4.773,0,0,0,4.24-2.609C353.92,212.6,354.7,208.623,354.051,202.557Z" transform="translate(-331.352 -197.6)" fill="#324a5e"/>
    </g>
  </g>
</svg>
