<svg xmlns="http://www.w3.org/2000/svg" width="35.82" height="34.963" viewBox="0 0 35.82 34.963">
  <g id="crafts" transform="translate(0)">
    <path id="Path_1673" data-name="Path 1673" transform="translate(0)" fill="none" stroke="#000" stroke-linecap="round" stroke-linejoin="round" stroke-miterlimit="10" stroke-width="15"/>
    <g id="Group_3362" data-name="Group 3362" transform="translate(0 0.857)">
      <path id="Path_1674" data-name="Path 1674" d="M280.619,439.586h-1.607a.717.717,0,0,1-.717-.717v-3.81h3.04v3.81A.716.716,0,0,1,280.619,439.586Z" transform="translate(-258.825 -405.48)" fill="#fcb44d"/>
      <path id="Path_1675" data-name="Path 1675" d="M278.3,435.06h3.04v2.481H278.3Z" transform="translate(-258.826 -405.48)" fill="#fb9927"/>
      <path id="Path_1676" data-name="Path 1676" d="M252.371,393h-6.1a.763.763,0,0,1-.763-.763v-3.1h7.628v3.1A.763.763,0,0,1,252.371,393Z" transform="translate(-228.329 -362.769)" fill="#fb6a3b"/>
      <path id="Path_1677" data-name="Path 1677" d="M253.134,389.137h-7.628v2.432h4.9a.669.669,0,0,1,.669.669.762.762,0,0,1-.763.763h2.064a.762.762,0,0,0,.763-.763Z" transform="translate(-228.33 -362.769)" fill="#ec462e"/>
      <g id="Group_3352" data-name="Group 3352" transform="translate(11.384)">
        <path id="Path_1678" data-name="Path 1678" d="M178.818,37.2l.259-.858h-13.51l.259.858a6.506,6.506,0,0,1-1.1,5.865,9.606,9.606,0,1,0,15.159-.049A6.418,6.418,0,0,1,178.818,37.2Z" transform="translate(-162.716 -34.657)" fill="#fcb44d"/>
        <path id="Path_1679" data-name="Path 1679" d="M217.785,43.018a6.42,6.42,0,0,1-1.065-5.817l.259-.858H203.47l.259.858a6.429,6.429,0,0,1,.274,1.9h9.088a1.2,1.2,0,0,1,1.182,1.017,6.307,6.307,0,0,0,1.262,2.895,9.607,9.607,0,0,1-6.43,15.467,9.606,9.606,0,0,0,8.681-15.467Z" transform="translate(-200.619 -34.657)" fill="#fca62f"/>
        <g id="Group_3351" data-name="Group 3351" transform="translate(0.934)">
          <path id="Path_1680" data-name="Path 1680" d="M192.49,14.9h-15.5a.92.92,0,0,1-.92-.92v-.817a.92.92,0,0,1,.92-.92h15.5a.92.92,0,0,1,.92.92v.817A.92.92,0,0,1,192.49,14.9Z" transform="translate(-176.066 -12.246)" fill="#ffd597"/>
          <path id="Path_1681" data-name="Path 1681" d="M382.161,13.168v.818a.92.92,0,0,1-.921.92h-2.226a.92.92,0,0,0,.92-.92v-.818a.92.92,0,0,0-.92-.92h2.226A.92.92,0,0,1,382.161,13.168Z" transform="translate(-364.817 -12.248)" fill="#fcb44d"/>
        </g>
      </g>
      <g id="Group_3358" data-name="Group 3358" transform="translate(0 4.096)">
        <g id="Group_3353" data-name="Group 3353" transform="translate(7.778 9.754)">
          <path id="Path_1682" data-name="Path 1682" d="M125.036,215.429a57.043,57.043,0,0,1-9.517-.7c-3.9-.694-4.346-1.593-4.346-2.209a.537.537,0,0,1,1.074-.02c.1.19.943.754,3.79,1.227a64.516,64.516,0,0,0,18,0c2.754-.458,3.636-1,3.778-1.207-.144-.211-1.051-.765-3.892-1.226a.537.537,0,1,1,.172-1.061c4.308.7,4.806,1.64,4.806,2.287,0,.616-.451,1.514-4.346,2.209A57.033,57.033,0,0,1,125.036,215.429Zm12.792-2.885h0Z" transform="translate(-111.173 -210.222)" fill="#ffd597"/>
        </g>
        <path id="Path_1683" data-name="Path 1683" d="M428.419,206.922q0,.463-.043.916a.842.842,0,0,1,.016-1.633C428.41,206.441,428.419,206.681,428.419,206.922Z" transform="translate(-397.823 -196.732)" fill="#fca62f"/>
        <path id="Path_1684" data-name="Path 1684" d="M6.04,82.879h8.706a1.186,1.186,0,0,0,1.195-1.125,1.168,1.168,0,0,0-1.167-1.21h1.093a1.186,1.186,0,0,0,1.195-1.125,1.168,1.168,0,0,0-1.167-1.21h.841a1.168,1.168,0,1,0,0-2.336h-.841a1.168,1.168,0,1,0,0-2.336H10.285a1.369,1.369,0,0,0,0-2.738H6.04a6.04,6.04,0,1,0,0,12.08Z" transform="translate(0 -70.799)" fill="#fdb0a0"/>
        <path id="Path_1685" data-name="Path 1685" d="M186.569,114.6h-.84a1.168,1.168,0,0,1,1.167,1.21,1.186,1.186,0,0,1-1.2,1.126h-1.093a1.168,1.168,0,0,1,1.167,1.21,1.186,1.186,0,0,1-1.2,1.125h-1.97a1.186,1.186,0,0,0,1.2-1.125,1.168,1.168,0,0,0-1.167-1.21h1.093a1.186,1.186,0,0,0,1.2-1.126,1.168,1.168,0,0,0-1.167-1.21h.841a1.168,1.168,0,1,0,0-2.336h-.841a1.168,1.168,0,1,0,0-2.335h1.97a1.168,1.168,0,1,1,0,2.335h.84a1.168,1.168,0,1,1,0,2.336Z" transform="translate(-169.835 -107.194)" fill="#f9a08f"/>
        <path id="Path_1686" data-name="Path 1686" d="M122.194,72.168a1.369,1.369,0,0,1-1.369,1.369h-1.97a1.369,1.369,0,1,0,0-2.738h1.97a1.367,1.367,0,0,1,1.369,1.369Z" transform="translate(-110.54 -70.799)" fill="#f9a08f"/>
        <g id="Group_3354" data-name="Group 3354" transform="translate(6.919 2.2)">
          <path id="Path_1687" data-name="Path 1687" d="M108.863,103.327H99.442a.537.537,0,0,1,0-1.075h3.916a1.366,1.366,0,0,1-1.087.537h5.609a1.166,1.166,0,0,1,.826.342A1.183,1.183,0,0,1,108.863,103.327Z" transform="translate(-98.905 -102.252)" fill="#f4988c"/>
        </g>
        <g id="Group_3355" data-name="Group 3355" transform="translate(9.555 4.536)">
          <path id="Path_1688" data-name="Path 1688" d="M144.737,136.7h-7.626a.537.537,0,0,1,0-1.075H143.9a1.166,1.166,0,0,1-.983.537h.84a1.168,1.168,0,0,1,.826.342A1.183,1.183,0,0,1,144.737,136.7Z" transform="translate(-136.574 -135.63)" fill="#f4988c"/>
        </g>
        <g id="Group_3356" data-name="Group 3356" transform="translate(9.555 6.871)">
          <path id="Path_1689" data-name="Path 1689" d="M143.754,169.554h-.841a1.167,1.167,0,0,1,.983.537h-6.785a.537.537,0,1,1,0-1.075h7.626A1.167,1.167,0,0,1,143.754,169.554Z" transform="translate(-136.574 -169.017)" fill="#f4988c"/>
        </g>
        <g id="Group_3357" data-name="Group 3357" transform="translate(9.555 9.207)">
          <path id="Path_1690" data-name="Path 1690" d="M143.892,202.4a1.21,1.21,0,0,1-1.007.537h-1.093a1.167,1.167,0,0,1,.983.537H137.11a.537.537,0,0,1,0-1.075Z" transform="translate(-136.573 -202.405)" fill="#f4988c"/>
        </g>
      </g>
      <path id="Path_1691" data-name="Path 1691" d="M151.265,356.925H128.714a.763.763,0,0,1-.763-.763v-1.635a.763.763,0,0,1,.763-.763h22.551a.763.763,0,0,1,.763.763v1.635A.763.763,0,0,1,151.265,356.925Z" transform="translate(-118.999 -329.872)" fill="#5b5555"/>
      <path id="Path_1692" data-name="Path 1692" d="M433.549,354.531v1.634a.762.762,0,0,1-.763.763H430.65a.762.762,0,0,0,.763-.763v-1.634a.762.762,0,0,0-.763-.763h2.137A.762.762,0,0,1,433.549,354.531Z" transform="translate(-400.522 -329.875)" fill="#433f43"/>
      <g id="Group_3359" data-name="Group 3359" transform="translate(17.363 15.712)">
        <path id="Path_1693" data-name="Path 1693" d="M251.81,237.959c-1.056,0-2.1-.018-3.109-.055a.537.537,0,0,1,.039-1.074c.994.036,2.027.054,3.07.054a.537.537,0,0,1,0,1.075Z" transform="translate(-248.183 -236.83)" fill="#ffd597"/>
      </g>
      <g id="Group_3360" data-name="Group 3360" transform="translate(6.16 18.739)">
        <path id="Path_1694" data-name="Path 1694" d="M92.174,282.05a.538.538,0,0,1-.087-.007,19.306,19.306,0,0,1-3.693-.906.537.537,0,1,1,.385-1,18.282,18.282,0,0,0,3.48.849.537.537,0,0,1-.086,1.068Z" transform="translate(-88.049 -280.097)" fill="#ffd597"/>
      </g>
      <g id="Group_3361" data-name="Group 3361" transform="translate(20.452 18.739)">
        <path id="Path_1695" data-name="Path 1695" d="M292.88,282.777a.537.537,0,1,1,0-1.075,69.667,69.667,0,0,0,10.619-.718,18.282,18.282,0,0,0,3.48-.849.537.537,0,0,1,.385,1,19.307,19.307,0,0,1-3.693.906A70.75,70.75,0,0,1,292.88,282.777Z" transform="translate(-292.343 -280.099)" fill="#ffd597"/>
      </g>
    </g>
    <g id="Group_3363" data-name="Group 3363" transform="translate(23.507 6.482)">
      <path id="Path_1696" data-name="Path 1696" d="M336.544,94.4a.537.537,0,0,1-.537-.537V93.19a.537.537,0,1,1,1.075,0v.671A.537.537,0,0,1,336.544,94.4Z" transform="translate(-336.007 -92.653)" fill="#fca62f"/>
    </g>
    <g id="Group_3364" data-name="Group 3364" transform="translate(21.257 8.345)">
      <path id="Path_1697" data-name="Path 1697" d="M304.375,121.03a.537.537,0,0,1-.537-.537v-.671a.537.537,0,1,1,1.075,0v.671A.537.537,0,0,1,304.375,121.03Z" transform="translate(-303.838 -119.284)" fill="#f2982c"/>
    </g>
    <g id="Group_3365" data-name="Group 3365" transform="translate(25.031 13.489)">
      <path id="Path_1698" data-name="Path 1698" d="M358.319,194.552a.537.537,0,0,1-.537-.537v-.671a.537.537,0,0,1,1.075,0v.671A.537.537,0,0,1,358.319,194.552Z" transform="translate(-357.782 -192.806)" fill="#ffd597"/>
    </g>
  </g>
</svg>
