<svg xmlns="http://www.w3.org/2000/svg" width="29.244" height="37.256" viewBox="0 0 29.244 37.256">
  <g id="crime" transform="translate(-14.204)">
    <g id="Group_3368" data-name="Group 3368" transform="translate(14.204 22.89)">
      <path id="Path_1700" data-name="Path 1700" d="M84.274,321.31a12.075,12.075,0,0,0-1.993-3.98c-1.653-1.459-8.578-2.65-9.162-2.748h-.036s0,0,0-.007h-6.86c-.188.031-7.495,1.25-9.2,2.754a12.074,12.074,0,0,0-1.993,3.98,17.854,17.854,0,0,0,10.043,7.036h9.161a17.854,17.854,0,0,0,10.041-7.032Z" transform="translate(-55.031 -314.574)" fill="#a05838"/>
    </g>
    <g id="Group_3369" data-name="Group 3369" transform="translate(20.039 19.319)">
      <path id="Path_1701" data-name="Path 1701" d="M144,265.495c-4.847,0-7.843,5.211-8.758,9.791a1.569,1.569,0,0,0,1.137,1.824l.142.038a1.569,1.569,0,0,1,1.061.949l1.839,4.74a17.747,17.747,0,0,0,2.122.426L144,282.009l2.48,1.251a17.726,17.726,0,0,0,2.1-.423l1.839-4.74a1.569,1.569,0,0,1,1.061-.949l.142-.038a1.569,1.569,0,0,0,1.137-1.824C151.848,270.706,148.852,265.495,144,265.495Z" transform="translate(-135.216 -265.495)" fill="#b76c4e"/>
    </g>
    <g id="Group_3370" data-name="Group 3370" transform="translate(24.277 22.89)">
      <path id="Path_1702" data-name="Path 1702" d="M194.583,314.575s-.437.072-1.123.2l1.955,7.874a3.923,3.923,0,0,1,.116.945v5.172a17.91,17.91,0,0,0,4.96,0V323.6a3.919,3.919,0,0,1,.116-.945l1.955-7.874c-.686-.13-1.123-.2-1.123-.2Z" transform="translate(-193.46 -314.575)" fill="#dae2fe"/>
    </g>
    <g id="Group_3371" data-name="Group 3371" transform="translate(26.348 32.869)">
      <path id="Path_1703" data-name="Path 1703" d="M221.917,451.709v4.215a17.91,17.91,0,0,0,4.96,0v-1.893A7.678,7.678,0,0,1,221.917,451.709Z" transform="translate(-221.917 -451.709)" fill="#bec9f7"/>
    </g>
    <g id="Group_3372" data-name="Group 3372" transform="translate(16.826 30.667)">
      <path id="Path_1704" data-name="Path 1704" d="M91.07,421.841v1.552a17.92,17.92,0,0,0,1.644,1.329l-.876-2.991A.392.392,0,0,0,91.07,421.841Z" transform="translate(-91.07 -421.448)" fill="#934a2e"/>
    </g>
    <g id="Group_3373" data-name="Group 3373" transform="translate(39.184 30.667)">
      <path id="Path_1705" data-name="Path 1705" d="M399.975,421.841v1.552a17.919,17.919,0,0,1-1.644,1.329l.876-2.991A.392.392,0,0,1,399.975,421.841Z" transform="translate(-398.331 -421.448)" fill="#934a2e"/>
    </g>
    <g id="Group_3374" data-name="Group 3374" transform="translate(25.4 14.098)">
      <path id="Path_1706" data-name="Path 1706" d="M208.891,193.75v8.792c0,1.336,1.535,2.42,3.428,2.42s3.428-1.083,3.428-2.42V193.75Z" transform="translate(-208.891 -193.75)" fill="#fcad6d"/>
    </g>
    <g id="Group_3375" data-name="Group 3375" transform="translate(25.38 16.062)">
      <path id="Path_1707" data-name="Path 1707" d="M208.614,220.734v6.828c6.893,0,6.9-3.886,6.9-3.886v-2.943h-6.9Z" transform="translate(-208.614 -220.734)" fill="#fd995b"/>
    </g>
    <g id="Group_3376" data-name="Group 3376" transform="translate(20.739 10.134)">
      <path id="Path_1708" data-name="Path 1708" d="M147.471,140.745s-.756-1.84-2.1-1.413.033,4.414,2.661,4.665Z" transform="translate(-144.844 -139.268)" fill="#fd995b"/>
    </g>
    <g id="Group_3377" data-name="Group 3377" transform="translate(33.731 10.134)">
      <path id="Path_1709" data-name="Path 1709" d="M323.941,140.745s.756-1.84,2.1-1.413-.033,4.414-2.661,4.665Z" transform="translate(-323.382 -139.268)" fill="#fcad6d"/>
    </g>
    <g id="Group_3378" data-name="Group 3378" transform="translate(22.454 2.61)">
      <path id="Path_1710" data-name="Path 1710" d="M181.151,43.939c0,4.694-2.854,10.2-6.374,10.2s-6.374-5.5-6.374-10.2,2.854-8.069,6.374-8.069S181.151,39.245,181.151,43.939Z" transform="translate(-168.403 -35.87)" fill="#f9ba8f"/>
    </g>
    <g id="Group_3380" data-name="Group 3380" transform="translate(27.736 12.802)">
      <g id="Group_3379" data-name="Group 3379">
        <path id="Path_1711" data-name="Path 1711" d="M241.074,177.138l.614-.978a.477.477,0,0,1,.808,0l.614.978a.477.477,0,0,1-.4.73h-1.228A.477.477,0,0,1,241.074,177.138Z" transform="translate(-241 -175.936)" fill="#fd995b"/>
      </g>
    </g>
    <g id="Group_3381" data-name="Group 3381" transform="translate(22.454 2.61)">
      <path id="Path_1712" data-name="Path 1712" d="M171.314,43.938c0-4.026,2.1-7.082,4.919-7.869a5.4,5.4,0,0,0-1.455-.2c-3.52,0-6.374,3.375-6.374,8.069s2.854,10.2,6.374,10.2a3.611,3.611,0,0,0,1.455-.316c-2.819-1.234-4.919-5.856-4.919-9.882Z" transform="translate(-168.403 -35.869)" fill="#fcad6d"/>
    </g>
    <g id="Group_3382" data-name="Group 3382" transform="translate(21.73 0)">
      <path id="Path_1713" data-name="Path 1713" d="M168.344,0a2.466,2.466,0,0,0-1.159.289l-.371.2A2.678,2.678,0,0,1,165.556.8,2.679,2.679,0,0,1,164.3.487l-.371-.2a2.465,2.465,0,0,0-3.548,1.57l-1.92,7.567,7.1,1.537,7.1-1.537-1.92-7.567A2.465,2.465,0,0,0,168.344,0Z" transform="translate(-158.458 0)" fill="#a05838"/>
    </g>
    <g id="Group_3383" data-name="Group 3383" transform="translate(21.73 2.407)">
      <path id="Path_1714" data-name="Path 1714" d="M160.239,33.082,158.458,40.1l7.1,1.537V39.5c-4.532-1.336-5.317-6.415-5.317-6.415Z" transform="translate(-158.458 -33.082)" fill="#934a2e"/>
    </g>
    <g id="Group_3384" data-name="Group 3384" transform="translate(28.828 21.801)">
      <path id="Path_1715" data-name="Path 1715" d="M259.428,299.609,256,303.118s1.334,2.412,2.2,2.412,2.354-4.629,2.354-4.629Z" transform="translate(-256 -299.609)" fill="#fff"/>
    </g>
    <g id="Group_3385" data-name="Group 3385" transform="translate(24.277 21.801)">
      <path id="Path_1716" data-name="Path 1716" d="M194.583,299.609l3.428,3.509s-1.334,2.412-2.2,2.412-2.354-4.629-2.354-4.629Z" transform="translate(-193.46 -299.609)" fill="#fff"/>
    </g>
    <g id="Group_3386" data-name="Group 3386" transform="translate(24.425 8.984)">
      <path id="Path_1717" data-name="Path 1717" d="M198,125.059h-1.455a.546.546,0,1,1,0-1.091H198a.546.546,0,0,1,0,1.091Z" transform="translate(-195.964 -123.932)" fill="#fff"/>
      <path id="Path_1718" data-name="Path 1718" d="M197.537,124.632h-1.455a.582.582,0,0,1,0-1.164h1.455a.582.582,0,0,1,0,1.164Zm-1.455-1.091a.509.509,0,0,0,0,1.019h1.455a.509.509,0,1,0,0-1.019Z" transform="translate(-195.5 -123.468)"/>
    </g>
    <g id="Group_3387" data-name="Group 3387" transform="translate(30.61 8.984)">
      <path id="Path_1719" data-name="Path 1719" d="M283,125.059h-1.455a.546.546,0,0,1,0-1.091H283a.546.546,0,0,1,0,1.091Z" transform="translate(-280.964 -123.932)" fill="#fff"/>
      <path id="Path_1720" data-name="Path 1720" d="M282.537,124.632h-1.455a.582.582,0,0,1,0-1.164h1.455a.582.582,0,0,1,0,1.164Zm-1.455-1.091a.509.509,0,1,0,0,1.019h1.455a.509.509,0,1,0,0-1.019Z" transform="translate(-280.5 -123.468)"/>
    </g>
    <g id="Group_3388" data-name="Group 3388" transform="translate(19.135 8.822)">
      <path id="Path_1721" data-name="Path 1721" d="M142.182,122.149a.912.912,0,0,1-.654.874,30.368,30.368,0,0,1-18.078,0,.912.912,0,0,1,.258-1.786h17.562A.912.912,0,0,1,142.182,122.149Z" transform="translate(-122.797 -121.237)" fill="#b76c4e"/>
    </g>
    <g id="Group_3389" data-name="Group 3389" transform="translate(19.135 8.822)">
      <path id="Path_1722" data-name="Path 1722" d="M130.908,122.818a1.581,1.581,0,0,1,1.581-1.581h-8.781a.912.912,0,0,0-.258,1.786,33.619,33.619,0,0,0,9.039,1.376A1.581,1.581,0,0,1,130.908,122.818Z" transform="translate(-122.797 -121.237)" fill="#a05838"/>
    </g>
    <g id="Group_3405" data-name="Group 3405" transform="translate(30.72 17.041)">
      <g id="Group_3390" data-name="Group 3390" transform="translate(4.73 12.132)">
        <path id="Path_1723" data-name="Path 1723" d="M348.091,405.9A1.092,1.092,0,0,1,347,404.812v-3.9h2.183v3.9A1.092,1.092,0,0,1,348.091,405.9Z" transform="translate(-347 -400.915)" fill="#2d3c6b"/>
      </g>
      <g id="Group_3391" data-name="Group 3391" transform="translate(4.73 12.132)">
        <path id="Path_1724" data-name="Path 1724" d="M348.091,403.168a1.092,1.092,0,0,1,1.091,1.091v-3.346H347v3.346A1.092,1.092,0,0,1,348.091,403.168Z" transform="translate(-347 -400.914)" fill="#222d5b"/>
      </g>
      <g id="Group_3392" data-name="Group 3392" transform="translate(4.366 10.551)">
        <path id="Path_1725" data-name="Path 1725" d="M344.547,381.371h-2.183a.364.364,0,0,1-.364-.364v-1.819h2.911v1.819A.364.364,0,0,1,344.547,381.371Z" transform="translate(-342 -379.188)" fill="#ffb332"/>
      </g>
      <g id="Group_3393" data-name="Group 3393" transform="translate(4.366 10.551)">
        <path id="Path_1726" data-name="Path 1726" d="M343.473,381.007v-1.819H342v1.819a.364.364,0,0,0,.364.364h1.473A.364.364,0,0,1,343.473,381.007Z" transform="translate(-342 -379.188)" fill="#ff9100"/>
      </g>
      <g id="Group_3394" data-name="Group 3394">
        <circle id="Ellipse_306" data-name="Ellipse 306" cx="5.821" cy="5.821" r="5.821" fill="#2d3c6b"/>
      </g>
      <g id="Group_3395" data-name="Group 3395" transform="translate(1.091 1.091)">
        <circle id="Ellipse_307" data-name="Ellipse 307" cx="4.73" cy="4.73" r="4.73" fill="#73c3f9"/>
      </g>
      <g id="Group_3396" data-name="Group 3396" transform="translate(1.091 1.091)">
        <path id="Path_1727" data-name="Path 1727" d="M299.183,253.918a4.737,4.737,0,0,1,3.638-4.6,4.73,4.73,0,1,0,0,9.2A4.737,4.737,0,0,1,299.183,253.918Z" transform="translate(-297 -249.188)" fill="#4fabf7"/>
      </g>
      <g id="Group_3404" data-name="Group 3404" transform="translate(2.183 2.803)">
        <g id="Group_3398" data-name="Group 3398">
          <g id="Group_3397" data-name="Group 3397">
            <path id="Path_1728" data-name="Path 1728" d="M319.151,275.317a.753.753,0,0,1,0,.834c-.551.828-1.916,2.6-3.512,2.6s-2.962-1.773-3.512-2.6a.753.753,0,0,1,0-.834c.551-.828,1.916-2.6,3.512-2.6S318.6,274.489,319.151,275.317Z" transform="translate(-312 -272.716)" fill="#fff"/>
          </g>
        </g>
        <g id="Group_3399" data-name="Group 3399" transform="translate(0)">
          <path id="Path_1729" data-name="Path 1729" d="M316.771,273a2.568,2.568,0,0,0-1.132-.284c-1.6,0-2.962,1.773-3.512,2.6a.753.753,0,0,0,0,.834c.551.828,1.916,2.6,3.512,2.6a2.568,2.568,0,0,0,1.132-.284A3.063,3.063,0,0,1,316.771,273Z" transform="translate(-312.001 -272.716)" fill="#e9efff"/>
        </g>
        <g id="Group_3401" data-name="Group 3401" transform="translate(2.129 1.509)">
          <g id="Group_3400" data-name="Group 3400">
            <circle id="Ellipse_308" data-name="Ellipse 308" cx="1.509" cy="1.509" r="1.509" fill="#3c5082"/>
          </g>
        </g>
        <g id="Group_3403" data-name="Group 3403" transform="translate(3.638 1.509)">
          <g id="Group_3402" data-name="Group 3402">
            <circle id="Ellipse_309" data-name="Ellipse 309" cx="0.754" cy="0.754" r="0.754" fill="#fff"/>
          </g>
        </g>
      </g>
    </g>
  </g>
</svg>
