<svg xmlns="http://www.w3.org/2000/svg" width="61.041" height="74.653" viewBox="0 0 61.041 74.653">
  <g id="scientist-svgrepo-com" transform="translate(-13.687 -11.655)">
    <path id="Path_618" data-name="Path 618" d="M99.92,361.288a42.271,42.271,0,0,0,30.52-12.98,61.756,61.756,0,0,0-1.418-6.388c-1.452-4.663-13.868-8.42-29.171-8.42s-27.583,3.757-29.034,8.42c-.444,1.452-.939,3.792-1.418,6.388A42.271,42.271,0,0,0,99.92,361.288Z" transform="translate(-55.713 -274.98)" fill="#1d4269"/>
    <path id="Path_619" data-name="Path 619" d="M217.944,333.961a64.24,64.24,0,0,0-7.873-.461,62.535,62.535,0,0,0-7.771.461l7.822,15.542Z" transform="translate(-165.915 -274.98)" fill="#dadde0"/>
    <rect id="Rectangle_1214" data-name="Rectangle 1214" width="14.688" height="4.27" transform="translate(36.863 57.052)" fill="#dee0e2"/>
    <path id="Path_620" data-name="Path 620" d="M216.756,338.135,210.3,325.018s1.571-2.118,6.388-2.118,6.507,2.135,6.507,2.135Z" transform="translate(-172.549 -266.19)" fill="#e2a379"/>
    <g id="Group_1333" data-name="Group 1333" transform="translate(30.544 57.052)">
      <path id="Path_621" data-name="Path 621" d="M168.1,330.417l6.319-5.517,5.465,10.914s-4.3,1.213-4.355,1.161Z" transform="translate(-168.1 -324.9)" fill="#f2ae27"/>
      <path id="Path_622" data-name="Path 622" d="M270.885,330.417l-6.319-5.517L259.1,335.814s4.3,1.213,4.355,1.161Z" transform="translate(-243.558 -324.9)" fill="#f2ae27"/>
    </g>
    <path id="Path_623" data-name="Path 623" d="M222.488,282.1H209.2c2.067,6.251.171,9.1.171,9.1a20.63,20.63,0,0,0,12.946,0S220.421,288.351,222.488,282.1Z" transform="translate(-171.637 -232.358)" fill="#e2a379"/>
    <path id="Path_624" data-name="Path 624" d="M189.962,81c0-15.781-6.746-19.4-15.081-19.4-8.318,0-15.081,3.621-15.081,19.4a28.593,28.593,0,0,0,2.647,12.758c3.484,7.1,9.513,9.581,12.434,9.581s8.949-2.476,12.434-9.581A28.593,28.593,0,0,0,189.962,81Z" transform="translate(-130.674 -49.518)" fill="#f4b382"/>
    <path id="Path_625" data-name="Path 625" d="M189.962,78.929c0-15.781-5.175-19.829-15.081-19.829S159.8,63.148,159.8,78.929c0,0,2.784-5.824,4.833-9.069s6.49-3.125,6.49-3.125h8.369s4.611.051,5.892,3.125Z" transform="translate(-130.674 -47.445)" fill="#47200d"/>
    <g id="Group_1334" data-name="Group 1334" transform="translate(44.122 51.586)">
      <path id="Path_626" data-name="Path 626" d="M247.6,292.9h0Z" transform="translate(-247.6 -292.9)" fill="#191919"/>
      <path id="Path_627" data-name="Path 627" d="M248.185,292.9Z" transform="translate(-248.015 -292.9)" fill="#191919"/>
    </g>
    <g id="Group_1335" data-name="Group 1335" transform="translate(27.402 31.979)">
      <path id="Path_628" data-name="Path 628" d="M153.241,188.45c-1.435.239-2.459.017-3.262-4.731s.29-5.38,1.725-5.619Z" transform="translate(-149.707 -178.1)" fill="#f4b382"/>
      <path id="Path_629" data-name="Path 629" d="M325.9,188.45c1.435.239,2.442.017,3.262-4.731s-.29-5.38-1.725-5.619Z" transform="translate(-295.808 -178.1)" fill="#f4b382"/>
    </g>
    <g id="Group_1336" data-name="Group 1336" transform="translate(31.312 32.201)">
      <path id="Path_630" data-name="Path 630" d="M174.991,191.615l-2.391-.12.1-.5,2.374.12Z" transform="translate(-172.6 -189.019)" fill="#141414"/>
      <path id="Path_631" data-name="Path 631" d="M308.8,191.615l-.1-.5,2.374-.12.1.5Z" transform="translate(-285.455 -189.019)" fill="#141414"/>
      <path id="Path_632" data-name="Path 632" d="M193.488,179.4h-7.839a.649.649,0,0,0-.649.649v4.372a.649.649,0,0,0,.649.649h7.839a.649.649,0,0,0,.649-.649v-4.389A.645.645,0,0,0,193.488,179.4Zm-.324,4.3a.5.5,0,0,1-.512.512h-6.2a.5.5,0,0,1-.512-.512v-2.9a.5.5,0,0,1,.512-.512h6.2a.5.5,0,0,1,.512.512Z" transform="translate(-182.882 -179.4)" fill="#141414"/>
      <path id="Path_633" data-name="Path 633" d="M266.188,179.4h-7.839a.649.649,0,0,0-.649.649v4.372a.649.649,0,0,0,.649.649h7.839a.649.649,0,0,0,.649-.649v-4.389A.645.645,0,0,0,266.188,179.4Zm-.307,4.3a.5.5,0,0,1-.512.512h-6.2a.5.5,0,0,1-.512-.512v-2.9a.5.5,0,0,1,.512-.512h6.2a.5.5,0,0,1,.512.512Z" transform="translate(-243.166 -179.4)" fill="#141414"/>
      <path id="Path_634" data-name="Path 634" d="M238.016,185.6c-1.913,0-2.1,1.178-2.049,1.776-.034.5.085.307.085.307a2.2,2.2,0,0,1,3.962,0s.12.188.085-.307C240.116,186.778,239.929,185.6,238.016,185.6Z" transform="translate(-225.138 -184.541)" fill="#141414"/>
    </g>
    <g id="Group_1337" data-name="Group 1337" transform="translate(34.369 33.09)">
      <path id="Path_635" data-name="Path 635" d="M270.524,188.016a.5.5,0,0,1-.512.512h-6.2a.5.5,0,0,1-.512-.512v-2.9a.5.5,0,0,1,.512-.512h6.2a.5.5,0,0,1,.512.512Z" transform="translate(-250.866 -184.6)" fill="#e8d3bb"/>
      <path id="Path_636" data-name="Path 636" d="M197.724,188.016a.5.5,0,0,1-.512.512h-6.2a.5.5,0,0,1-.512-.512v-2.9a.5.5,0,0,1,.512-.512h6.2a.5.5,0,0,1,.512.512Z" transform="translate(-190.5 -184.6)" fill="#e8d3bb"/>
    </g>
    <path id="Path_637" data-name="Path 637" d="M230.52,251.237c0,.444-2.032,1.623-4.56,1.623s-4.56-1.2-4.56-1.623c0-.273,1.452-1.042,2.408-1.178a6.969,6.969,0,0,1,2.135.5,6.829,6.829,0,0,1,2.118-.5A7.64,7.64,0,0,1,230.52,251.237Z" transform="translate(-181.753 -205.782)" fill="#e5a173"/>
    <path id="Path_638" data-name="Path 638" d="M230.52,257c0,.444-2.032,2.118-4.56,2.118s-4.56-1.691-4.56-2.118a46.943,46.943,0,0,0,9.12,0Z" transform="translate(-181.753 -211.545)" fill="#d89364"/>
    <g id="Group_1338" data-name="Group 1338" transform="translate(29.143 22.706)">
      <path id="Path_639" data-name="Path 639" d="M161.386,141.015l.478,4.714.666-.325c-.034-3.928.444-12.6.444-12.6l-2.955,3.877c-.068,1.059-.12,2.186-.12,3.382v.461C160.566,140.486,161.386,140.554,161.386,141.015Z" transform="translate(-159.9 -131.263)" fill="#47200d"/>
      <path id="Path_640" data-name="Path 640" d="M319.888,133.552l-.478,4.714-.666-.324c.034-3.928-.444-14.141-.444-14.141l2.955,5.414c.068,1.059.12,2.186.12,3.382v.461C320.708,133.023,319.888,133.091,319.888,133.552Z" transform="translate(-291.247 -123.8)" fill="#47200d"/>
    </g>
    <path id="Path_643" data-name="Path 643" d="M197.247,176.048h-7.873c-.905,0-1.366-1.435-1.827-2.818-.41-1.264-.837-2.562-1.554-2.562s-1.127,1.3-1.537,2.545c-.444,1.4-.905,2.835-1.845,2.835h-7.873a1.531,1.531,0,0,1-1.537-1.537v-7.873a1.531,1.531,0,0,1,1.537-1.537H197.23a1.531,1.531,0,0,1,1.537,1.537v7.873A1.527,1.527,0,0,1,197.247,176.048Zm-11.255-5.517c.8,0,1.23,1.281,1.657,2.647.444,1.349.888,2.733,1.708,2.733h7.873a1.414,1.414,0,0,0,1.418-1.418V166.62a1.414,1.414,0,0,0-1.418-1.418H174.737a1.414,1.414,0,0,0-1.418,1.418v7.873a1.414,1.414,0,0,0,1.418,1.418h7.873c.837,0,1.281-1.4,1.725-2.75S185.19,170.531,185.992,170.531Z" transform="translate(-141.785 -135.341)" fill="#e8d3bb"/>
    <g id="Group_1339" data-name="Group 1339" transform="translate(52.815 58.93)">
      <path id="Path_645" data-name="Path 645" d="M311.5,337.4Z" transform="translate(-309.28 -337.144)" fill="#fff"/>
      <path id="Path_646" data-name="Path 646" d="M298.5,335.9Z" transform="translate(-298.5 -335.9)" fill="#fff"/>
    </g>
  </g>
</svg>
