<svg id="exam" xmlns="http://www.w3.org/2000/svg" width="33.011" height="29.207" viewBox="0 0 33.011 29.207">
  <path id="Path_1473" data-name="Path 1473" d="M0,4.274l13.691,1.9,13.643-1.9V1.183A1.188,1.188,0,0,0,26.148,0H1.184A1.187,1.187,0,0,0,0,1.183Zm0,0" fill="#e6e6e6" fill-rule="evenodd"/>
  <path id="Path_1474" data-name="Path 1474" d="M18.76,66.285H0V90.034a1.187,1.187,0,0,0,1.183,1.184H26.148a1.189,1.189,0,0,0,1.185-1.184V66.285Zm0,0" transform="translate(0 -62.011)" fill="#8ebfe8" fill-rule="evenodd"/>
  <path id="Path_1475" data-name="Path 1475" d="M368.251,4.274h2.481V1.183A1.185,1.185,0,0,0,369.547,0h-2.481a1.187,1.187,0,0,1,1.185,1.183Zm0,0" transform="translate(-343.4 0)" fill="#c4cccf" fill-rule="evenodd"/>
  <path id="Path_1476" data-name="Path 1476" d="M370.237,66.285h-1.985V90.034a1.188,1.188,0,0,1-1.185,1.184h2.481a1.189,1.189,0,0,0,1.185-1.184V66.285Zm0,0" transform="translate(-343.4 -62.011)" fill="#519ad6" fill-rule="evenodd"/>
  <path id="Path_1477" data-name="Path 1477" d="M360.311,24.308H360.3a.5.5,0,1,1,0-1h.013a.5.5,0,1,1,0,1Zm0,0" transform="translate(-336.599 -21.802)" fill="#8bc34a"/>
  <path id="Path_1478" data-name="Path 1478" d="M327.26,24.308h-.013a.5.5,0,1,1,0-1h.013a.5.5,0,1,1,0,1Zm0,0" transform="translate(-305.679 -21.802)" fill="#ffd54f"/>
  <path id="Path_1479" data-name="Path 1479" d="M294.211,24.453H294.2a.5.5,0,1,1,0-1h.013a.5.5,0,1,1,0,1Zm0,0" transform="translate(-274.76 -21.937)" fill="#f0417b"/>
  <path id="Path_1480" data-name="Path 1480" d="M63.484,24.453H52.612a.5.5,0,1,1,0-1H63.484a.5.5,0,1,1,0,1Zm0,0" transform="translate(-48.75 -21.937)" fill="#35505c"/>
  <path id="Path_1481" data-name="Path 1481" d="M55.662,111.522h.985a.4.4,0,0,1,.284.118.42.42,0,0,1,.086.123.384.384,0,0,1-.083.428.394.394,0,0,1-.287.112H55.234a.434.434,0,0,1-.316-.126.42.42,0,0,1-.129-.313v-2.975a.434.434,0,0,1,.129-.31.415.415,0,0,1,.311-.134h1.392a.368.368,0,0,1,.273.115.381.381,0,0,1,.113.276.42.42,0,0,1-.113.284.375.375,0,0,1-.273.118h-.964v.738h.867a.394.394,0,0,1,.289.118.381.381,0,0,1,0,.549.4.4,0,0,1-.292.115h-.862Zm0,0" transform="translate(-51.257 -101.453)" fill="#35505c"/>
  <path id="Path_1482" data-name="Path 1482" d="M102.079,110.253l-.846,1.183a.426.426,0,0,1-.359.209.445.445,0,0,1-.311-.123.386.386,0,0,1-.134-.294.469.469,0,0,1,.1-.289l1.049-1.408-.857-1.129a.441.441,0,0,1-.091-.278.411.411,0,0,1,.128-.3.423.423,0,0,1,.311-.128.459.459,0,0,1,.375.225l.637.91.637-.91a.449.449,0,0,1,.375-.225.434.434,0,0,1,.305.126.4.4,0,0,1,.134.3.486.486,0,0,1-.1.278l-.852,1.129,1.044,1.407a.47.47,0,0,1,.1.289.4.4,0,0,1-.128.294.494.494,0,0,1-.139.091.432.432,0,0,1-.172.032.458.458,0,0,1-.364-.209Zm0,0" transform="translate(-93.955 -100.752)" fill="#35505c"/>
  <path id="Path_1483" data-name="Path 1483" d="M161.362,110.874l-.145.487a.394.394,0,0,1-.418.3.415.415,0,0,1-.305-.123.407.407,0,0,1-.123-.3.586.586,0,0,1,.038-.214l1.066-2.847a.652.652,0,0,1,1.259,0l1.049,2.852a.75.75,0,0,1,.043.257.362.362,0,0,1-.128.262.442.442,0,0,1-.3.107.391.391,0,0,1-.4-.294l-.155-.487Zm.744-2.28-.5,1.5.975.005Zm0,0" transform="translate(-150.031 -100.752)" fill="#35505c"/>
  <path id="Path_1484" data-name="Path 1484" d="M227.263,109.19l-.305,2.124q-.059.413-.434.412a.418.418,0,0,1-.316-.128.446.446,0,0,1-.123-.321.245.245,0,0,1,.011-.086l.5-2.954a.521.521,0,0,1,.2-.327.59.59,0,0,1,.38-.134.559.559,0,0,1,.573.434l.605,2.039.616-2.039a.548.548,0,0,1,.573-.434.579.579,0,0,1,.372.131.541.541,0,0,1,.2.329l.5,2.954.011.086a.443.443,0,0,1-.123.324.442.442,0,0,1-.75-.286l-.311-2.124-.642,2.189a.543.543,0,0,1-.153.273.466.466,0,0,1-.292.075.44.44,0,0,1-.445-.348Zm0,0" transform="translate(-211.509 -100.828)" fill="#35505c"/>
  <path id="Path_1485" data-name="Path 1485" d="M66.172,191.308H55.7a.5.5,0,1,1,0-1H66.172a.5.5,0,1,1,0,1Zm0,0" transform="translate(-51.637 -178.035)" fill="#35505c"/>
  <path id="Path_1486" data-name="Path 1486" d="M66.172,236.367H55.7a.5.5,0,1,1,0-1H66.172a.5.5,0,1,1,0,1Zm0,0" transform="translate(-51.637 -220.188)" fill="#35505c"/>
  <path id="Path_1487" data-name="Path 1487" d="M63.657,284.887H81.523a.673.673,0,0,1,.671.67v6.512a.673.673,0,0,1-.671.671H63.657a.674.674,0,0,1-.673-.671v-6.512A.673.673,0,0,1,63.657,284.887Zm0,0" transform="translate(-58.923 -266.519)" fill="#eceff1" fill-rule="evenodd"/>
  <path id="Path_1488" data-name="Path 1488" d="M92.8,319.254H85.061a.5.5,0,1,1,0-1H92.8a.5.5,0,1,1,0,1Zm0,0" transform="translate(-79.107 -297.731)" fill="#35505c"/>
  <path id="Path_1489" data-name="Path 1489" d="M95.934,355.765H85.061a.5.5,0,1,1,0-1H95.934a.5.5,0,1,1,0,1Zm0,0" transform="translate(-79.107 -331.888)" fill="#35505c"/>
  <g id="Group_3315" data-name="Group 3315" transform="translate(16.407 6.706)">
    <path id="Path_1490" data-name="Path 1490" d="M254.982,338.23l-.437.995a.815.815,0,0,0,1.135,1.079l.975-.483-.223-1.422Zm0,0" transform="translate(-254.463 -323.129)" fill="#546e7a" fill-rule="evenodd"/>
    <path id="Path_1491" data-name="Path 1491" d="M266.591,302.972l-.772-2.013-2.23-.846-1.077,2.458,1.674,1.591Zm0,0" transform="translate(-261.993 -287.47)" fill="#ffd54f" fill-rule="evenodd"/>
    <path id="Path_1492" data-name="Path 1492" d="M279.76,326.031l-1.838,1.93.68.448,2.405-1.19Zm0,0" transform="translate(-276.41 -311.717)" fill="#e6a235" fill-rule="evenodd"/>
    <path id="Path_1493" data-name="Path 1493" d="M256.386,354.371l-.723.438a1.336,1.336,0,0,1-.866.088.809.809,0,0,0,1.2.506l.975-.483Zm0,0" transform="translate(-254.776 -338.229)" fill="#35505c" fill-rule="evenodd"/>
    <path id="Path_1494" data-name="Path 1494" d="M289.2,123.592l-9.427,9.894-.558.586,3,2.859,3.195-3.353,7.709-8.091h0l-.689-2.179-2.315-.68Zm0,0" transform="translate(-277.615 -121.429)" fill="#8bc34a" fill-rule="evenodd"/>
    <path id="Path_1495" data-name="Path 1495" d="M306.43,159.987l1.248,1.188,3.195-3.353,7.709-8.091h0l-1.25-1.188-7.709,8.091Zm0,0" transform="translate(-303.079 -145.672)" fill="#689f38" fill-rule="evenodd"/>
    <path id="Path_1496" data-name="Path 1496" d="M451.786,104.586a2.082,2.082,0,0,0-2.933.07l-.533.56,3,2.859.531-.558A2.079,2.079,0,0,0,451.786,104.586Zm0,0" transform="translate(-435.821 -104.016)" fill="#f0417b" fill-rule="evenodd"/>
    <path id="Path_1497" data-name="Path 1497" d="M476.5,105.742a2.087,2.087,0,0,1-.3,2.063,1.73,1.73,0,0,1-.12.138l-.533.558,1.25,1.188.531-.558a2.073,2.073,0,0,0-.824-3.39Zm0,0" transform="translate(-461.285 -105.631)" fill="#a3316e" fill-rule="evenodd"/>
  </g>
</svg>
