<svg xmlns="http://www.w3.org/2000/svg" width="23.294" height="23.294" viewBox="0 0 23.294 23.294">
  <path id="facebook-svgrepo-com" d="M20.157,0H3.141A3.139,3.139,0,0,0,0,3.139V20.155a3.139,3.139,0,0,0,3.139,3.139h8.392l.014-8.324H9.385a.51.51,0,0,1-.51-.508l-.01-2.683a.51.51,0,0,1,.51-.512h2.159V8.674c0-3.009,1.838-4.647,4.522-4.647h2.2a.51.51,0,0,1,.51.51V6.8a.51.51,0,0,1-.51.51H16.906c-1.46,0-1.742.694-1.742,1.712v2.245h3.207a.51.51,0,0,1,.507.57L18.56,14.52a.51.51,0,0,1-.507.45H15.178l-.014,8.324h4.994A3.139,3.139,0,0,0,23.3,20.156V3.139A3.139,3.139,0,0,0,20.157,0Z" transform="translate(-0.002)" fill="#475993"/>
</svg>
