<svg id="folder" xmlns="http://www.w3.org/2000/svg" width="16.482" height="16.482" viewBox="0 0 16.482 16.482">
  <g id="Group_3495" data-name="Group 3495">
    <path id="Path_1989" data-name="Path 1989" d="M15.517,6.76H14.068a.483.483,0,0,1-.483-.483V4.829H2.9V6.277a.483.483,0,0,1-.483.483H.966A.966.966,0,0,1,0,5.795V1.449A1.449,1.449,0,0,1,1.449,0H4.378A2.419,2.419,0,0,1,6.744,1.932h8.289A1.449,1.449,0,0,1,16.482,3.38V5.795A.966.966,0,0,1,15.517,6.76Z" fill="#fb3"/>
  </g>
  <path id="Path_1990" data-name="Path 1990" d="M264.241,61.449A1.449,1.449,0,0,0,262.793,60H256v2.9h5.344v1.449a.483.483,0,0,0,.483.483h1.449a.966.966,0,0,0,.966-.966Z" transform="translate(-247.759 -58.068)" fill="#f93"/>
  <g id="Group_3496" data-name="Group 3496" transform="translate(1.932 3.863)">
    <path id="Path_1991" data-name="Path 1991" d="M72.136,122.9H60.483a.483.483,0,0,1-.483-.483v-1.932a.483.483,0,0,1,.483-.483H72.136a.483.483,0,0,1,.483.483v1.932A.483.483,0,0,1,72.136,122.9Z" transform="translate(-60 -120)" fill="#fff5f5"/>
  </g>
  <g id="Folder_36_" transform="translate(0 5.795)">
    <g id="Group_3497" data-name="Group 3497">
      <path id="Path_1992" data-name="Path 1992" d="M15.034,190.688H1.449A1.449,1.449,0,0,1,0,189.239V180H8.37l8.112,9.239A1.449,1.449,0,0,1,15.034,190.688Z" transform="translate(0 -180)" fill="#ffe666"/>
    </g>
  </g>
  <path id="Path_1993" data-name="Path 1993" d="M261.827,120H256v2.9h5.827a.483.483,0,0,0,.483-.483v-1.932A.483.483,0,0,0,261.827,120Z" transform="translate(-247.759 -116.137)" fill="#efe2dd"/>
  <path id="Path_1994" data-name="Path 1994" d="M264.241,180H256v10.688h6.793a1.449,1.449,0,0,0,1.449-1.449Z" transform="translate(-247.759 -174.205)" fill="#fb3"/>
  <path id="Path_1995" data-name="Path 1995" d="M157.277,392a.483.483,0,0,0-.483.483v.483h-4.829v-.483a.483.483,0,0,0-.966,0v.966a.483.483,0,0,0,.483.483h5.795a.483.483,0,0,0,.483-.483v-.966A.483.483,0,0,0,157.277,392Z" transform="translate(-146.139 -379.381)" fill="#575f64"/>
  <path id="Path_1996" data-name="Path 1996" d="M258.9,392a.483.483,0,0,0-.483.483v.483H256v.966h2.9a.483.483,0,0,0,.483-.483v-.966A.483.483,0,0,0,258.9,392Z" transform="translate(-247.759 -379.381)" fill="#474f54"/>
  <path id="Path_1997" data-name="Path 1997" d="M183.072,246.687a.484.484,0,0,0,.684,0l1.931-1.931a.483.483,0,1,0-.683-.683L183.9,245.18v-2.7a.483.483,0,1,0-.966,0v2.7l-1.107-1.107a.483.483,0,1,0-.683.683Z" transform="translate(-175.173 -234.209)" fill="#575f64"/>
  <path id="Path_1998" data-name="Path 1998" d="M256.342,246.687l1.931-1.931a.483.483,0,1,0-.683-.683l-1.107,1.107v-2.7A.483.483,0,0,0,256,242v4.828A.48.48,0,0,0,256.342,246.687Z" transform="translate(-247.759 -234.209)" fill="#474f54"/>
</svg>
