<svg xmlns="http://www.w3.org/2000/svg" width="37.558" height="42.04" viewBox="0 0 37.558 42.04">
  <g id="goal" transform="translate(0 0)">
    <g id="Group_3254" data-name="Group 3254" transform="translate(2.722 0)">
      <path id="Path_1277" data-name="Path 1277" d="M63.649,285.445H58.624a1.486,1.486,0,0,0-1.486,1.486v6.013a1.486,1.486,0,0,0-1.486-1.486H50.627a1.486,1.486,0,0,0-1.486,1.486v3.964a1.486,1.486,0,0,0-1.486-1.486H42.629a1.486,1.486,0,0,0-1.486,1.486v3.69a1.487,1.487,0,0,0-1.487-1.486H34.631a1.486,1.486,0,0,0-1.486,1.486v2.822H65.136V286.931a1.486,1.486,0,0,0-1.487-1.486Zm0,0" transform="translate(-33.144 -262.007)" fill="#a7c7d3"/>
      <path id="Path_1278" data-name="Path 1278" d="M344.785,24.065a.628.628,0,0,1-.628-.628V.628a.628.628,0,0,1,1.256,0v22.81A.628.628,0,0,1,344.785,24.065Zm0,0" transform="translate(-318.62 0)" fill="#a7c7d3"/>
      <path id="Path_1279" data-name="Path 1279" d="M41.143,456.2h-8v-2.822a1.486,1.486,0,0,1,1.486-1.486h5.025a1.486,1.486,0,0,1,1.486,1.486Zm0,0" transform="translate(-33.145 -414.786)" fill="#a7c7d3"/>
    </g>
    <path id="Path_1280" data-name="Path 1280" d="M138.549,414.947h-8v-6.512a1.486,1.486,0,0,1,1.486-1.486h5.025a1.486,1.486,0,0,1,1.486,1.486Zm0,0" transform="translate(-119.831 -373.535)" fill="#89b4c9"/>
    <path id="Path_1281" data-name="Path 1281" d="M235.955,370.633h-8V360.158a1.486,1.486,0,0,1,1.486-1.486h5.025a1.486,1.486,0,0,1,1.486,1.486Zm0,0" transform="translate(-209.239 -329.221)" fill="#6c96b3"/>
    <path id="Path_1282" data-name="Path 1282" d="M333.362,303.419h-8V286.931a1.486,1.486,0,0,1,1.486-1.486h5.025a1.487,1.487,0,0,1,1.487,1.486Zm0,0" transform="translate(-298.648 -262.007)" fill="#618aaa"/>
    <path id="Path_1283" data-name="Path 1283" d="M36.93,497.966H.628a.628.628,0,1,1,0-1.255h36.3a.628.628,0,1,1,0,1.255Zm0,0" transform="translate(0 -455.927)" fill="#2f5066"/>
    <path id="Path_1284" data-name="Path 1284" d="M351.8,24.068h8.044a.27.27,0,0,0,.179-.473l-2.09-1.84a.27.27,0,0,1,0-.406l2.09-1.84a.27.27,0,0,0-.179-.473H351.8Zm0,0" transform="translate(-322.918 -17.472)" fill="#fdb659"/>
    <path id="Path_1285" data-name="Path 1285" d="M228.712,109.012,220,113.745c-.777.422-.99,1.165-1.261,2.121L217,121.995l2.289.786,1.958-2.527,1.648-4.983,4.385-2.665a3.21,3.21,0,0,0,1.428-3.594Zm0,0" transform="translate(-199.185 -100.061)" fill="#83d9ff"/>
    <path id="Path_1286" data-name="Path 1286" d="M228.712,109.012l-1.006.546a3.208,3.208,0,0,1-1.483,2.127l-4,2.428a1.24,1.24,0,0,0-.533.67l-.571,1.725a6.468,6.468,0,0,1-3.688,3.953L217,121.995l4.247-1.74,1.648-4.983,4.385-2.665a3.21,3.21,0,0,0,1.428-3.594Zm0,0" transform="translate(-199.185 -100.061)" fill="#5fc9ed"/>
    <path id="Path_1287" data-name="Path 1287" d="M221.251,245.93l2.509,2.966c.416.551.778.938.7,1.544l-.587,4.745h-1.532l-.4-4.079a.681.681,0,0,0-.408-.559L217,247.671Zm0,0" transform="translate(-199.186 -225.737)" fill="#38627c"/>
    <path id="Path_1288" data-name="Path 1288" d="M180.737,247.67l-.245,4.5a1.98,1.98,0,0,1-.11.9l-2.89,6.081h1.625l4.345-5.773a2.352,2.352,0,0,0,.369-1.067l1.152-6.382Zm0,0" transform="translate(-162.918 -225.737)" fill="#4f7693"/>
    <path id="Path_1289" data-name="Path 1289" d="M230.668,112.741l.713,1.391a1.33,1.33,0,0,1-.578,1.79l-.551.282a1.33,1.33,0,0,1-1.79-.578l-.713-1.391a1.33,1.33,0,0,1,.578-1.79l.551-.282A1.33,1.33,0,0,1,230.668,112.741Zm0,0" transform="translate(-208.914 -102.819)" fill="#fecbaa"/>
  </g>
</svg>
