<svg xmlns="http://www.w3.org/2000/svg" width="36.407" height="36.585" viewBox="0 0 36.407 36.585">
  <g id="healthcare-covid19-coronavirus-hand-hearth" transform="translate(-3.24 -3.2)">
    <path id="Path_1439" data-name="Path 1439" d="M11.867,24.612,9,16.352a1.978,1.978,0,0,0-2.253-1.468A1.9,1.9,0,0,0,5.3,17.232l2.95,9.108Z" transform="translate(-0.734 -4.278)" fill="#ffac96"/>
    <path id="Path_1440" data-name="Path 1440" d="M48.29,24.612l2.867-8.26a1.978,1.978,0,0,1,2.253-1.468,1.9,1.9,0,0,1,1.443,2.348L51.9,26.34Z" transform="translate(-16.536 -4.278)" fill="#ffac96"/>
    <path id="Path_1441" data-name="Path 1441" d="M17.042,29.505l-5.6-3.28a1.9,1.9,0,0,0-2.405.43L7,20.352a1.978,1.978,0,0,0-2.253-1.468A1.9,1.9,0,0,0,3.3,21.232L6.057,31.5a2.5,2.5,0,0,0,.766,1.241l4.279,3.8a2.532,2.532,0,0,1,.848,1.893v2.025h7.6V33.874a5.064,5.064,0,0,0-2.5-4.369Z" transform="translate(0 -5.746)" fill="#ffbcab"/>
    <path id="Path_1442" data-name="Path 1442" d="M49.8,18.883a1.978,1.978,0,0,0-2.253,1.468l-2.044,6.3a1.9,1.9,0,0,0-2.405-.43l-5.6,3.28A5.064,5.064,0,0,0,35,33.874v6.593h7.6V38.441a2.532,2.532,0,0,1,.848-1.893l4.279-3.8a2.5,2.5,0,0,0,.766-1.241l2.753-10.273A1.9,1.9,0,0,0,49.8,18.883Z" transform="translate(-11.658 -5.746)" fill="#ffbcab"/>
    <path id="Path_1443" data-name="Path 1443" d="M34,53v5.064h8.861V53H34Z" transform="translate(-11.291 -18.279)" fill="#006df0"/>
    <path id="Path_1444" data-name="Path 1444" d="M24.861,53H16v5.064h8.861Z" transform="translate(-4.684 -18.279)" fill="#006df0"/>
    <path id="Path_1445" data-name="Path 1445" d="M34.607,12.922l-.449.449L26.1,21.429l-8.057-8.057-.449-.449A5.7,5.7,0,1,1,25.651,4.87l.448.45.449-.449a5.7,5.7,0,1,1,8.058,8.052Z" transform="translate(-4.656 0)" fill="#d80027"/>
    <path id="Path_1446" data-name="Path 1446" d="M40.14,4.871a5.633,5.633,0,0,0-4.664-1.632,5.693,5.693,0,0,1,3.4,9.684l-.449.449L31,20.8l.633.633,8.057-8.057.449-.449A5.7,5.7,0,0,0,40.14,4.871Z" transform="translate(-10.189)" fill="#bd0022"/>
    <path id="Path_1447" data-name="Path 1447" d="M31.064,17.6V15.064H33.6V12.532H31.064V10H28.532v2.532H26v2.532h2.532V17.6Z" transform="translate(-8.354 -2.496)" fill="#f1f2f2"/>
    <g id="Group_3284" data-name="Group 3284" transform="translate(8.601 21.486)">
      <path id="Path_1448" data-name="Path 1448" d="M48.182,33.109l-4.231,2.342a.548.548,0,1,0,.548.949l3.682-2.025a1.9,1.9,0,0,0,.835-2.284,1.88,1.88,0,0,1-.835,1.018Z" transform="translate(-23.444 -32.091)" fill="#ffac96"/>
      <path id="Path_1449" data-name="Path 1449" d="M12.657,33.109l4.231,2.342a.548.548,0,1,1-.548.949l-3.682-2.025a1.9,1.9,0,0,1-.835-2.284,1.88,1.88,0,0,0,.835,1.018Z" transform="translate(-11.71 -32.091)" fill="#ffac96"/>
    </g>
  </g>
</svg>
