<svg xmlns="http://www.w3.org/2000/svg" width="34.246" height="34.246" viewBox="0 0 34.246 34.246">
  <g id="Health" transform="translate(-24 -24)">
    <path id="Path_1773" data-name="Path 1773" d="M200.59,40.59,200,41.771l.59.59.59,1.181h1.181V45.9l2.362-1.771-.59-1.771L202.952,40Z" transform="translate(-163.01 -14.819)" fill="#fdc5ca"/>
    <path id="Path_1774" data-name="Path 1774" d="M169.181,104l1.771.59v1.181l1.771.59v2.362L168,106.362Z" transform="translate(-133.372 -74.096)" fill="#fdc5ca"/>
    <path id="Path_1775" data-name="Path 1775" d="M24,424H54.7v2.362H24Z" transform="translate(0 -370.478)" fill="#68737f"/>
    <path id="Path_1776" data-name="Path 1776" d="M56.567,248l-4.605,15.351H49.6L54.205,248Z" transform="translate(-23.711 -207.468)" fill="#3e454d"/>
    <path id="Path_1777" data-name="Path 1777" d="M197.241,458.362H175.985V456h20.37a.591.591,0,0,1,.472.236l.886,1.181a.59.59,0,0,1-.472.945Z" transform="translate(-140.768 -400.116)" fill="#4f5761"/>
    <path id="Path_1778" data-name="Path 1778" d="M61.846,458.362H40L40.554,456H60.961a.591.591,0,0,1,.472.236l.886,1.181a.59.59,0,0,1-.472.945Z" transform="translate(-14.819 -400.116)" fill="#3e454d"/>
    <path id="Path_1779" data-name="Path 1779" d="M80.857,458.362H72V456h7.971a.591.591,0,0,1,.472.236l.886,1.181a.59.59,0,0,1-.472.945Z" transform="translate(-44.457 -400.116)" fill="#4f5761"/>
    <path id="Path_1780" data-name="Path 1780" d="M45.314,151.676,40,146.362,42.362,144l5.314,5.314v2.362Z" transform="translate(-14.819 -111.143)" fill="#68737f"/>
    <path id="Path_1781" data-name="Path 1781" d="M144,216h3.543a1.181,1.181,0,0,1,0,2.362H144Z" transform="translate(-111.143 -177.829)" fill="#4f5761"/>
    <path id="Path_1782" data-name="Path 1782" d="M35.953,456l-.709,2.362H31.65L32.359,456Z" transform="translate(-7.085 -400.116)" fill="#8f9eb0"/>
    <path id="Path_1783" data-name="Path 1783" d="M440,419.543h2.952l.59-3.543H440Z" transform="translate(-385.297 -363.068)" fill="#8f9eb0"/>
    <path id="Path_1784" data-name="Path 1784" d="M157.314,377.181l-.652,1.3-.529,1.058L152,377.181a2.22,2.22,0,0,1,.117-.2,2.138,2.138,0,0,1,1.794-.976h1.632Z" transform="translate(-118.553 -326.021)" fill="#529ddf"/>
    <path id="Path_1785" data-name="Path 1785" d="M386.362,320v4.724a1.743,1.743,0,0,1-1.619-1.1L384,321.771V320Z" transform="translate(-333.43 -274.154)" fill="#529ddf"/>
    <path id="Path_1786" data-name="Path 1786" d="M207.676,200a7.128,7.128,0,0,1-2.087,5.039l-.511.511-2.126,2.126.59,1.771-1.771,4.724L200,212.99l.512-5.637a5.892,5.892,0,0,1,.4-1.658l.359-.9,1.682-4.2Z" transform="translate(-163.01 -163.01)" fill="#fdc5ca"/>
    <path id="Path_1787" data-name="Path 1787" d="M250.628,208.857v1.771l-5.949-1.487a2.363,2.363,0,0,1-1.6-1.361l-.372-.868-.584-1.362L240,200.59l4.724-.59a11.2,11.2,0,0,1,1.181,5v1.492h1.771Z" transform="translate(-200.058 -163.01)" fill="#fdc5ca"/>
    <path id="Path_1788" data-name="Path 1788" d="M224.8,205v.311l-3.2,1.6-.083-.193-.5-1.169-1.272,1.272L217.21,204.8l1.682-4.2,4.724-.59A11.2,11.2,0,0,1,224.8,205Z" transform="translate(-178.95 -163.01)" fill="#529ddf"/>
    <path id="Path_1789" data-name="Path 1789" d="M271.2,253.891a8.348,8.348,0,0,1-1.057,1.295l-.844.844-.5-1.169.511-.511a7.145,7.145,0,0,0,.906-1.11Z" transform="translate(-226.733 -212.321)" fill="#317ece"/>
    <path id="Path_1790" data-name="Path 1790" d="M210.655,131.07l.427,1.318-.95.6,1.614.807v-2.362Z" transform="translate(-172.395 -99.168)" fill="#fc979e"/>
    <path id="Path_1791" data-name="Path 1791" d="M226.2,91.829a2.321,2.321,0,0,1,1.821-1.821l.621-.124a1.317,1.317,0,0,1,1.312.5l.38.507a5.341,5.341,0,0,1,1.042,2.673l.442,4.423-4.724.59-.864-3.886A6.932,6.932,0,0,1,226.2,91.829Z" transform="translate(-187.151 -60.997)" fill="#e04446"/>
    <path id="Path_1792" data-name="Path 1792" d="M219.574,91.294a1.6,1.6,0,0,0-1.212,1.552v0a1.6,1.6,0,0,0,1.038,1.5l.536.2,1.378,1.181a5,5,0,0,0-2.237.528l-.125.062-1.181-.59-1.771.59.59,2.362,6.093-1.406a1.181,1.181,0,0,0,.747-1.758l-2.1-3.5a1.6,1.6,0,0,0-1.76-.729Z" transform="translate(-177.83 -62.283)" fill="#fdc5ca"/>
    <path id="Path_1793" data-name="Path 1793" d="M189.314,27.543l-1.771-1.771h-1.771A1.771,1.771,0,0,1,184,24h4.724Z" transform="translate(-148.191)" fill="#ba8b5d"/>
    <g id="Group_3409" data-name="Group 3409" transform="translate(33.447 45.846)">
      <path id="Path_1794" data-name="Path 1794" d="M156.662,382.181l-.529,1.058L152,380.877l.117-.2a2.124,2.124,0,0,1,.712-.682Z" transform="translate(-152 -375.563)" fill="#d4e4f0"/>
      <path id="Path_1795" data-name="Path 1795" d="M401.181,320v4.724a1.745,1.745,0,0,1-1.181-.46V320Z" transform="translate(-381.696 -320)" fill="#d4e4f0"/>
    </g>
  </g>
</svg>
