<svg xmlns="http://www.w3.org/2000/svg" width="37.333" height="33.764" viewBox="0 0 37.333 33.764">
  <g id="Language" transform="translate(-3 -5)">
    <path id="Path_1816" data-name="Path 1816" d="M3,23V43.227H16.517a6.477,6.477,0,0,1,5.149,2.528,6.477,6.477,0,0,1,5.149-2.528H40.333V23Z" transform="translate(0 -6.991)" fill="#f06e7a"/>
    <path id="Path_1817" data-name="Path 1817" d="M22.838,23a2.319,2.319,0,0,0-.359,1.223A2.319,2.319,0,0,0,22.12,23H5V41.348H16.995a12.855,12.855,0,0,1,5.484,1.223,12.855,12.855,0,0,1,5.485-1.223h10.7V23Z" transform="translate(-0.777 -6.254)" fill="#a7325c"/>
    <path id="Path_1818" data-name="Path 1818" d="M34.446,19A2.446,2.446,0,0,0,32,21.446V39.795a11.589,11.589,0,0,1,5.182-1.223H47.29V19Z" transform="translate(-9.404 -4.7)" fill="#92e5eb"/>
    <path id="Path_1819" data-name="Path 1819" d="M7,19V38.572H17.109a11.589,11.589,0,0,1,5.181,1.223V21.446A2.446,2.446,0,0,0,19.844,19Z" transform="translate(-1.554 -4.7)" fill="#92e5eb"/>
    <path id="Path_1820" data-name="Path 1820" d="M35.67,27.563V19H34.446A2.446,2.446,0,0,0,32,21.446V39.795a11.588,11.588,0,0,1,5.182-1.223H47.29V36.125H44.232A8.563,8.563,0,0,1,35.67,27.563Z" transform="translate(-9.404 -4.7)" fill="#68cbf2"/>
    <path id="Path_1821" data-name="Path 1821" d="M16.174,34.9a6.116,6.116,0,0,1-6.116-6.116V19H7V38.572H17.109a11.587,11.587,0,0,1,5.181,1.223v-3.67A11.588,11.588,0,0,0,17.109,34.9Z" transform="translate(-1.554 -4.7)" fill="#68cbf2"/>
    <path id="Path_1822" data-name="Path 1822" d="M14.337,29.072a.612.612,0,0,0,.821-.274l.748-1.5h2.3l.748,1.5a.612.612,0,1,0,1.095-.547L17.6,23.356a.637.637,0,0,0-1.095,0l-2.446,4.893a.612.612,0,0,0,.274.824ZM17.057,25l.539,1.079H16.518Z" transform="translate(-3.845 -6.706)" fill="#ffc569"/>
    <path id="Path_1823" data-name="Path 1823" d="M12.835,38.446h-.612V36.612a.612.612,0,1,0-1.223,0V41.5a.612.612,0,0,0,.612.612h1.223a1.835,1.835,0,1,0,0-3.67Zm0,2.446h-.612V39.67h.612a.612.612,0,1,1,0,1.223Z" transform="translate(-3.107 -11.521)" fill="#ffc569"/>
    <path id="Path_1824" data-name="Path 1824" d="M22.6,40.388a.367.367,0,0,1,.32.189.612.612,0,0,0,1.057-.615,1.594,1.594,0,0,0-2.975.8v.987a1.594,1.594,0,0,0,2.975.8.612.612,0,0,0-1.057-.615.367.367,0,0,1-.32.189.374.374,0,0,1-.374-.376v-.987A.374.374,0,0,1,22.6,40.388Z" transform="translate(-6.36 -12.736)" fill="#80e1b8"/>
    <path id="Path_1825" data-name="Path 1825" d="M38.942,38.772l-.884.59v-3.75A.612.612,0,0,0,37.446,35H35.612a.612.612,0,0,0,0,1.223h1.223V40.5a.612.612,0,0,0,.951.509l1.835-1.223a.612.612,0,1,0-.679-1.018Z" transform="translate(-11.238 -11.149)" fill="#ffc569"/>
    <path id="Path_1826" data-name="Path 1826" d="M37.4,32.267a.612.612,0,1,0,.865-.865l-1.223-1.223a.612.612,0,1,0-.865.865Z" transform="translate(-11.68 -9.341)" fill="#ffc569"/>
    <path id="Path_1827" data-name="Path 1827" d="M49.116,31.5H48.5V29.058a.612.612,0,0,0-.612-.612H46.445l.153-1.223h2.518a.612.612,0,1,0,0-1.223h-5.5a.612.612,0,1,0,0,1.223h1.753l-.153,1.223h-1.6a.612.612,0,1,0,0,1.223h1.448l-.22,1.759a.521.521,0,0,0,.006.076H43.612a.612.612,0,1,0,0,1.223h5.5a.612.612,0,1,0,0-1.223ZM46.292,29.67h.989V31.5H46.063Z" transform="translate(-13.676 -7.796)" fill="#ffc569"/>
    <path id="Path_1828" data-name="Path 1828" d="M49.5,39H44.612a.612.612,0,0,0-.612.612v3.67a.612.612,0,0,0,1.223,0V42.67h3.67v.612a.612.612,0,0,0,1.223,0v-3.67A.612.612,0,0,0,49.5,39Zm-4.281,2.446V40.223h3.67v1.223Z" transform="translate(-14.064 -12.66)" fill="#ffc569"/>
    <g id="Group_3427" data-name="Group 3427" transform="translate(7.893 20.788)">
      <path id="Path_1829" data-name="Path 1829" d="M35,35.612a.612.612,0,0,0,.612.612h1.223V40.5a.612.612,0,0,0,.951.509l1.651-1.1a8.573,8.573,0,0,1-.818-.924l-.561.374V38.171A8.493,8.493,0,0,1,36.932,35h-1.32A.612.612,0,0,0,35,35.612Z" transform="translate(-20.321 -31.942)" fill="#f06e7a"/>
      <path id="Path_1830" data-name="Path 1830" d="M36.179,30.179a.612.612,0,0,0,0,.865L37.237,32.1c0-.089-.013-.177-.013-.267V30.358l-.179-.179a.612.612,0,0,0-.865,0Z" transform="translate(-20.71 -30)" fill="#f06e7a"/>
      <path id="Path_1831" data-name="Path 1831" d="M44.612,46.021a.612.612,0,0,0,.612-.612v-.223A8.532,8.532,0,0,1,44,44.48v.93A.612.612,0,0,0,44.612,46.021Z" transform="translate(-23.817 -35.624)" fill="#f06e7a"/>
      <path id="Path_1832" data-name="Path 1832" d="M12.437,38.446h-.213v-.405a6.072,6.072,0,0,1-.58-2.035c-.011,0-.02-.006-.031-.006a.612.612,0,0,0-.612.612V41.5a.612.612,0,0,0,.612.612h1.223a1.835,1.835,0,0,0,1.8-1.459,6.142,6.142,0,0,1-2.194-2.21Zm.4,2.446h-.612V39.67h.612a.612.612,0,1,1,0,1.223Z" transform="translate(-11 -32.33)" fill="#f06e7a"/>
    </g>
    <path id="Path_1833" data-name="Path 1833" d="M21.827,44.991c-.092,0-.183-.01-.273-.014a1.568,1.568,0,0,0,2.44.083,11.5,11.5,0,0,0-1.232-.068Z" transform="translate(-6.567 -14.97)" fill="#3aba80"/>
    <circle id="Ellipse_310" data-name="Ellipse 310" cx="6.5" cy="6.5" r="6.5" transform="translate(15 5)" fill="#34b2e4"/>
    <path id="Path_1834" data-name="Path 1834" d="M30.174,16.588a6.719,6.719,0,0,1-5.816-10.1,6.723,6.723,0,1,0,9.186,9.186A6.685,6.685,0,0,1,30.174,16.588Z" transform="translate(-6.098 -0.579)" fill="#2070a1"/>
    <path id="Path_1835" data-name="Path 1835" d="M38.728,12.372A6.724,6.724,0,0,1,32,19.1V17.265l1.835-1.223-.612-1.835,2.446-3.058L33.223,9.926l2.33-3.266a6.708,6.708,0,0,1,3.174,5.712Z" transform="translate(-10.116 -0.645)" fill="#80e1b8"/>
    <path id="Path_1836" data-name="Path 1836" d="M24.059,12.285l1.835,2.446L24.67,17.178l-1.59.581A6.728,6.728,0,0,1,23.1,8.01l2.789,2.44Z" transform="translate(-6.322 -1.169)" fill="#80e1b8"/>
    <path id="Path_1837" data-name="Path 1837" d="M32.341,5.135,30.39,8.058l-.96-2.875A6.624,6.624,0,0,1,31,5a6.462,6.462,0,0,1,1.339.135Z" transform="translate(-9.342 0)" fill="#80e1b8"/>
    <path id="Path_1838" data-name="Path 1838" d="M33.117,22.287,32,23.031v1.835a6.718,6.718,0,0,0,5.82-3.36A6.7,6.7,0,0,1,33.117,22.287Z" transform="translate(-10.151 -6.16)" fill="#3aba80"/>
    <path id="Path_1839" data-name="Path 1839" d="M23.447,10.45a6.716,6.716,0,0,1,.276-1.9L23.1,8.01a6.728,6.728,0,0,0-.024,9.749l1.59-.581.911-1.822a6.7,6.7,0,0,1-2.134-4.906Z" transform="translate(-6.329 -1.169)" fill="#3aba80"/>
  </g>
</svg>
