<svg xmlns="http://www.w3.org/2000/svg" width="34.138" height="40.648" viewBox="0 0 34.138 40.648">
  <g id="reading-book" transform="translate(-41)">
    <path id="Path_1343" data-name="Path 1343" d="M139.693,181.616H120.347a1.191,1.191,0,0,1-1.191-1.191v-4.763a1.191,1.191,0,0,1,.284-.772,13.892,13.892,0,0,1,21.16,0,1.191,1.191,0,0,1,.284.772v4.763A1.191,1.191,0,0,1,139.693,181.616Z" transform="translate(-71.951 -156.504)" fill="#f2ae27"/>
    <path id="Path_1344" data-name="Path 1344" d="M265.673,181.616a1.191,1.191,0,0,0,1.191-1.191v-4.763a1.191,1.191,0,0,0-.284-.772A13.879,13.879,0,0,0,256,170v11.616Z" transform="translate(-197.931 -156.504)" fill="#f2ae27"/>
    <path id="Path_1345" data-name="Path 1345" d="M94.893,235.816a1.191,1.191,0,0,1-.418-.076l-12.7-4.763A1.191,1.191,0,0,1,81,229.862V213.19a1.191,1.191,0,0,1,1.609-1.115l12.284,4.607,12.284-4.607a1.191,1.191,0,0,1,1.609,1.115v16.672a1.191,1.191,0,0,1-.773,1.115l-12.7,4.763A1.191,1.191,0,0,1,94.893,235.816Z" transform="translate(-36.824 -195.168)" fill="#e64c3c"/>
    <g id="Group_3268" data-name="Group 3268" transform="translate(58.069 16.831)">
      <path id="Path_1346" data-name="Path 1346" d="M269.121,230.977a1.191,1.191,0,0,0,.773-1.115V213.19a1.191,1.191,0,0,0-1.609-1.115L256,216.681v19.135a1.191,1.191,0,0,0,.418-.076Z" transform="translate(-256 -211.999)" fill="#c03a2b"/>
    </g>
    <path id="Path_1347" data-name="Path 1347" d="M163.939,15.878a7.939,7.939,0,1,1,7.939-7.939A7.948,7.948,0,0,1,163.939,15.878Z" transform="translate(-105.87)" fill="#ffd6aa"/>
    <path id="Path_1348" data-name="Path 1348" d="M263.939,7.939A7.948,7.948,0,0,0,256,0V15.878A7.948,7.948,0,0,0,263.939,7.939Z" transform="translate(-197.931)" fill="#fac68f"/>
    <g id="Group_3270" data-name="Group 3270" transform="translate(41 23.42)">
      <g id="Group_3269" data-name="Group 3269">
        <path id="Path_1349" data-name="Path 1349" d="M398.58,301.748h-1.191A1.391,1.391,0,0,1,396,300.359v-3.97A1.391,1.391,0,0,1,397.389,295h1.191a3.374,3.374,0,1,1,0,6.748Z" transform="translate(-367.816 -295)" fill="#fac68f"/>
        <path id="Path_1350" data-name="Path 1350" d="M45.565,301.748H44.374a3.374,3.374,0,0,1,0-6.748h1.191a1.391,1.391,0,0,1,1.389,1.389v3.97A1.391,1.391,0,0,1,45.565,301.748Z" transform="translate(-41 -295)" fill="#ffd6aa"/>
      </g>
    </g>
  </g>
</svg>
