<svg xmlns="http://www.w3.org/2000/svg" width="20.403" height="23.215" viewBox="0 0 20.403 23.215">
  <g id="like_2_" data-name="like (2)" transform="translate(0 0)">
    <path id="Path_1978" data-name="Path 1978" d="M180.282,100.973a1.364,1.364,0,0,0-1.36-1.36,1.36,1.36,0,0,0,0-2.72h-5.577a12.053,12.053,0,0,0,.816-4.851,2.034,2.034,0,0,0-1.36-1.918,1.885,1.885,0,0,0-.68-.122h-.408a.7.7,0,0,0-.653.517L170.679,92c-.571,2.217-2.408,4.892-4.679,4.892v9.522l3.033,1.007a6.781,6.781,0,0,0,2.149.354h6.379a1.36,1.36,0,0,0,0-2.72h1.36a1.36,1.36,0,0,0,0-2.72A1.364,1.364,0,0,0,180.282,100.973Z" transform="translate(-159.879 -85.919)" fill="#fedbab"/>
    <path id="Path_1979" data-name="Path 1979" d="M306.441,107.774a1.36,1.36,0,0,0,0-2.72h1.36a1.36,1.36,0,1,0,0-2.72,1.36,1.36,0,1,0,0-2.72,1.36,1.36,0,1,0,0-2.72h-5.577a12.053,12.053,0,0,0,.816-4.851,2.034,2.034,0,0,0-1.36-1.918A1.885,1.885,0,0,0,301,90v17.774Z" transform="translate(-288.758 -85.919)" fill="#fec478"/>
    <g id="Group_3493" data-name="Group 3493" transform="translate(0 0)">
      <path id="Path_1980" data-name="Path 1980" d="M35.761,225.6H31.68a.68.68,0,0,1-.68-.68V212.68a.68.68,0,0,1,.68-.68h4.081a2.043,2.043,0,0,1,2.04,2.04v9.522A2.043,2.043,0,0,1,35.761,225.6Z" transform="translate(-31 -202.388)" fill="#1689fc"/>
      <ellipse id="Ellipse_314" data-name="Ellipse 314" cx="0.661" cy="0.661" rx="0.661" ry="0.661" transform="translate(2.928 18.881)" fill="#1689fc"/>
      <path id="Path_1981" data-name="Path 1981" d="M287.36.68V2.04a.68.68,0,1,1-1.36,0V.68a.68.68,0,1,1,1.36,0Z" transform="translate(-274.438)" fill="#1689fc"/>
      <path id="Path_1982" data-name="Path 1982" d="M191.7,41.659l-.962-.962a.68.68,0,1,1,.962-.962l.962.962a.68.68,0,1,1-.962.962Z" transform="translate(-183.303 -37.744)" fill="#1689fc"/>
    </g>
    <g id="Group_3494" data-name="Group 3494" transform="translate(12.242 0)">
      <path id="Path_1983" data-name="Path 1983" d="M360.452,41.659a.68.68,0,0,1,0-.962l.962-.962a.68.68,0,0,1,.962.962l-.962.962A.68.68,0,0,1,360.452,41.659Z" transform="translate(-357.566 -37.744)" fill="#136ef1"/>
      <path id="Path_1984" data-name="Path 1984" d="M301.68.68V2.04a.674.674,0,0,1-.68.68V0A.674.674,0,0,1,301.68.68Z" transform="translate(-301)" fill="#136ef1"/>
    </g>
  </g>
</svg>
