<svg xmlns="http://www.w3.org/2000/svg" width="53.869" height="69" viewBox="0 0 53.869 69">
  <g id="man-svgrepo-com_1_" data-name="man-svgrepo-com (1)" transform="translate(-12.73 -11.608)">
    <g id="Group_1329" data-name="Group 1329" transform="translate(31.727 64.6)">
      <path id="Path_601" data-name="Path 601" d="M256.543,414.976l-4.731-4.9,3.487,3.652-1.535,3.361h-.33l.582,1.4-.013.132,6.773-9.619v-.013Z" transform="translate(-243.721 -408.992)" fill="#ccc"/>
      <path id="Path_602" data-name="Path 602" d="M206.217,423.013h-.331l-1.534-3.36L207.839,416l-4.73,4.9-3.361-4.75v.02l5.9,8.378-.013-.132Z" transform="translate(-199.748 -414.911)" fill="#ccc"/>
    </g>
    <path id="Path_603" data-name="Path 603" d="M234.485,423.013h.33l1.535-3.36L232.863,416l-3.487,3.652,1.534,3.36h.331l-.583,1.4.013.132,2.192,3.113,2.192-3.113.013-.132Z" transform="translate(-193.044 -350.311)" fill="#f2ae27"/>
    <path id="Path_604" data-name="Path 604" d="M130.516,396.78,115.481,391.5l-1.923,2.731-6.773,9.619-2.192,3.112-2.192-3.112-5.9-8.378L93.7,391.5l-15.657,4.662-.543,2.785a39.745,39.745,0,0,0,53.869,1.481Z" transform="translate(-64.774 -329.615)" fill="#1d4269"/>
    <path id="Path_605" data-name="Path 605" d="M187.906,388.544l4.73-4.9,4.731,4.9,4.234-5.984,1.923-2.718-3.393-2.145h0l.228.708h0a.868.868,0,0,1,.051.275c0,1.371-3.479,2.482-7.77,2.482h0c-.366,0-.722-.011-1.074-.026h-.01c-3.777-.169-6.687-1.2-6.687-2.455a.837.837,0,0,1,.051-.275h0l.228-.708h0l-3.393,2.145,2.8,3.953Z" transform="translate(-152.818 -317.959)" fill="#f5f5f5"/>
    <g id="Group_1330" data-name="Group 1330" transform="translate(32.047 55.398)">
      <path id="Path_606" data-name="Path 606" d="M245.974,399.854h0c-.366,0-.722-.012-1.074-.026C245.252,399.844,245.609,399.854,245.974,399.854Z" transform="translate(-238.203 -392.05)" fill="#e6cbc3"/>
      <path id="Path_607" data-name="Path 607" d="M201.859,354.823a.839.839,0,0,0-.051.275c0,1.253,2.91,2.286,6.687,2.455,3.774-.17,6.679-1.2,6.679-2.455a.838.838,0,0,0-.051-.275h0l-1.353-4.208a12.462,12.462,0,0,1-4.194.75c-.31,0-.617-.016-.924-.039h-.006a13.278,13.278,0,0,1-5.169-1.549l-1.395,4.339-.228.708h0Z" transform="translate(-201.808 -349.776)" fill="#e6cbc3"/>
    </g>
    <path id="Path_608" data-name="Path 608" d="M251.45,354.823h0a.837.837,0,0,1,.051.275c0,1.253-2.906,2.286-6.679,2.455h.01c.352.015.709.026,1.074.026h0c4.291,0,7.77-1.111,7.77-2.482a.868.868,0,0,0-.051-.275h0l-.228-.708L252,349.776a14.463,14.463,0,0,1-1.906.839Z" transform="translate(-206.085 -294.378)" fill="#d9bfb8"/>
    <g id="Group_1331" data-name="Group 1331" transform="translate(21.17 20.224)">
      <path id="Path_609" data-name="Path 609" d="M355.812,179.811c1.865,0,2.487-1.384,2.487-3.065v-6.881c0-1.681-2.487-1.865-2.487-1.865v11.811Z" transform="translate(-321.001 -161.075)" fill="#e9c7b5"/>
      <path id="Path_610" data-name="Path 610" d="M246.792,359.787c-.31,0-.617-.016-.924-.039C246.174,359.772,246.482,359.787,246.792,359.787Z" transform="translate(-228.143 -323.024)" fill="#ffe1d9"/>
      <path id="Path_611" data-name="Path 611" d="M164.758,142.176V130.034c-.941-2.673-2.25-5.289-4.05-6.594a40.132,40.132,0,0,1-20.494,0c-3.7,2.679-5.339,10.885-5.915,13.763v-6.838s-2.486.183-2.486,1.865v6.881c0,1.681.622,3.065,2.486,3.065,0,6.337,4.249,13.362,10.063,16.438a13.3,13.3,0,0,0,5.169,1.549C157.812,159.506,164.758,150.278,164.758,142.176Zm-18.279,8.056c.139-.673,1.911-.835,3.981-.835s3.843.163,3.981.835-1.632,1.651-3.981,1.651S146.34,150.9,146.479,150.231Z" transform="translate(-131.812 -123.44)" fill="#faba99"/>
    </g>
    <g id="Group_1332" data-name="Group 1332" transform="translate(38.886 11.608)">
      <path id="Path_612" data-name="Path 612" d="M245.814,68.009c.306,0,.614-.009.931-.009-.318,0-.626,0-.932.009h0Z" transform="translate(-245.812 -68)" fill="#ffc1a1"/>
      <path id="Path_613" data-name="Path 613" d="M261.045,165.886l0-.01v12.141c0,8.1-6.946,17.331-15.227,17.987h.006c.306.024.614.039.924.039a12.462,12.462,0,0,0,4.194-.75,14.462,14.462,0,0,0,1.906-.839c5.813-3.076,10.062-10.1,10.062-16.438v-4.973A53.364,53.364,0,0,0,261.045,165.886Z" transform="translate(-245.812 -150.666)" fill="#ffc1a1"/>
    </g>
    <path id="Path_614" data-name="Path 614" d="M153.73,76.663a40.132,40.132,0,0,0,20.494,0c1.8,1.3,3.11,3.922,4.05,6.594l0,.01,0-.011V77.12c0-.307-.013-.61-.041-.91-.418-4.485-4.108-7.969-15.183-8.154h0c-11.821.2-15.233,4.148-15.233,9.064V90.426C148.391,87.548,150.035,79.342,153.73,76.663Z" transform="translate(-124.159 -56.439)" fill="#494949"/>
    <path id="Path_615" data-name="Path 615" d="M245.828,68.009c11.075.185,14.765,3.67,15.183,8.154.028.3.041.6.041.91v6.135l0,.011a53.373,53.373,0,0,1,1.861,7.158v-13.3c0-.158,0-.314-.011-.47-.223-4.821-3.968-8.6-16.152-8.6-.317,0-.625,0-.931.009Z" transform="translate(-206.936 -56.392)" fill="#484848"/>
    <path id="Path_616" data-name="Path 616" d="M230.132,292.947c2.349,0,4.121-.979,3.981-1.651s-1.91-.835-3.981-.835-3.842.163-3.982.835S227.783,292.947,230.132,292.947Z" transform="translate(-190.313 -244.28)" fill="#cc9b8e"/>
    <ellipse id="Ellipse_10" data-name="Ellipse 10" cx="2.575" cy="2.06" rx="2.575" ry="2.06" transform="translate(31.545 30.146)" fill="#f5f5f5"/>
    <ellipse id="Ellipse_11" data-name="Ellipse 11" cx="1.545" cy="1.03" rx="1.545" ry="1.03" transform="translate(31.545 30.146)" fill="#734822"/>
    <ellipse id="Ellipse_12" data-name="Ellipse 12" cx="2.575" cy="2.06" rx="2.575" ry="2.06" transform="translate(43.904 30.146)" fill="#f5f5f5"/>
    <ellipse id="Ellipse_13" data-name="Ellipse 13" cx="1.545" cy="1.03" rx="1.545" ry="1.03" transform="translate(44.933 30.146)" fill="#734822"/>
  </g>
</svg>
