<svg xmlns="http://www.w3.org/2000/svg" width="34.71" height="29.833" viewBox="0 0 34.71 29.833">
  <g id="female" transform="translate(0 -35.973)">
    <path id="Path_1351" data-name="Path 1351" d="M376.725,233.277a.489.489,0,0,1-.489-.489v-2a.489.489,0,1,1,.978,0v2A.489.489,0,0,1,376.725,233.277Z" transform="translate(-350.73 -181.153)" fill="#80b6fc"/>
    <path id="Path_1352" data-name="Path 1352" d="M40.443,58.6c1.684-4,2.769-13.125,2.769-15.981,0-4.892-3.182-6.651-7.107-6.651S29,37.732,29,42.624c0,2.856,1.085,11.983,2.769,15.981Z" transform="translate(-27.033 0)" fill="#407194"/>
    <path id="Path_1353" data-name="Path 1353" d="M121.755,35.973q-.446,0-.878.031c3.414.254,6.058,2.1,6.058,6.619,0,2.856-1.055,11.983-2.693,15.981h1.85c1.684-4,2.769-13.125,2.769-15.981C128.861,37.732,125.68,35.973,121.755,35.973Z" transform="translate(-112.682)" fill="#365f7e"/>
    <path id="Path_1354" data-name="Path 1354" d="M105.368,196.043h3.858v6.675h-3.858Z" transform="translate(-98.225 -149.218)" fill="#ffcdbe"/>
    <path id="Path_1355" data-name="Path 1355" d="M109.225,196.043h-3.858v4.565a3.96,3.96,0,0,0,1.7.38h.462a3.962,3.962,0,0,0,1.7-.38Z" transform="translate(-98.224 -149.218)" fill="#ebae9d"/>
    <path id="Path_1356" data-name="Path 1356" d="M178.576,150.673a1.352,1.352,0,0,1-1.352,1.352h-2.391v-2.7h2.391A1.352,1.352,0,0,1,178.576,150.673Z" transform="translate(-162.98 -105.664)" fill="#ffcdbe"/>
    <path id="Path_1357" data-name="Path 1357" d="M80.177,105.623v3.645a3.976,3.976,0,0,1-3.977,3.977h-.462a3.976,3.976,0,0,1-3.976-3.976v-.493a14.484,14.484,0,0,0,6.35-5.359A2.212,2.212,0,0,1,80.177,105.623Z" transform="translate(-66.897 -62.871)" fill="#ffcdbe"/>
    <path id="Path_1358" data-name="Path 1358" d="M112.414,205.843h-.164a1.9,1.9,0,0,1-1.326-.54.508.508,0,0,1,.707-.731.887.887,0,0,0,.619.254h.164a.887.887,0,0,0,.619-.253.508.508,0,0,1,.707.731A1.9,1.9,0,0,1,112.414,205.843Z" transform="translate(-103.259 -157.036)" fill="#e09380"/>
    <path id="Path_1359" data-name="Path 1359" d="M18.145,290.447v9.124a.339.339,0,0,1-.339.339H3.218v-4.933H0v-4.531a2.579,2.579,0,0,1,2.579-2.579h2.49l2.044,1.085,2.094-1.085,2.094.746,1.973-.746h2.293A2.579,2.579,0,0,1,18.145,290.447Z" transform="translate(0 -234.818)" fill="#9ec8fc"/>
    <path id="Path_1360" data-name="Path 1360" d="M220.836,287.869a.644.644,0,0,0-.651.642v11.4h2.879a.339.339,0,0,0,.339-.339v-9.124A2.579,2.579,0,0,0,220.836,287.869Z" transform="translate(-205.258 -234.819)" fill="#80b6fc"/>
    <path id="Path_1361" data-name="Path 1361" d="M268.17,68.191V79.6a.349.349,0,0,0,.349.349H283.3a.349.349,0,0,0,.349-.349V68.191Z" transform="translate(-249.99 -30.034)" fill="#f2ae27"/>
    <path id="Path_1362" data-name="Path 1362" d="M283.3,211.064H268.519a.349.349,0,0,1-.349-.349v1.747a.349.349,0,0,0,.349.349H283.3a.349.349,0,0,0,.349-.349v-1.747A.349.349,0,0,1,283.3,211.064Z" transform="translate(-249.99 -162.896)" fill="#bed9fd"/>
    <path id="Path_1363" data-name="Path 1363" d="M252.721,42.917V41.8a.349.349,0,0,1,.349-.349h16.879a.349.349,0,0,1,.349.349v1.114a.349.349,0,0,1-.349.349H253.07A.349.349,0,0,1,252.721,42.917Z" transform="translate(-235.588 -5.109)" fill="#e27c48"/>
    <path id="Path_1364" data-name="Path 1364" d="M10.245,292.672l-7.026,4.056v-8.221a.639.639,0,0,0-.639-.639A2.579,2.579,0,0,0,0,290.444v8.1a2.08,2.08,0,0,0,2.08,2.08H2.35a2.081,2.081,0,0,0,1.04-.279l8.463-4.886Z" transform="translate(-0.001 -234.818)" fill="#80b6fc"/>
    <path id="Path_1365" data-name="Path 1365" d="M15.826,389.217,7.363,394.1a2.08,2.08,0,0,1-1.04.279H6.053a2.07,2.07,0,0,1-1.132-.335A2.078,2.078,0,0,0,6.668,395h.269a2.081,2.081,0,0,0,1.04-.279l8.463-4.886-.42-.728Z" transform="translate(-4.587 -329.192)" fill="#62a4fb"/>
    <path id="Path_1366" data-name="Path 1366" d="M196.171,212.865a.524.524,0,0,1-.418-.839l7.656-10.164a.524.524,0,0,1,.837.63l-7.656,10.164a.523.523,0,0,1-.419.209Z" transform="translate(-182.384 -154.448)" fill="#407194"/>
    <path id="Path_1367" data-name="Path 1367" d="M151.1,337.134l2.347-1.355a1.609,1.609,0,0,1,1.609,2.787l-2.347,1.355Z" transform="translate(-140.858 -279.28)" fill="#ffcdbe"/>
    <path id="Path_1368" data-name="Path 1368" d="M171.992,339.211a1.6,1.6,0,0,0-.6-.6,1.609,1.609,0,0,1-.6,2.18l-2.153,1.243.42.728,2.347-1.355A1.609,1.609,0,0,0,171.992,339.211Z" transform="translate(-157.204 -282.123)" fill="#ebae9d"/>
    <path id="Path_1369" data-name="Path 1369" d="M360.849,262.568a1.643,1.643,0,1,1,1.643-1.643A1.645,1.645,0,0,1,360.849,262.568Zm0-2.239a.6.6,0,1,0,.6.6A.6.6,0,0,0,360.849,260.328Z" transform="translate(-334.854 -208.169)" fill="#4980ac"/>
    <g id="Group_3271" data-name="Group 3271" transform="translate(5.075 53.05)">
      <path id="Path_1370" data-name="Path 1370" d="M134.862,287.868c.807,3.108,2.725,2.5,4.137,0Z" transform="translate(-130.794 -287.868)" fill="#d8e2f3"/>
      <path id="Path_1371" data-name="Path 1371" d="M78.991,287.868c-.807,3.108-2.725,2.5-4.137,0Z" transform="translate(-74.854 -287.868)" fill="#d8e2f3"/>
    </g>
  </g>
</svg>
