<svg xmlns="http://www.w3.org/2000/svg" xmlns:xlink="http://www.w3.org/1999/xlink" width="80.95" height="80.95" viewBox="0 0 80.95 80.95">
  <defs>
    <clipPath id="clip-path">
      <path id="Path_566" data-name="Path 566" d="M0,40.476A40.475,40.475,0,1,0,40.475,0,40.475,40.475,0,0,0,0,40.476" transform="translate(0)"/>
    </clipPath>
  </defs>
  <g id="man-svgrepo-com" transform="translate(0)">
    <g id="Group_1328" data-name="Group 1328" transform="translate(0)">
      <g id="Group_1310" data-name="Group 1310" clip-path="url(#clip-path)">
        <path id="Path_565" data-name="Path 565" d="M77.419,136H30.49a23.345,23.345,0,0,1,1.252-7.578q.219-.644.478-1.274v0c.168-.42.354-.832.549-1.238a23.181,23.181,0,0,1,2.858-4.556c.283-.349.57-.689.866-1.017.146-.168.3-.332.456-.5s.31-.318.469-.478v0c.2-.2.4-.389.606-.58s.412-.371.624-.557c.177-.15.363-.305.544-.451v0c.013-.009.022-.017.035-.027s.022-.017.031-.027a.154.154,0,0,0,.031-.027c.221-.172.438-.35.664-.513.07-.053.142-.1.213-.155s.142-.1.212-.15.15-.111.23-.164a.083.083,0,0,1,.022-.012c.053-.036.106-.076.159-.106.093-.066.19-.133.283-.186v0c.084-.057.164-.111.248-.164.234-.15.468-.291.708-.433s.482-.279.726-.412a.015.015,0,0,1,.017,0v0c.137-.076.274-.155.407-.235l.155-.093c.089-.057.182-.111.274-.168s.182-.12.27-.177c.168-.111.336-.226.5-.35a.148.148,0,0,0,.035-.022c.044-.035.088-.067.137-.1.128-.088.248-.186.371-.287h0c.195-.155.381-.309.566-.478a.176.176,0,0,0,.044-.04c.182-.159.363-.327.54-.5.12-.119.243-.238.358-.363a14.292,14.292,0,0,0,1.34-1.628,14.786,14.786,0,0,0,1.88-3.578s0,0,0-.01v0a14.805,14.805,0,0,0,.867-5.012l3.415.018h.018l3.5.018a14.8,14.8,0,0,0,.845,4.954v0l0,0a14.684,14.684,0,0,0,1.858,3.587,14.847,14.847,0,0,0,2.853,3.03h0a.742.742,0,0,0,.1.08c.035.027.066.057.1.084a.4.4,0,0,0,.044.031c.08.062.159.124.243.185q.238.181.491.345a1.194,1.194,0,0,0,.1.071c.048.031.1.067.146.1a1.692,1.692,0,0,0,.19.119c.048.031.1.062.15.093.071.044.142.084.213.129.111.066.226.133.341.195a.5.5,0,0,1,.08.039c.195.106.389.221.579.332s.381.226.571.345c.093.057.181.111.269.173.067.04.133.084.2.132v0c.009,0,.014.009.018.009l.053.035c.049.031.093.066.142.1.27.177.535.368.8.562.044.031.093.062.137.1v0h.009c.221.168.442.336.659.513l.035.027a.2.2,0,0,1,.031.027c.079.062.155.124.23.19.181.151.363.305.54.465.137.119.27.238.4.363.111.1.217.2.319.3s.212.2.314.305v0c.265.265.527.535.779.814s.5.561.743.849A23.345,23.345,0,0,1,77.419,136" transform="translate(-13.957 -46.843)" fill="#ecc19c"/>
      </g>
      <g id="Group_1311" data-name="Group 1311" clip-path="url(#clip-path)">
        <path id="Path_567" data-name="Path 567" d="M77.419,145.8H30.49a23.345,23.345,0,0,1,1.252-7.578q.219-.644.478-1.274v0c.168-.42.354-.832.549-1.238a23.181,23.181,0,0,1,2.858-4.556c.283-.349.57-.689.866-1.017.146-.168.3-.332.456-.5s.31-.318.469-.478c.2-.2.4-.394.606-.584s.412-.371.624-.557c.177-.15.363-.305.544-.451.013-.009.022-.022.035-.031s.022-.017.031-.027.022-.013.031-.022c.221-.177.438-.345.664-.513l.213-.159c.07-.048.142-.1.212-.15l.252-.172c.146-.1.292-.2.442-.3.084-.057.164-.111.248-.163.234-.151.468-.3.708-.439s.482-.279.726-.412a.015.015,0,0,1,.017,0v0c.137-.076.274-.155.407-.235.053-.026.1-.057.155-.088.093-.053.186-.115.274-.172s.182-.12.27-.177c.168-.111.336-.226.5-.35a.148.148,0,0,0,.035-.022c.044-.035.088-.067.137-.1s.075-.062.115-.093.084-.067.128-.1.084-.066.124-.1l0,0,0,0a12.6,12.6,0,0,0,3.667,2.606,12.257,12.257,0,0,0,3.716,1.088,2.145,2.145,0,0,0,.248.035q.464.053.942.066h0c.146.01.288.014.438.014h.04c.146,0,.288,0,.429-.014h0c.318,0,.628-.027.938-.061h0a2.424,2.424,0,0,0,.257-.036,12.33,12.33,0,0,0,3.707-1.075,12.737,12.737,0,0,0,3.7-2.618l0,0a.742.742,0,0,0,.1.08c.031.027.066.053.1.079.014.013.031.022.044.035.08.062.159.124.243.185.159.12.323.239.491.35a1.184,1.184,0,0,0,.1.07l.146.093a1.694,1.694,0,0,0,.19.119c.048.035.1.066.15.1.071.044.142.084.213.124.111.066.226.133.341.195a.5.5,0,0,1,.08.039c.195.106.389.221.579.332s.381.23.571.35c.093.053.181.11.269.168.067.044.133.088.2.137.009,0,.014.009.018.009l.053.04.027.018c.04.027.08.049.115.075.27.177.535.368.8.562a1.525,1.525,0,0,1,.137.1h.009c.221.168.442.336.659.513l.035.027.031.022v0c.079.062.155.124.23.19.181.151.363.305.54.465.137.119.27.238.4.363.111.1.217.2.319.3s.212.208.314.31c.265.265.527.535.779.814s.5.561.743.849A23.342,23.342,0,0,1,77.419,145.8" transform="translate(-13.957 -56.644)" fill="#cad3e1"/>
      </g>
      <g id="Group_1312" data-name="Group 1312" clip-path="url(#clip-path)">
        <path id="Path_569" data-name="Path 569" d="M76.094,127.57V145.8H46.6V127.539c.009-.009.022-.018.031-.027s.022-.013.031-.022c.221-.176.438-.345.663-.512l.213-.159c.07-.049.142-.1.213-.15l.252-.172c.146-.1.292-.2.442-.3.084-.057.164-.111.248-.164.234-.15.469-.3.708-.438s.483-.279.726-.412a.016.016,0,0,1,.018,0v0c.137-.075.274-.155.407-.235.053-.027.1-.057.155-.088.093-.054.186-.115.274-.172s.181-.119.269-.177c.168-.111.336-.226.5-.35a.147.147,0,0,0,.035-.022c.044-.035.089-.066.137-.1s.075-.062.115-.093.084-.066.129-.1.084-.067.124-.1l0,0,0,0a12.587,12.587,0,0,0,3.667,2.605,12.232,12.232,0,0,0,3.715,1.088,2.411,2.411,0,0,0,.248.036q.464.052.942.066h0c.146.009.287.013.438.013h.04c.146,0,.287,0,.429-.013h0a9.377,9.377,0,0,0,.938-.062h0a2.3,2.3,0,0,0,.256-.036,12.325,12.325,0,0,0,3.707-1.075,12.722,12.722,0,0,0,3.7-2.618l0,0a.778.778,0,0,0,.1.079c.031.027.067.054.1.08.013.013.031.022.044.035.08.062.159.124.243.186.159.119.323.239.491.349.036.027.067.048.1.07l.146.093a1.9,1.9,0,0,0,.19.12c.049.035.1.066.15.1.071.044.142.084.213.124.111.066.226.132.341.195a.456.456,0,0,1,.08.04c.195.106.389.221.58.331s.38.23.57.35c.093.053.182.111.27.168.066.044.132.088.2.137.009,0,.013.01.017.01l.053.039.027.018c.04.027.08.048.115.075.27.177.536.367.8.561.049.031.093.067.138.1h.009c.221.168.442.336.659.513l.035.027Z" transform="translate(-21.333 -56.642)" fill="#f2ae27"/>
      </g>
      <g id="Group_1313" data-name="Group 1313" clip-path="url(#clip-path)">
        <path id="Path_571" data-name="Path 571" d="M76.57,31.828V45.28c0,.168,0,.336-.009.5v.079c0,.226-.022.451-.035.677,0,.076-.009.155-.014.23,0,.022,0,.049,0,.075-.009.075-.009.146-.014.221-.009.119-.017.238-.035.358a.227.227,0,0,1,0,.053.259.259,0,0,1-.009.057c0,.057-.009.115-.018.169s-.009.088-.018.137a.452.452,0,0,1-.009.071c-.031.265-.066.527-.111.792-.013.08-.027.159-.04.239s-.022.15-.036.226c0,0,0,0,0,.009-.035.182-.066.363-.106.54a.815.815,0,0,1-.022.111c-.009.035-.014.071-.022.1s-.009.044-.014.062a.16.16,0,0,1,0,.022c-.022.088-.04.177-.062.265a.12.12,0,0,1-.013.053.2.2,0,0,1-.009.044.084.084,0,0,1-.009.035c-.014.084-.04.172-.057.256,0,0,0,0,0,.009a2.444,2.444,0,0,1-.067.243s0,0,0,.01c-.088.357-.195.712-.305,1.062,0,0,0,0,0,.009-.053.168-.106.332-.164.5,0,.017-.013.035-.017.053L75.168,53c-.018.044-.035.088-.053.138-.053.142-.106.283-.164.424-.066.172-.137.341-.208.509-.062.15-.129.3-.195.451-.009.027-.022.049-.031.075-.075.159-.146.318-.221.473s-.155.328-.239.491c-.159.323-.331.645-.5.96l-.239.425a26.005,26.005,0,0,1-2.261,3.291q-.166.218-.345.425c-.164.2-.332.394-.5.583-.15.169-.3.336-.455.5-.106.115-.213.225-.319.336-.323.332-.65.65-.977.952-.089.088-.182.168-.274.252-.151.137-.3.269-.456.4-.119.106-.243.208-.367.31-.318.261-.637.513-.96.748-.133.1-.269.2-.407.292-.221.159-.447.31-.672.455-.124.084-.252.164-.381.239-.451.279-.907.535-1.358.756-.111.058-.221.111-.332.164s-.226.106-.345.159c-.146.067-.292.129-.438.187a1.324,1.324,0,0,1-.172.066c-.172.071-.35.137-.522.194-.217.08-.438.147-.654.208-.151.044-.305.084-.456.12a.063.063,0,0,1-.031.009c-.15.036-.3.071-.451.1a1.153,1.153,0,0,1-.119.022c-.124.022-.248.044-.371.057-.177.027-.354.048-.531.057a1.279,1.279,0,0,1-.182.012c-.142.009-.283.014-.42.014H58.54c-.137,0-.27,0-.407-.014a1.053,1.053,0,0,1-.159-.012c-.124,0-.252-.018-.384-.036a.552.552,0,0,1-.084-.009c-.164-.022-.328-.049-.5-.08-.142-.022-.283-.053-.429-.088a12.641,12.641,0,0,1-2.322-.783,16.9,16.9,0,0,1-2.031-1.07c-.341-.208-.681-.429-1.017-.664-.168-.12-.336-.239-.5-.363-.527-.384-1.048-.8-1.562-1.256-.142-.129-.283-.257-.425-.389s-.283-.261-.42-.389q-.517-.5-1.009-1.035c-.128-.137-.256-.279-.385-.425-.354-.4-.7-.81-1.026-1.239-.129-.155-.248-.314-.367-.473q-.67-.89-1.27-1.854c-.106-.172-.212-.349-.314-.522-.124-.208-.243-.42-.363-.633a24.293,24.293,0,0,1-1.2-2.477c-.053-.124-.106-.248-.15-.371-.07-.159-.133-.323-.19-.483-.088-.235-.172-.468-.252-.7s-.155-.473-.23-.712-.137-.46-.2-.695-.133-.49-.19-.743a.017.017,0,0,1,0-.013c0-.027-.014-.054-.018-.08Q41,49.714,40.9,49.17c-.088-.478-.159-.965-.212-1.456-.022-.155-.036-.309-.049-.464s-.031-.323-.04-.487c-.022-.3-.035-.6-.044-.9,0-.19-.009-.376-.009-.566V31.828a17.98,17.98,0,0,1,9.515-15.885,17.9,17.9,0,0,1,4.4-1.659.057.057,0,0,1,.027,0c.261-.058.522-.115.787-.164l.066-.013c.243-.04.487-.079.735-.115.132-.017.269-.035.4-.049s.266-.031.394-.044h.04c.128-.012.256-.022.384-.031l.4-.027c.274-.009.553-.018.832-.018h.031A18.117,18.117,0,0,1,61.07,14c.5.066,1,.155,1.482.265a17.7,17.7,0,0,1,3.371,1.128A18.041,18.041,0,0,1,76.314,28.783a18.179,18.179,0,0,1,.256,3.045" transform="translate(-18.562 -6.326)" fill="#ecc19c"/>
      </g>
      <g id="Group_1314" data-name="Group 1314" clip-path="url(#clip-path)">
        <path id="Path_573" data-name="Path 573" d="M58.24,59.742v0a5.859,5.859,0,1,0,.4,2.145v-.009a5.785,5.785,0,0,0-.4-2.132m-5.454,7.037a4.9,4.9,0,1,1,4.861-5.551v.009c.014.106.022.213.031.319s.013.221.013.327a4.92,4.92,0,0,1-4.906,4.9" transform="translate(-21.482 -25.644)" fill="#1a1a1a"/>
      </g>
      <g id="Group_1315" data-name="Group 1315" clip-path="url(#clip-path)">
        <path id="Path_575" data-name="Path 575" d="M84.776,56.021a5.831,5.831,0,0,0-5.445,3.725v0s0,0,0,0a5.826,5.826,0,0,0-.4,2.119v.009a5.855,5.855,0,1,0,5.852-5.861m0,10.758a4.917,4.917,0,0,1-4.9-4.9v-.009l.04-.611a.189.189,0,0,1,.009-.049v0a4.9,4.9,0,1,1,4.852,5.569" transform="translate(-36.129 -25.644)" fill="#1a1a1a"/>
      </g>
      <g id="Group_1316" data-name="Group 1316" clip-path="url(#clip-path)">
        <path id="Path_577" data-name="Path 577" d="M74.324,62.893a.188.188,0,0,0-.01.053l-.038.609v.01h-.953v-.01a2.818,2.818,0,0,0-5.636.009h-.953a4.8,4.8,0,0,0-.043-.647,3.752,3.752,0,0,1,.6-1.5,3.861,3.861,0,0,1,6.441.005s0,.009.009.014a3.866,3.866,0,0,1,.586,1.454" transform="translate(-30.529 -27.325)" fill="#1a1a1a"/>
      </g>
      <g id="Group_1317" data-name="Group 1317" clip-path="url(#clip-path)">
        <path id="Path_579" data-name="Path 579" d="M65.7,122.137l-.013.022,0,.009-.305.509v0L64.233,124.6l-.186.31-.376.628-.129.221a2.555,2.555,0,0,1-4.268.187L56.151,121.6l0,0c.084-.062.172-.124.256-.19.044-.031.084-.067.129-.1s.084-.07.124-.1v0l0,0h0c.195-.155.38-.31.566-.478a.184.184,0,0,0,.044-.04c.182-.159.363-.327.54-.5.119-.12.243-.239.358-.363a14.276,14.276,0,0,0,1.34-1.628l6.166,3.924,0,0Z" transform="translate(-25.702 -54.108)" fill="#e7ecf2"/>
      </g>
      <g id="Group_1318" data-name="Group 1318" clip-path="url(#clip-path)">
        <path id="Path_581" data-name="Path 581" d="M83.313,121.579l-3.127,4.346a2.556,2.556,0,0,1-4.269-.183l-2.141-3.587-.018-.031,6.211-3.955a14.859,14.859,0,0,0,2.853,3.03c.164.133.328.261.491.381" transform="translate(-33.764 -54.093)" fill="#e7ecf2"/>
      </g>
      <g id="Group_1319" data-name="Group 1319" clip-path="url(#clip-path)">
        <path id="Path_583" data-name="Path 583" d="M68.91,127.6l-3.875,1.3a.885.885,0,0,1-1.167-.839v-3.215a.885.885,0,0,1,1.167-.838l3.875,1.3Z" transform="translate(-29.236 -56.747)" fill="#1d4269"/>
      </g>
      <g id="Group_1320" data-name="Group 1320" clip-path="url(#clip-path)">
        <path id="Path_585" data-name="Path 585" d="M74.35,127.6l3.875,1.3a.885.885,0,0,0,1.167-.839v-3.215a.885.885,0,0,0-1.167-.838l-3.875,1.3Z" transform="translate(-34.035 -56.747)" fill="#1d4269"/>
      </g>
      <g id="Group_1321" data-name="Group 1321" clip-path="url(#clip-path)">
        <path id="Path_587" data-name="Path 587" d="M72.9,128.826h-.754a1.085,1.085,0,0,1-1.084-1.084v-1.2a1.085,1.085,0,0,1,1.084-1.084H72.9a1.085,1.085,0,0,1,1.084,1.084v1.2a1.084,1.084,0,0,1-1.084,1.084" transform="translate(-32.53 -57.432)" fill="#2b385d"/>
      </g>
      <g id="Group_1322" data-name="Group 1322" clip-path="url(#clip-path)">
        <path id="Path_589" data-name="Path 589" d="M66.372,91.085a6.921,6.921,0,0,1-4.7.828,6.943,6.943,0,0,1,7.749-4.485,6.893,6.893,0,0,1-3.052,3.657" transform="translate(-28.233 -39.971)" fill="#543e36"/>
      </g>
      <g id="Group_1323" data-name="Group 1323" clip-path="url(#clip-path)">
        <path id="Path_591" data-name="Path 591" d="M74.543,91.085a6.921,6.921,0,0,0,4.7.828,6.943,6.943,0,0,0-7.749-4.485,6.9,6.9,0,0,0,3.052,3.657" transform="translate(-32.726 -39.971)" fill="#543e36"/>
      </g>
      <g id="Group_1324" data-name="Group 1324" clip-path="url(#clip-path)">
        <path id="Path_593" data-name="Path 593" d="M72.7,20.721a24.735,24.735,0,0,1-3.38,5.529c-.079.1-.159.195-.243.292a24.776,24.776,0,0,1-10.537,7.44L58.511,34a24.074,24.074,0,0,1-3.38.973q-1.161.246-2.362.385a25.515,25.515,0,0,1-2.809.155,24.553,24.553,0,0,1-3.2-.209,23.334,23.334,0,0,1-3.012-.574c-.5-.124-.978-.266-1.455-.425-.067-.018-.133-.04-.2-.062-.531-.176-1.044-.367-1.557-.574,0,0-.013,0-.018-.009V31.829A17.941,17.941,0,0,1,46.692,18.27l.011-.01q.354-.308.724-.6l.144-.111c.222-.17.446-.337.675-.5.089-.062.182-.122.272-.182.2-.134.4-.269.605-.395q.455-.28.926-.533a17.551,17.551,0,0,1,4.4-1.66.058.058,0,0,1,.027,0c.261-.062.522-.115.788-.164l.066-.013c.243-.044.486-.079.734-.115.133-.018.27-.035.4-.049s.265-.031.394-.044h.04c.129-.013.256-.022.385-.031l.4-.027c.274-.009.553-.017.832-.017h.031A18.032,18.032,0,0,1,61.054,14c.5.066.982.159,1.465.265A18.053,18.053,0,0,1,72.7,20.721" transform="translate(-18.547 -6.327)" fill="#543e36"/>
      </g>
      <g id="Group_1325" data-name="Group 1325" clip-path="url(#clip-path)">
        <path id="Path_595" data-name="Path 595" d="M97.955,33.151v3.543a27.606,27.606,0,0,1-7.449-8.811s0-.013-.009-.018a27.429,27.429,0,0,1-3.189-11.152A18.025,18.025,0,0,1,97.955,33.151" transform="translate(-39.966 -7.651)" fill="#543e36"/>
      </g>
      <g id="Group_1326" data-name="Group 1326" clip-path="url(#clip-path)">
        <path id="Path_597" data-name="Path 597" d="M105.029,47.18l-2.268-.62.035.251a27.356,27.356,0,0,0,1.407,5.663,16.907,16.907,0,0,1,.826,5.806V47.18" transform="translate(-47.04 -21.313)" fill="#543e36"/>
      </g>
      <g id="Group_1327" data-name="Group 1327" clip-path="url(#clip-path)">
        <path id="Path_599" data-name="Path 599" d="M42.782,46.559l-.031.252q-.186,1.288-.46,2.476a27.251,27.251,0,0,1-.951,3.185,15.659,15.659,0,0,0-.805,4.786c-.014.323-.018.664-.018,1.022v-11.1l.018,0Z" transform="translate(-18.547 -21.313)" fill="#543e36"/>
      </g>
    </g>
  </g>
</svg>
