<svg xmlns="http://www.w3.org/2000/svg" width="35.162" height="31.017" viewBox="0 0 35.162 31.017">
  <g id="parenting" transform="translate(-10 -39)">
    <g id="Group_3412" data-name="Group 3412" transform="translate(27.581 39)">
      <path id="Path_1796" data-name="Path 1796" d="M333.038,46.075a3.538,3.538,0,1,0-3.538-3.538A3.548,3.548,0,0,0,333.038,46.075Z" transform="translate(-324.247 -39)" fill="#fdd1b1"/>
      <g id="Group_3410" data-name="Group 3410" transform="translate(5.218 19.296)">
        <path id="Path_1797" data-name="Path 1797" d="M330.479,320.721a1.469,1.469,0,0,1-1.465-1.465V309h2.93v10.256A1.469,1.469,0,0,1,330.479,320.721Z" transform="translate(-329.014 -309)" fill="#fdd1b1"/>
        <path id="Path_1798" data-name="Path 1798" d="M388.177,320.721a1.469,1.469,0,0,1-1.465-1.465V309h2.93v10.256A1.469,1.469,0,0,1,388.177,320.721Z" transform="translate(-382.588 -309)" fill="#fdd1b1"/>
      </g>
      <path id="Path_1799" data-name="Path 1799" d="M273.267,97.81,268.7,93.245a1.071,1.071,0,0,0-.655-.309.357.357,0,0,0-.072-.007H261.45l-3.615-3.615a1.076,1.076,0,0,0-1.522,1.522L260.88,95.4c.018.018.037.034.056.051l-2.042,13.985h11.792l-1.908-13.072,2.967,2.967a1.076,1.076,0,1,0,1.522-1.522Z" transform="translate(-256 -85.427)" fill="#f2ae27"/>
      <g id="Group_3411" data-name="Group 3411" transform="translate(0 3.573)">
        <path id="Path_1800" data-name="Path 1800" d="M256.314,90.836a1.076,1.076,0,1,1,1.522-1.522l.25.25-1.522,1.522Z" transform="translate(-256 -89)" fill="#fdd1b1"/>
        <path id="Path_1801" data-name="Path 1801" d="M473.069,210.555a1.076,1.076,0,0,0,1.522-1.522l-.25-.25-1.522,1.522Z" transform="translate(-457.323 -200.222)" fill="#fdd1b1"/>
      </g>
    </g>
    <g id="Group_3415" data-name="Group 3415" transform="translate(10 39)">
      <path id="Path_1802" data-name="Path 1802" d="M87.038,46.075A3.538,3.538,0,1,0,83.5,42.538,3.548,3.548,0,0,0,87.038,46.075Z" transform="translate(-78.247 -39)" fill="#fdd1b1"/>
      <path id="Path_1803" data-name="Path 1803" d="M27.267,89.314a1.079,1.079,0,0,0-1.522,0l-3.617,3.617H15.61l-.027,0a1.07,1.07,0,0,0-.7.311L10.314,97.81a1.076,1.076,0,0,0,1.522,1.522l3.417-3.417v8.093h7.075V95.775l4.939-4.939A1.079,1.079,0,0,0,27.267,89.314Z" transform="translate(-10 -85.427)" fill="#6f81b5"/>
      <path id="Path_1804" data-name="Path 1804" d="M10.314,209.033a1.076,1.076,0,0,0,1.522,1.522l.25-.25-1.522-1.522Z" transform="translate(-10 -196.649)" fill="#fdd1b1"/>
      <path id="Path_1805" data-name="Path 1805" d="M227.069,89.314a1.076,1.076,0,0,1,1.522,1.522l-.25.25-1.522-1.522Z" transform="translate(-211.323 -85.427)" fill="#fdd1b1"/>
      <g id="Group_3414" data-name="Group 3414" transform="translate(5.253 18.582)">
        <g id="Group_3413" data-name="Group 3413" transform="translate(0 0.715)">
          <path id="Path_1806" data-name="Path 1806" d="M84.965,320.721a1.469,1.469,0,0,1-1.465-1.465V309h2.93v10.256A1.469,1.469,0,0,1,84.965,320.721Z" transform="translate(-83.5 -309)" fill="#fdd1b1"/>
          <path id="Path_1807" data-name="Path 1807" d="M142.965,320.721a1.469,1.469,0,0,1-1.465-1.465V309h2.93v10.256A1.469,1.469,0,0,1,142.965,320.721Z" transform="translate(-137.355 -309)" fill="#fdd1b1"/>
        </g>
        <path id="Path_1808" data-name="Path 1808" d="M83.5,299v10.72h2.93v-9.291h1.215v9.291h2.93V299Z" transform="translate(-83.5 -299)" fill="#476086"/>
      </g>
    </g>
    <g id="Group_3418" data-name="Group 3418" transform="translate(21.149 49.077)">
      <g id="Group_3416" data-name="Group 3416" transform="translate(0 0)">
        <path id="Path_1809" data-name="Path 1809" d="M221.18,185.36a2.68,2.68,0,1,0-2.68-2.68A2.688,2.688,0,0,0,221.18,185.36Z" transform="translate(-214.748 -180)" fill="#fdd1b1"/>
        <path id="Path_1810" data-name="Path 1810" d="M166.237,223.738a.818.818,0,0,0,0,1.154l3.462,3.462a.816.816,0,0,0,1.154-1.154l-3.462-3.462A.818.818,0,0,0,166.237,223.738Z" transform="translate(-165.999 -220.391)" fill="#fdd1b1"/>
        <path id="Path_1811" data-name="Path 1811" d="M279.6,223.738a.818.818,0,0,1,0,1.154l-3.462,3.462a.816.816,0,1,1-1.154-1.154l3.462-3.462A.818.818,0,0,1,279.6,223.738Z" transform="translate(-266.978 -220.391)" fill="#fdd1b1"/>
      </g>
      <path id="Path_1812" data-name="Path 1812" d="M223.592,259.75h-4.824c-.148,0-.268.09-.268.2v6.5h5.36v-6.5C223.86,259.84,223.74,259.75,223.592,259.75Z" transform="translate(-214.748 -254.05)" fill="#7ed4f9"/>
      <g id="Group_3417" data-name="Group 3417" transform="translate(3.752 14.669)">
        <path id="Path_1813" data-name="Path 1813" d="M219.617,391.521A1.12,1.12,0,0,1,218.5,390.4V385.25h2.233V390.4A1.12,1.12,0,0,1,219.617,391.521Z" transform="translate(-218.5 -385.25)" fill="#fdd1b1"/>
        <path id="Path_1814" data-name="Path 1814" d="M263.367,391.521a1.12,1.12,0,0,1-1.117-1.117V385.25h2.233V390.4A1.12,1.12,0,0,1,263.367,391.521Z" transform="translate(-259.123 -385.25)" fill="#fdd1b1"/>
      </g>
      <path id="Path_1815" data-name="Path 1815" d="M221.627,353.5H218.5v2.269h2.233v-1.34h.893v1.34h2.233V353.5Z" transform="translate(-214.748 -341.1)" fill="#6f81b5"/>
    </g>
  </g>
</svg>
