<svg xmlns="http://www.w3.org/2000/svg" width="14.643" height="20.5" viewBox="0 0 14.643 20.5">
  <g id="user" transform="translate(-6.75 -2.25)">
    <path id="Path_473" data-name="Path 473" d="M15.25,3.714a3.661,3.661,0,1,1-3.661,3.661A3.661,3.661,0,0,1,15.25,3.714m0-1.464a5.125,5.125,0,1,0,5.125,5.125A5.125,5.125,0,0,0,15.25,2.25Z" transform="translate(-1.179)" fill="#1d4269"/>
    <path id="Path_474" data-name="Path 474" d="M21.393,29.036H19.929V25.375a3.661,3.661,0,0,0-3.661-3.661H11.875a3.661,3.661,0,0,0-3.661,3.661v3.661H6.75V25.375a5.125,5.125,0,0,1,5.125-5.125h4.393a5.125,5.125,0,0,1,5.125,5.125Z" transform="translate(0 -6.286)" fill="#1d4269"/>
  </g>
</svg>
