<svg id="growth" xmlns="http://www.w3.org/2000/svg" width="31.211" height="31.211" viewBox="0 0 31.211 31.211">
  <path id="Path_1429" data-name="Path 1429" d="M39.545,352.368v7.111H44.62v-7.111a.628.628,0,0,0-.628-.628H40.173A.628.628,0,0,0,39.545,352.368Z" transform="translate(-37.134 -330.298)" fill="#f6e266"/>
  <path id="Path_1430" data-name="Path 1430" d="M156.1,302.416v10.156h5.075V302.416a.628.628,0,0,0-.628-.628h-3.819A.628.628,0,0,0,156.1,302.416Z" transform="translate(-146.582 -283.391)" fill="#e49542"/>
  <path id="Path_1431" data-name="Path 1431" d="M272.65,239.977v13.963h5.075V239.977a.628.628,0,0,0-.628-.628h-3.819A.628.628,0,0,0,272.65,239.977Z" transform="translate(-256.03 -224.759)" fill="#9dc6fb"/>
  <path id="Path_1432" data-name="Path 1432" d="M389.2,198.351v16.5h5.075v-16.5a.628.628,0,0,0-.628-.628h-3.819A.628.628,0,0,0,389.2,198.351Z" transform="translate(-365.478 -185.67)" fill="#c8ea73"/>
  <path id="Path_1433" data-name="Path 1433" d="M272.65,330.17v6.739h5.075v-9.2A44.215,44.215,0,0,1,272.65,330.17Z" transform="translate(-256.03 -307.729)" fill="#80b4fb"/>
  <path id="Path_1434" data-name="Path 1434" d="M160.025,381.362c-1.323.44-2.635.814-3.927,1.126v4.435h5.075v-5.958Q160.6,381.169,160.025,381.362Z" transform="translate(-146.582 -357.742)" fill="#e28424"/>
  <path id="Path_1435" data-name="Path 1435" d="M39.545,413.872V417.2H44.62v-3.992A40.269,40.269,0,0,1,39.545,413.872Z" transform="translate(-37.134 -388.019)" fill="#f1d333"/>
  <path id="Path_1436" data-name="Path 1436" d="M389.2,242.344v10.447h5.075V238.126A26.834,26.834,0,0,1,389.2,242.344Z" transform="translate(-365.478 -223.61)" fill="#b7e445"/>
  <path id="Path_1437" data-name="Path 1437" d="M0,480.1v-.774a.628.628,0,0,1,.628-.628H30.583a.628.628,0,0,1,.628.628v.774a.628.628,0,0,1-.628.628H.628A.628.628,0,0,1,0,480.1Z" transform="translate(0 -449.518)" fill="#4073c8"/>
  <path id="Path_1438" data-name="Path 1438" d="M63.942,0H59.5a.628.628,0,0,0-.628.628V1.4a.628.628,0,0,0,.628.628h2L56.163,7.359h-4.21a1.015,1.015,0,0,0-.748.329L45.226,14.21H39.132a.628.628,0,0,0-.628.628v.774a.628.628,0,0,0,.628.628h6.54a1.015,1.015,0,0,0,.748-.329L52.4,9.389h4.184a1.015,1.015,0,0,0,.718-.3l5.626-5.626v2a.628.628,0,0,0,.628.628h.774a.628.628,0,0,0,.628-.628V1.015A1.015,1.015,0,0,0,63.942,0Z" transform="translate(-36.157)" fill="#dd5790"/>
</svg>
