<svg xmlns="http://www.w3.org/2000/svg" width="24.421" height="33.734" viewBox="0 0 24.421 33.734">
  <g id="_Philosophy" data-name=" Philosophy" transform="translate(-78.6 -11)">
    <g id="Layer_3" transform="translate(78.6 11)">
      <path id="Path_1911" data-name="Path 1911" d="M154.37,11a1.354,1.354,0,0,1,1.356,1.356l-.021,28.551H135.2V11Z" transform="translate(-131.304 -11)" fill="#8bb3eb"/>
      <path id="Path_1912" data-name="Path 1912" d="M82.5,11V40.907H80.507A1.906,1.906,0,0,0,78.6,42.814V12.356A1.354,1.354,0,0,1,79.956,11Z" transform="translate(-78.6 -11)" fill="#774943"/>
      <path id="Path_1913" data-name="Path 1913" d="M240.706,108.3a6.519,6.519,0,0,1-.124,13.037h-.124a3.334,3.334,0,0,0,3.311-3.263,3.223,3.223,0,0,0-3.194-3.256,2.792,2.792,0,0,1-2.781-2.967A3.4,3.4,0,0,1,240.706,108.3Z" transform="translate(-226.836 -101.603)" fill="#ffe07d"/>
      <path id="Path_1914" data-name="Path 1914" d="M190.1,114.818a3.223,3.223,0,0,1,3.194,3.256,3.339,3.339,0,0,1-3.311,3.263h-.007A6.519,6.519,0,0,1,190.1,108.3h.131a3.4,3.4,0,0,0-2.912,3.559A2.79,2.79,0,0,0,190.1,114.818Z" transform="translate(-176.356 -101.603)" fill="#e6646e"/>
      <path id="Path_1915" data-name="Path 1915" d="M271.343,134.5a1.143,1.143,0,1,1-1.143,1.143A1.14,1.14,0,0,1,271.343,134.5Z" transform="translate(-257.012 -125.999)" fill="#e6646e"/>
      <path id="Path_1916" data-name="Path 1916" d="M257.843,231.3a1.143,1.143,0,1,1-1.143,1.143A1.14,1.14,0,0,1,257.843,231.3Z" transform="translate(-244.441 -216.136)" fill="#ffe07d"/>
      <path id="Path_1917" data-name="Path 1917" d="M185.665,114.818a6.507,6.507,0,0,1,2.092-4.784,3.243,3.243,0,0,1,2.485-1.735h-.131a6.529,6.529,0,0,0-.124,13.057h.007a3.23,3.23,0,0,0,.888-.138A6.529,6.529,0,0,1,185.665,114.818Z" transform="translate(-176.373 -101.603)" fill="#b75662"/>
      <g id="Group_3480" data-name="Group 3480" transform="translate(7.613 22.233)">
        <path id="Path_1918" data-name="Path 1918" d="M201.879,334.826H189.613a.413.413,0,1,1,0-.826h12.259a.414.414,0,0,1,.413.413A.408.408,0,0,1,201.879,334.826Z" transform="translate(-189.2 -334)" fill="#7193bc"/>
        <path id="Path_1919" data-name="Path 1919" d="M201.879,356.826H189.613a.413.413,0,1,1,0-.826h12.259a.414.414,0,0,1,.413.413A.408.408,0,0,1,201.879,356.826Z" transform="translate(-189.2 -354.486)" fill="#7193bc"/>
        <path id="Path_1920" data-name="Path 1920" d="M201.879,378.826H189.613a.413.413,0,1,1,0-.826h12.259a.414.414,0,0,1,.413.413A.408.408,0,0,1,201.879,378.826Z" transform="translate(-189.2 -374.971)" fill="#7193bc"/>
      </g>
    </g>
    <path id="Path_1921" data-name="Path 1921" d="M80.665,12.356A1.354,1.354,0,0,1,82.021,11H79.956A1.354,1.354,0,0,0,78.6,12.356V42.814a1.906,1.906,0,0,1,1.907-1.907h.158Z" transform="translate(0)" fill="#593835"/>
    <g id="Group_3481" data-name="Group 3481" transform="translate(80.211 12.583)">
      <path id="Path_1922" data-name="Path 1922" d="M102.413,34a.414.414,0,0,0-.413.413V34.6a.413.413,0,0,0,.826,0v-.186A.414.414,0,0,0,102.413,34Z" transform="translate(-102 -34)" fill="#f4f8fc"/>
      <path id="Path_1923" data-name="Path 1923" d="M102.413,56.1a.414.414,0,0,0-.413.413v5.968a.413.413,0,0,0,.826,0V56.513A.414.414,0,0,0,102.413,56.1Z" transform="translate(-102 -54.579)" fill="#f4f8fc"/>
    </g>
    <path id="Path_1924" data-name="Path 1924" d="M102.984,476.076l-.124-.186a2.186,2.186,0,0,1-.379-1.232,1.219,1.219,0,0,1,.007-.158l-23.788.007a1.909,1.909,0,0,0,1.907,1.824h22.26a.16.16,0,0,0,.158-.158A.313.313,0,0,0,102.984,476.076Z" transform="translate(-0.093 -431.597)" fill="#c79a83"/>
    <path id="Path_1925" data-name="Path 1925" d="M80.507,445.5a1.906,1.906,0,0,0-1.907,1.907v.089l23.788-.007a3.071,3.071,0,0,1,.53-1.549.4.4,0,0,0,.083-.248V445.5Z" transform="translate(0 -404.593)" fill="#e1b7a3"/>
    <path id="XMLID_4_" d="M246.485,108.3A3.231,3.231,0,0,0,244,110.035a6.492,6.492,0,0,1,3.393-1.652A6.753,6.753,0,0,0,246.485,108.3Z" transform="translate(-154.015 -90.603)" fill="#ceb56e"/>
  </g>
</svg>
