<svg xmlns="http://www.w3.org/2000/svg" width="26.331" height="29.959" viewBox="0 0 26.331 29.959">
  <g id="Religion_" data-name="Religion " transform="translate(-4.838 -6.049)">
    <g id="Group_3444" data-name="Group 3444" transform="translate(4.838 6.049)">
      <path id="Path_1866" data-name="Path 1866" d="M174.781,86a6.173,6.173,0,1,0,6.144,6.2A6.2,6.2,0,0,0,174.781,86Z" transform="translate(-161.615 -85.999)" fill="#fcf4c2"/>
      <path id="Path_1867" data-name="Path 1867" d="M206.422,86h-.015c-2.074,0-3.762,2.815-3.762,6.2s1.688,6.144,3.762,6.144h.015Z" transform="translate(-193.231 -85.999)" fill="#f3d37a"/>
      <path id="Path_1868" data-name="Path 1868" d="M262.144,92.2A6.2,6.2,0,0,0,256,86V98.345A6.151,6.151,0,0,0,262.144,92.2Z" transform="translate(-242.834 -85.999)" fill="#e89a39"/>
      <path id="Path_1869" data-name="Path 1869" d="M95.124,162.592v-.878H91.613v.878a9.655,9.655,0,1,1-19.31,0v-.878H68.793v.878A13.158,13.158,0,0,0,80.2,175.627v2.764H76.692V181.9H80.2v4.362q.86.083,1.743.085h.024q.882,0,1.743-.085V181.9h3.511V178.39H83.714v-2.764A13.158,13.158,0,0,0,95.124,162.592Z" transform="translate(-68.793 -156.389)" fill="#d85e91"/>
      <path id="Path_1870" data-name="Path 1870" d="M75.675,169.916a9.636,9.636,0,0,1-3.372-7.324v-.878H68.793v.878a13.139,13.139,0,0,0,6.882,11.557Z" transform="translate(-68.793 -156.389)" fill="#d85e91"/>
      <path id="Path_1871" data-name="Path 1871" d="M269.166,162.592v-.878h-3.511v.878A9.666,9.666,0,0,1,256,172.246v14.1h.012q.882,0,1.743-.085V181.9h3.511V178.39h-3.511v-2.764A13.158,13.158,0,0,0,269.166,162.592Z" transform="translate(-242.834 -156.389)" fill="#c43071"/>
    </g>
  </g>
</svg>
