<svg xmlns="http://www.w3.org/2000/svg" width="35.596" height="36.299" viewBox="0 0 35.596 36.299">
  <g id="scientist" transform="translate(-0.704 -0.003)">
    <path id="Path_1731" data-name="Path 1731" d="M182.14,249.266a7.949,7.949,0,0,1-1.146,1.1,4.194,4.194,0,0,1-2.572.879c-.1,0-.2,0-.293-.011a2.54,2.54,0,0,0,.186.292,6.379,6.379,0,0,1-1.231,3.808,1.628,1.628,0,0,0-.409-.105,15.026,15.026,0,0,0,1.2.964.478.478,0,0,1,.2.41h.7a.478.478,0,0,1,.2-.41c2.84-2.061,3.431-3.79,3.549-4.522l.1-.041a6.3,6.3,0,0,1-.477-2.361Z" transform="translate(-164.148 -231.591)" fill="#ffaa7b"/>
    <path id="Path_1732" data-name="Path 1732" d="M146.078,251.488a2.525,2.525,0,0,1-.167-.25,4.192,4.192,0,0,1-2.406-.876,7.95,7.95,0,0,1-1.147-1.1,6.209,6.209,0,0,1-.5,2.4h.119c.1.631.557,2,2.5,3.693a1.244,1.244,0,0,1,.278.1C146.1,254.125,146.078,251.488,146.078,251.488Z" transform="translate(-131.805 -231.591)" fill="#fc9460"/>
    <path id="Path_1733" data-name="Path 1733" d="M150.072,351.676c-.333.487-.653.9-.863,1.167a.675.675,0,0,1-.9.137A8.684,8.684,0,0,1,146.4,351.1a.47.47,0,0,1-.082-.406h-.727a.47.47,0,0,1-.082.406,8.683,8.683,0,0,1-1.906,1.878.675.675,0,0,1-.9-.137c-.21-.264-.53-.68-.863-1.167l-.11-.024,1.041,9.309q.469.182.952.336l4.579.818c.234.01.47.016.707.017l1.174-10.5Z" transform="translate(-131.683 -325.831)" fill="#49b1f7"/>
    <path id="Path_1734" data-name="Path 1734" d="M171.165,392.752a.164.164,0,0,1-.069-.021c-.178.718-.846,4.146-1.333,7.62a17.318,17.318,0,0,0,4.586.819c-.489-3.736-1.252-7.665-1.444-8.439a.163.163,0,0,1-.069.021c-.276.019-.556.151-.836.151S171.442,392.771,171.165,392.752Z" transform="translate(-157.728 -364.885)" fill="#4b6bb2"/>
    <path id="Path_1735" data-name="Path 1735" d="M173.5,400.176a1.807,1.807,0,0,1-1.5-1.78v-2.928a1.2,1.2,0,0,1,1.212-1.254c-.14-.722-.251-1.248-.309-1.483a.163.163,0,0,1-.069.021c-.276.019-.556.151-.836.151s-.56-.132-.836-.151a.164.164,0,0,1-.069-.021c-.178.718-.846,4.146-1.333,7.62a17.317,17.317,0,0,0,4.586.819q-.057-.432-.118-.865Z" transform="translate(-157.729 -364.884)" fill="#3c58a0"/>
    <path id="Path_1736" data-name="Path 1736" d="M178.948,351.1a.47.47,0,0,1-.082-.406h-.727a.47.47,0,0,1-.082.406,9.913,9.913,0,0,1-1.3,1.4,12.765,12.765,0,0,0,.787,1.272.173.173,0,0,0,.118.061c.276.019.556.151.836.151s.56-.132.836-.151a.173.173,0,0,0,.118-.061,12.763,12.763,0,0,0,.787-1.272A9.917,9.917,0,0,1,178.948,351.1Z" transform="translate(-164.23 -325.83)" fill="#4b6bb2"/>
    <path id="Path_1737" data-name="Path 1737" d="M208.507,278.01s.16,2.119-3.533,4.8a.582.582,0,0,0-.123.825,8.875,8.875,0,0,0,1.931,1.9.777.777,0,0,0,1.043-.159c.24-.3.558-.719.883-1.195l.47-4.2a2.355,2.355,0,0,0-.124-1.067,2.758,2.758,0,0,1-.476-.828C208.533,278.035,208.507,278.01,208.507,278.01Z" transform="translate(-190.217 -258.297)" fill="#73c3f9"/>
    <path id="Path_1738" data-name="Path 1738" d="M144.673,334.006c-.4-.287-.746-.567-1.058-.84a1.765,1.765,0,0,0-.954.027,3.06,3.06,0,0,0-1.681,1.609l-.109-.032.068.608c.325.476.642.893.883,1.195a.777.777,0,0,0,1.043.159,8.875,8.875,0,0,0,1.931-1.9A.582.582,0,0,0,144.673,334.006Z" transform="translate(-130.883 -309.494)" fill="#73c3f9"/>
    <path id="Path_1739" data-name="Path 1739" d="M138.38,282.164c-2.837-2.367-2.7-4.154-2.7-4.154s-.026.025-.071.073a2.761,2.761,0,0,1-.476.828,2.355,2.355,0,0,0-.124,1.067l.415,3.709c.094.028.147.049.147.049C136.83,281.327,138.38,282.164,138.38,282.164Z" transform="translate(-125.421 -258.297)" fill="#49b1f7"/>
    <path id="Path_1740" data-name="Path 1740" d="M187.834,0a3.078,3.078,0,0,0,0,4.246c-.024.032-.055.073-.09.123a2.639,2.639,0,0,0,1.063-.124,4.619,4.619,0,0,1,3.2-.075c1.251.563,1.146,2.284,1.077,3.237a1.547,1.547,0,0,0,.234.944,2.87,2.87,0,0,1,.256.515,4.8,4.8,0,0,1,.178.807,1.884,1.884,0,0,1,.843-.161c.029-1,.121-2.212.121-2.212,1.007-4.934-3.1-7.324-6.879-7.3Z" transform="translate(-173.701 0)" fill="#6c5475"/>
    <path id="Path_1741" data-name="Path 1741" d="M111.626.081c-3.735.509-4.09,2.626-4.092,3.4a.428.428,0,0,1-.237.385c-1.943.945-.9,5.642-.9,5.642a2.465,2.465,0,0,1,.693.166,4.755,4.755,0,0,1,.184-.823,2.858,2.858,0,0,1,.25-.5,1.533,1.533,0,0,0,.234-.936c-.07-.95-.178-2.681,1.076-3.245a4.619,4.619,0,0,1,3.2.075,2.636,2.636,0,0,0,.727.133c.065-.089.105-.14.105-.14a3,3,0,0,1,0-4.237,8.625,8.625,0,0,0-1.244.077Z" transform="translate(-98.596 -0.002)" fill="#543e5b"/>
    <path id="Path_1742" data-name="Path 1742" d="M186.453,58.248a2.873,2.873,0,0,0-.256-.515,1.547,1.547,0,0,1-.234-.944c.069-.953.032-2.816-1.219-3.379a4.619,4.619,0,0,0-3.2.075,2.637,2.637,0,0,1-.985.13l.012.013a5.981,5.981,0,0,0-1.265,3.074,8.139,8.139,0,0,0,.093,1.617.9.9,0,0,0-.233.554.794.794,0,0,0,.207.536.916.916,0,0,0-.233.551.858.858,0,0,0,.235.6.9.9,0,0,0-.206.531.8.8,0,0,0,.219.547.736.736,0,0,0,.182.973l.366.915a1.306,1.306,0,0,0-.03,1.431l.577.828a.5.5,0,0,0,.022.587v.59a1.971,1.971,0,0,0,.072,2.311l.133,0a4.194,4.194,0,0,0,2.572-.879,7.913,7.913,0,0,0,3.059-6.293l.3-2.153A3.445,3.445,0,0,0,186.453,58.248Z" transform="translate(-166.441 -49.379)" fill="#ffc7ab"/>
    <path id="Path_1743" data-name="Path 1743" d="M123.115,67v-.666a.426.426,0,0,1,0-.548L122.5,64.9a1.191,1.191,0,0,1,.059-1.362l-.4-1c-.509-.337-.138-.919-.138-.919a.717.717,0,0,1,0-1.063.749.749,0,0,1,0-1.147.71.71,0,0,1,0-1.063,5.511,5.511,0,0,1-.106-1.646,6.136,6.136,0,0,1,1.3-3.082,2.638,2.638,0,0,1-.832-.135,4.619,4.619,0,0,0-3.2-.075c-1.254.564-1.288,2.437-1.218,3.387a1.533,1.533,0,0,1-.234.936,2.858,2.858,0,0,0-.25.5,3.442,3.442,0,0,0-.195,1.718l.3,2.154a7.913,7.913,0,0,0,3.059,6.293,4.194,4.194,0,0,0,2.572.879,1.855,1.855,0,0,1-.1-2.28Z" transform="translate(-108.941 -49.378)" fill="#ffaa7b"/>
    <path id="Path_1744" data-name="Path 1744" d="M285.861,308.891a17.355,17.355,0,0,0,10.037-5.9,23.79,23.79,0,0,0-1.261-4.348,3.986,3.986,0,0,0-2.076-2.173l-6.114-2.744-.033.115a4.362,4.362,0,0,1,.674.979,2.617,2.617,0,0,1,.274,1.042l.171,3.3a.909.909,0,0,1-.249.673l-1.747,1.841a.292.292,0,0,0,.038.435l1.492,1.106a.292.292,0,0,1,.109.3Z" transform="translate(-265.218 -272.898)" fill="#d3dcfb"/>
    <path id="Path_1745" data-name="Path 1745" d="M247.49,269.8a2.616,2.616,0,0,0-.274-1.042,4.36,4.36,0,0,0-.783-1.094,8.153,8.153,0,0,0-3.121-1.989,3.449,3.449,0,0,0,.412,1.4,2.3,2.3,0,0,1,.3,1.439l-1.634,14.619.185,0A17.449,17.449,0,0,0,246,282.8l1.308-5.343a.292.292,0,0,0-.11-.3l-1.492-1.106a.292.292,0,0,1-.038-.435l1.747-1.841a.91.91,0,0,0,.249-.673Z" transform="translate(-225.205 -246.837)" fill="#deeeff"/>
    <path id="Path_1746" data-name="Path 1746" d="M48.669,377.283a.906.906,0,0,1-.141-.2c-.021.032-.043.064-.064.1a4.324,4.324,0,0,0-1.729.658,3.753,3.753,0,0,0-1.327,1.513,17.467,17.467,0,0,0,3.95,3.986l-.58-2.37a.292.292,0,0,1,.11-.3l1.492-1.106a.292.292,0,0,0,.038-.435Z" transform="translate(-42.189 -350.348)" fill="#d3dcfb"/>
    <path id="Path_1747" data-name="Path 1747" d="M10.433,296.471a3.981,3.981,0,0,0-.5.269A17.3,17.3,0,0,0,12.517,302a3.973,3.973,0,0,1,3.05-2.166l.062-.1a.909.909,0,0,1-.169-.575l.171-3.3a2.616,2.616,0,0,1,.274-1.042,4.362,4.362,0,0,1,.674-.979l-.033-.115Z" transform="translate(-9.229 -272.9)" fill="#bec8f7"/>
    <path id="Path_1748" data-name="Path 1748" d="M92.13,354.951a3.354,3.354,0,0,0-1.3-.137,3.286,3.286,0,0,0-2.518,1.664l-.016,0a.892.892,0,0,0,.079.1l1.747,1.841a.292.292,0,0,1-.038.435l-1.492,1.106a.292.292,0,0,0-.11.3l.549,2.244a17.333,17.333,0,0,0,4.241,2.322L92.16,354.9Z" transform="translate(-82.033 -329.643)" fill="#deeeff"/>
    <path id="Path_1749" data-name="Path 1749" d="M89.946,272.275l-.42-3.758a2.3,2.3,0,0,1,.3-1.439,3.45,3.45,0,0,0,.412-1.4,8.153,8.153,0,0,0-3.121,1.989,4.359,4.359,0,0,0-.783,1.094,2.616,2.616,0,0,0-.274,1.042l-.171,3.3a.909.909,0,0,0,.248.673A3.133,3.133,0,0,1,89.946,272.275Z" transform="translate(-79.799 -246.837)" fill="#d3dcfb"/>
    <path id="Path_1750" data-name="Path 1750" d="M97.477,120.616h-.621a1.031,1.031,0,0,1-1.028-1.028v-2.724a1.031,1.031,0,0,1,1.028-1.028h.621a.411.411,0,0,1,.409.409v3.962A.41.41,0,0,1,97.477,120.616Z" transform="translate(-89.034 -107.621)" fill="#7255ce"/>
    <path id="Path_1751" data-name="Path 1751" d="M280.832,120.616h-.621a.411.411,0,0,1-.409-.409v-3.962a.411.411,0,0,1,.409-.409h.621a1.031,1.031,0,0,1,1.028,1.028v2.724A1.031,1.031,0,0,1,280.832,120.616Z" transform="translate(-259.965 -107.621)" fill="#9787f4"/>
    <path id="Path_1752" data-name="Path 1752" d="M187.291,126.46h-7.912a.882.882,0,0,0-.209.525.794.794,0,0,0,.207.536.916.916,0,0,0-.233.551.858.858,0,0,0,.235.6.9.9,0,0,0-.206.531.792.792,0,0,0,.207.531h7.912a1.637,1.637,0,1,0,0-3.274Z" transform="translate(-166.442 -117.492)" fill="#deeeff"/>
    <path id="Path_1753" data-name="Path 1753" d="M94.373,126.46h-5.24a1.637,1.637,0,1,0,0,3.274h5.24a.717.717,0,0,1,0-1.063.749.749,0,0,1,0-1.147A.71.71,0,0,1,94.373,126.46Z" transform="translate(-81.293 -117.492)" fill="#bec8f7"/>
    <path id="Path_1754" data-name="Path 1754" d="M186.031,142.033a.581.581,0,0,1,.574-.573h-7.23a.914.914,0,0,0-.232.549.857.857,0,0,0,.234.6H186.6A.581.581,0,0,1,186.031,142.033Z" transform="translate(-166.442 -131.428)" fill="#73c3f9"/>
    <path id="Path_1755" data-name="Path 1755" d="M108.31,141.46h-5.24a.573.573,0,1,0,0,1.147h5.24A.749.749,0,0,1,108.31,141.46Z" transform="translate(-95.229 -131.428)" fill="#49b1f7"/>
    <path id="Path_1756" data-name="Path 1756" d="M276.277,142.033a.581.581,0,0,0-.573-.573h-.828a.573.573,0,0,0,0,1.147h.828A.581.581,0,0,0,276.277,142.033Z" transform="translate(-254.855 -131.428)" fill="#fc90ce"/>
    <g id="Group_3406" data-name="Group 3406" transform="translate(12.352 13.153)">
      <path id="Path_1757" data-name="Path 1757" d="M179.782,218.973l-.619-.244a.333.333,0,0,0-.218-.009l-.714.215-.714-.215a.333.333,0,0,0-.218.009l-.619.244a.333.333,0,1,0,.244.619l.512-.2.7.21a.33.33,0,0,0,.2,0l.7-.21.512.2a.333.333,0,1,0,.244-.619Z" transform="translate(-176.31 -216.351)" fill="#fc9460"/>
      <path id="Path_1758" data-name="Path 1758" d="M194.654,239.055h-.427a.333.333,0,1,0,0,.666h.427a.333.333,0,1,0,0-.666Z" transform="translate(-192.499 -235.257)" fill="#fc9460"/>
      <path id="Path_1759" data-name="Path 1759" d="M178.016,185.766a.314.314,0,0,0-.2-.137l-.616-.13a.294.294,0,0,0-.336.147l-.007.012a.891.891,0,0,1-1.422,0l-.007-.011a.294.294,0,0,0-.337-.147l-.616.13a.316.316,0,1,0,.13.618l.343-.072a.142.142,0,0,1,.129.038,1.544,1.544,0,0,0,2.136,0,.141.141,0,0,1,.129-.038l.343.072a.316.316,0,0,0,.329-.482Z" transform="translate(-174.225 -185.492)" fill="#fc9460"/>
    </g>
    <path id="Path_1760" data-name="Path 1760" d="M404.787,12.957h-6.4l.02.02c-.2.392-1.038,2.273.466,3.448l.457.756,2.568,2.643-.379,1.267c-.079.163-1.075,2.314.628,3.7h2.642a1.292,1.292,0,0,0,1.288-1.288V14.245A1.292,1.292,0,0,0,404.787,12.957Z" transform="translate(-369.776 -12.036)" fill="#856ee5"/>
    <path id="Path_1761" data-name="Path 1761" d="M341.153,12.957a1.292,1.292,0,0,0-1.288,1.288V23.5a1.292,1.292,0,0,0,1.288,1.288h7.158c-1.867-1.388-.7-3.658-.7-3.658l.4-1.336-2.6-2.679-.461-.762c-1.647-1.268-.416-3.4-.416-3.4h-3.376Z" transform="translate(-315.769 -12.036)" fill="#7255ce"/>
    <g id="Group_3407" data-name="Group 3407" transform="translate(27.617 4.255)">
      <path id="Path_1762" data-name="Path 1762" d="M390.153,67.9a.411.411,0,0,1,0-.581c.612-.612.352-1.564-.114-2.947-.439-1.3-.935-2.772.083-3.791s2.492-.522,3.791-.083c1.383.467,2.335.726,2.947.114a.411.411,0,0,1,.581.581c-1.019,1.019-2.491.522-3.791.083-1.383-.467-2.335-.726-2.947-.114s-.352,1.564.114,2.947c.439,1.3.935,2.772-.083,3.791A.411.411,0,0,1,390.153,67.9Z" transform="translate(-389.523 -59.987)" fill="#fb7ac0"/>
    </g>
    <path id="Path_1763" data-name="Path 1763" d="M464.057,67.291a1.7,1.7,0,0,1-1.712.257c-.741-.172-.537.28-.135.814a2.459,2.459,0,0,0,2.428-.489.411.411,0,1,0-.581-.581Z" transform="translate(-429.105 -62.406)" fill="#fc90ce"/>
    <g id="Group_3408" data-name="Group 3408" transform="translate(24.741 1.38)">
      <path id="Path_1764" data-name="Path 1764" d="M349.092,26.844a.411.411,0,0,1,0-.581c1.019-1.019,2.492-.522,3.791-.083,1.383.467,2.335.726,2.947.114s.352-1.564-.114-2.947c-.439-1.3-.935-2.772.083-3.791a.411.411,0,0,1,.581.581c-.612.612-.352,1.564.114,2.947.439,1.3.935,2.772-.083,3.791s-2.491.522-3.791.083c-1.383-.467-2.335-.726-2.947-.114A.411.411,0,0,1,349.092,26.844Z" transform="translate(-348.972 -19.436)" fill="#73c3f9"/>
      <path id="Path_1765" data-name="Path 1765" d="M352.883,107.8c-1.3-.438-2.772-.935-3.791.083a.411.411,0,1,0,.581.581c.612-.612,1.564-.352,2.947.114A.469.469,0,0,1,352.883,107.8Z" transform="translate(-348.972 -101.054)" fill="#49b1f7"/>
    </g>
    <path id="Path_1766" data-name="Path 1766" d="M446.511,36.833l-2.479-2.479a.343.343,0,0,0-.485.485l2.479,2.479a.343.343,0,0,0,.485-.485Z" transform="translate(-412.007 -31.823)" fill="#9bd8f9"/>
    <path id="Path_1767" data-name="Path 1767" d="M414.591,68.755l-2.479-2.479a.343.343,0,0,0-.485.485l2.479,2.479a.343.343,0,0,0,.485-.485Z" transform="translate(-382.35 -61.482)" fill="#fcc8ea"/>
    <path id="Path_1768" data-name="Path 1768" d="M398.776,84.569,396.3,82.09a.343.343,0,1,0-.485.485l2.479,2.479a.343.343,0,0,0,.485-.485Z" transform="translate(-367.657 -76.175)" fill="#9bd8f9"/>
    <path id="Path_1769" data-name="Path 1769" d="M366.855,116.49l-2.479-2.479a.343.343,0,0,0-.485.485l2.479,2.479a.343.343,0,1,0,.485-.485Z" transform="translate(-337.999 -105.833)" fill="#fcc8ea"/>
    <path id="Path_1772" data-name="Path 1772" d="M366.966,413.835a.546.546,0,0,0-.966.348v4.163a17.4,17.4,0,0,0,2.276-1.546A5.854,5.854,0,0,0,366.966,413.835Z" transform="translate(-340.051 -384.309)" fill="#bec8f7"/>
  </g>
</svg>
