<svg xmlns="http://www.w3.org/2000/svg" width="16.241" height="17.324" viewBox="0 0 16.241 17.324">
  <g id="share_3_" data-name="share (3)" transform="translate(-16)">
    <g id="Group_3489" data-name="Group 3489" transform="translate(20.944 3.907)">
      <path id="Path_1961" data-name="Path 1961" d="M162.637,119.823l-.519-.872,5.811-3.491.519.872Z" transform="translate(-162.118 -115.459)" fill="#0095ff"/>
      <path id="Path_1962" data-name="Path 1962" d="M172.39,294l-5.6-2.861.458-.906,5.6,2.861Z" transform="translate(-166.633 -284.319)" fill="#0095ff"/>
    </g>
    <g id="Group_3490" data-name="Group 3490" transform="translate(16)">
      <path id="Path_1963" data-name="Path 1963" d="M319.045,0a3.045,3.045,0,1,0,3.045,3.045A3.054,3.054,0,0,0,319.045,0Z" transform="translate(-305.849)" fill="#00abe9"/>
      <path id="Path_1964" data-name="Path 1964" d="M319.045,332a3.045,3.045,0,1,0,3.045,3.045A3.054,3.054,0,0,0,319.045,332Z" transform="translate(-305.849 -320.767)" fill="#00abe9"/>
      <path id="Path_1965" data-name="Path 1965" d="M19.045,181a3.045,3.045,0,1,0,3.045,3.045A3.054,3.054,0,0,0,19.045,181Z" transform="translate(-16 -174.876)" fill="#00abe9"/>
    </g>
    <g id="Group_3491" data-name="Group 3491" transform="translate(19.045)">
      <path id="Path_1966" data-name="Path 1966" d="M409.045,335.045A3.054,3.054,0,0,1,406,338.09V332A3.054,3.054,0,0,1,409.045,335.045Z" transform="translate(-395.849 -320.767)" fill="#0095ff"/>
      <path id="Path_1967" data-name="Path 1967" d="M406,6.09V0a3.045,3.045,0,1,1,0,6.09Z" transform="translate(-395.849)" fill="#0095ff"/>
      <path id="Path_1968" data-name="Path 1968" d="M109.045,184.045A3.054,3.054,0,0,1,106,187.09V181A3.054,3.054,0,0,1,109.045,184.045Z" transform="translate(-106 -174.876)" fill="#0095ff"/>
    </g>
  </g>
</svg>
