<svg id="_Society" data-name=" Society" xmlns="http://www.w3.org/2000/svg" width="32.13" height="32.13" viewBox="0 0 32.13 32.13">
  <g id="Sociology_1_">
    <g id="Group_3448" data-name="Group 3448" transform="translate(13.241)">
      <g id="Group_3447" data-name="Group 3447">
        <path id="Path_1893" data-name="Path 1893" d="M213.824,5.648a2.824,2.824,0,1,1,2.824-2.824A2.827,2.827,0,0,1,213.824,5.648Z" transform="translate(-211)" fill="#c86e59"/>
      </g>
    </g>
    <g id="Group_3452" data-name="Group 3452" transform="translate(11.358 5.648)">
      <g id="Group_3451" data-name="Group 3451">
        <g id="Group_3450" data-name="Group 3450">
          <g id="Group_3449" data-name="Group 3449">
            <path id="Path_1894" data-name="Path 1894" d="M190.413,95.648H181v-.941a4.707,4.707,0,0,1,9.413,0Z" transform="translate(-181 -90)" fill="#fabe2c"/>
          </g>
        </g>
      </g>
    </g>
    <g id="Group_3454" data-name="Group 3454" transform="translate(1.883 18.889)">
      <g id="Group_3453" data-name="Group 3453">
        <path id="Path_1895" data-name="Path 1895" d="M32.824,306.648a2.824,2.824,0,1,1,2.824-2.824A2.827,2.827,0,0,1,32.824,306.648Z" transform="translate(-30 -301)" fill="#ffd9b3"/>
      </g>
    </g>
    <g id="Group_3458" data-name="Group 3458" transform="translate(0 24.537)">
      <g id="Group_3457" data-name="Group 3457">
        <g id="Group_3456" data-name="Group 3456">
          <g id="Group_3455" data-name="Group 3455">
            <path id="Path_1896" data-name="Path 1896" d="M9.413,396.648H0v-.941a4.707,4.707,0,1,1,9.413,0Z" transform="translate(0 -391)" fill="#57d9ad"/>
          </g>
        </g>
      </g>
    </g>
    <g id="Group_3459" data-name="Group 3459" transform="translate(9.565 20.104)">
      <path id="Path_1897" data-name="Path 1897" d="M0,0H5.357V1.882H0Z" transform="translate(0 3.027) rotate(-34.405)" fill="#9df"/>
    </g>
    <g id="Group_3460" data-name="Group 3460" transform="translate(15.124 13.241)">
      <path id="Path_1898" data-name="Path 1898" d="M241,211h1.883v4.707H241Z" transform="translate(-241 -211)" fill="#9df"/>
    </g>
    <g id="Group_3463" data-name="Group 3463" transform="translate(17.084 20.117)">
      <g id="Group_3462" data-name="Group 3462" transform="translate(0 0)">
        <g id="Group_3461" data-name="Group 3461">
          <path id="Path_1899" data-name="Path 1899" d="M0,0H1.882V5.357H0Z" transform="translate(0 1.553) rotate(-55.595)" fill="#9df"/>
        </g>
      </g>
    </g>
    <g id="Group_3466" data-name="Group 3466" transform="translate(4.512 10.709)">
      <g id="Group_3465" data-name="Group 3465">
        <g id="Group_3464" data-name="Group 3464">
          <path id="Path_1900" data-name="Path 1900" d="M73.674,176.36l-1.776-.621a12.253,12.253,0,0,1,3.4-5.08l1.254,1.4A10.4,10.4,0,0,0,73.674,176.36Z" transform="translate(-71.898 -170.659)" fill="#9df"/>
        </g>
      </g>
    </g>
    <g id="Group_3469" data-name="Group 3469" transform="translate(22.968 10.709)">
      <g id="Group_3468" data-name="Group 3468">
        <g id="Group_3467" data-name="Group 3467">
          <path id="Path_1901" data-name="Path 1901" d="M368.884,176.359a10.4,10.4,0,0,0-2.874-4.3l1.254-1.4a12.252,12.252,0,0,1,3.4,5.08Z" transform="translate(-366.01 -170.658)" fill="#9df"/>
        </g>
      </g>
    </g>
    <g id="Group_3470" data-name="Group 3470" transform="translate(11.985 29.659)">
      <path id="Path_1902" data-name="Path 1902" d="M195.07,475.1a12.21,12.21,0,0,1-4.08-.7l.629-1.774a10.453,10.453,0,0,0,6.9,0l.629,1.774A12.21,12.21,0,0,1,195.07,475.1Z" transform="translate(-190.99 -472.625)" fill="#9df"/>
    </g>
  </g>
  <g id="Group_3474" data-name="Group 3474" transform="translate(24.599 18.889)">
    <g id="Group_3473" data-name="Group 3473">
      <g id="Group_3472" data-name="Group 3472">
        <g id="Group_3471" data-name="Group 3471">
          <path id="Path_1903" data-name="Path 1903" d="M394.824,306.648a2.824,2.824,0,1,1,2.824-2.824A2.827,2.827,0,0,1,394.824,306.648Z" transform="translate(-392 -301)" fill="#fb9"/>
        </g>
      </g>
    </g>
  </g>
  <g id="Group_3478" data-name="Group 3478" transform="translate(22.717 24.537)">
    <g id="Group_3477" data-name="Group 3477">
      <g id="Group_3476" data-name="Group 3476">
        <g id="Group_3475" data-name="Group 3475">
          <path id="Path_1904" data-name="Path 1904" d="M371.413,396.648H362v-.941a4.707,4.707,0,1,1,9.413,0Z" transform="translate(-362 -391)" fill="#26bfa6"/>
        </g>
      </g>
    </g>
  </g>
  <path id="Path_1905" data-name="Path 1905" d="M260.08,474.4l-.629-1.774a10.373,10.373,0,0,1-3.451.586V475.1A12.21,12.21,0,0,0,260.08,474.4Z" transform="translate(-239.935 -442.966)" fill="#9df"/>
  <path id="Path_1906" data-name="Path 1906" d="M258.824,2.824A2.827,2.827,0,0,0,256,0V5.648A2.827,2.827,0,0,0,258.824,2.824Z" transform="translate(-239.935)" fill="#a34f3e"/>
  <path id="Path_1907" data-name="Path 1907" d="M260.707,95.648v-.941A4.711,4.711,0,0,0,256,90v5.648Z" transform="translate(-239.935 -84.352)" fill="#ff9100"/>
  <path id="Path_1908" data-name="Path 1908" d="M256,211h.941v4.707H256Z" transform="translate(-239.935 -197.759)" fill="#9df"/>
  <g id="Group_3479" data-name="Group 3479" transform="translate(13.241 17.006)">
    <path id="Path_1909" data-name="Path 1909" d="M213.824,276.648a2.824,2.824,0,1,1,2.824-2.824A2.827,2.827,0,0,1,213.824,276.648Z" transform="translate(-211 -271)" fill="#9df"/>
  </g>
  <path id="Path_1910" data-name="Path 1910" d="M258.824,273.824A2.827,2.827,0,0,0,256,271v5.648A2.827,2.827,0,0,0,258.824,273.824Z" transform="translate(-239.935 -253.994)" fill="#9df"/>
</svg>
