<svg xmlns="http://www.w3.org/2000/svg" width="35.192" height="34.91" viewBox="0 0 35.192 34.91">
  <g id="sport" transform="translate(-54.373 -51.363)">
    <circle id="Ellipse_295" data-name="Ellipse 295" cx="13.899" cy="13.899" r="13.899" transform="translate(55.904 51.363)" fill="#ff8d5c"/>
    <path id="Path_1498" data-name="Path 1498" d="M98.7,60.094A13.907,13.907,0,0,1,81.05,77.746,13.9,13.9,0,1,0,98.7,60.094Z" transform="translate(-24.402 -7.986)" fill="#ff774d"/>
    <path id="Path_1499" data-name="Path 1499" d="M106.337,77.21c1.874-7.862-1.737-11.962-4.067-14.765a15.848,15.848,0,0,1-2.1-2.907,12.6,12.6,0,0,1,6.171,2.1,13.96,13.96,0,0,0-1.371-1.715,12.434,12.434,0,0,0-5.124-1.263,4.077,4.077,0,0,1,.083-2.168v0q-.4-.156-.8-.288a4.87,4.87,0,0,0-.153,2.466,16.643,16.643,0,0,0-3.874.664,18.96,18.96,0,0,0-3.545-3.423q-.551.133-1.084.309l.31.2A16.888,16.888,0,0,1,94.22,59.6a15.781,15.781,0,0,0-4.159,2.008,6.78,6.78,0,0,0-5.42-1.648q-.464.5-.879,1.044l.064-.02a6.27,6.27,0,0,1,5.511,1.124A19.836,19.836,0,0,0,81.73,74.082a13.815,13.815,0,0,0,.624,1.475,19.07,19.07,0,0,1,7.6-12.839c1.15,1.363.795,2.8.229,5.087a23.2,23.2,0,0,0,.622,14.921q.491.148,1,.261c-2.573-7.2-1.71-11.262-.792-14.977.561-2.268,1.011-4.094-.349-5.772a15.225,15.225,0,0,1,4.132-1.921,22.9,22.9,0,0,1,4.448,15.165l.852.031a23.82,23.82,0,0,0-4.422-15.448,15.552,15.552,0,0,1,3.561-.538,14.03,14.03,0,0,0,2.38,3.463c2.63,3.162,5.9,7.1,3.63,15.024Z" transform="translate(-25.024 -4.157)" fill="#414344"/>
    <path id="Path_1500" data-name="Path 1500" d="M436.045,280.194a15.144,15.144,0,0,0,.616-2.356,1.7,1.7,0,0,0-.7-1.681,15.146,15.146,0,0,0-2.1-1.231l.509,2.634Z" transform="translate(-347.12 -204.495)" fill="#b56959"/>
    <path id="Path_1501" data-name="Path 1501" d="M175.857,372.419a15.127,15.127,0,0,1-3.374-1.817,1.7,1.7,0,0,1-.684-1.651,15.126,15.126,0,0,1,1.1-3.662l2.207,3.565Z" transform="translate(-107.39 -287.149)" fill="#a85b4a"/>
    <path id="Path_1502" data-name="Path 1502" d="M202.87,273.907a16.3,16.3,0,0,0,17.02-7.847l-1.105-4.689-2.469-3.946a16.3,16.3,0,0,0-17.588,6.486l1.481,5.236Z" transform="translate(-132.042 -187.941)" fill="#b56959"/>
    <path id="Path_1503" data-name="Path 1503" d="M212.542,312.034a10.874,10.874,0,0,1-10.871-10.623,14.689,14.689,0,0,0-2.943,3.278l1.481,5.236,2.661,4.762a15.39,15.39,0,0,0,9.166-.977,16.82,16.82,0,0,0,3.835-2.195,10.864,10.864,0,0,1-3.329.52Z" transform="translate(-132.043 -228.719)" fill="#a85b4a"/>
    <path id="Path_1504" data-name="Path 1504" d="M404.875,263.806l3.577,8.636a15.679,15.679,0,0,0,1.078-2.421l-2.181-5.266a15.679,15.679,0,0,0-2.474-.95Z" transform="translate(-320.605 -194.322)" fill="#f2f2ff"/>
    <path id="Path_1505" data-name="Path 1505" d="M246.142,288.817a28.92,28.92,0,0,0-2.831.615l-.28-.675a.427.427,0,0,0-.788.326l.241.583q-1.5.447-3.024,1.056l-.233-.562a.426.426,0,0,0-.788.326l.233.562q-1.5.644-2.885,1.391l-.241-.582a.426.426,0,0,0-.788.326l.279.674q-.855.493-1.65,1.023a.426.426,0,0,0,.473.71q.726-.484,1.506-.937l.321.774a.426.426,0,0,0,.788-.326l-.36-.869q1.374-.749,2.884-1.4l.37.894a.426.426,0,0,0,.788-.326l-.37-.894q1.523-.61,3.026-1.052l.36.869a.426.426,0,0,0,.788-.326l-.321-.774q1.336-.353,2.64-.568A.426.426,0,0,0,246.142,288.817Z" transform="translate(-163.567 -216.904)" fill="#f2f2ff"/>
    <path id="Path_1506" data-name="Path 1506" d="M187.844,349.142a15.046,15.046,0,0,0,2.37.7l-4.141-10a15.049,15.049,0,0,0-1.181,2.171Z" transform="translate(-119.387 -263.876)" fill="#ccccf0"/>
    <circle id="Ellipse_296" data-name="Ellipse 296" cx="5.955" cy="5.955" r="5.955" transform="translate(54.373 72.755)" fill="#f2f2ff"/>
    <path id="Path_1507" data-name="Path 1507" d="M66.92,309.621a8.43,8.43,0,0,1-8.273,7.37,5.956,5.956,0,1,0,8.273-7.37Z" transform="translate(-3.91 -236.229)" fill="#e6e6ff"/>
    <g id="Group_3317" data-name="Group 3317" transform="translate(55.709 73.791)">
      <path id="Path_1508" data-name="Path 1508" d="M140.411,324.749a7.334,7.334,0,0,0-.853,1.289l-.483-.48a.426.426,0,0,0-.6.605l.689.685a12.4,12.4,0,0,0-.625,1.79l-.734-.085a.426.426,0,0,0-.1.847l.638.073a14.185,14.185,0,0,0-.249,1.975l-.662.2a.427.427,0,0,0,.246.817l.392-.118a18.152,18.152,0,0,0,.122,1.978,5.963,5.963,0,0,0,.818-.393,15.117,15.117,0,0,1-.081-1.843l.91-.275a.427.427,0,0,0-.246-.817l-.619.187a13.268,13.268,0,0,1,.231-1.611l.713.082a.426.426,0,0,0,.1-.847l-.608-.07a11.888,11.888,0,0,1,.418-1.233l.289.287a.426.426,0,0,0,.6-.605l-.516-.512a7.6,7.6,0,0,1,.755-1.239A5.992,5.992,0,0,0,140.411,324.749Z" transform="translate(-131.408 -323.858)" fill="#ff596d"/>
      <path id="Path_1509" data-name="Path 1509" d="M71.076,316.223l-.622.384a.427.427,0,0,0,.448.726l.351-.216a11.814,11.814,0,0,1,.127,1.3l-.613-.071a.426.426,0,0,0-.1.847l.717.083a13.257,13.257,0,0,1-.143,1.622l-.563-.324a.426.426,0,0,0-.426.739l.826.475a15.308,15.308,0,0,1-.5,1.776,5.963,5.963,0,0,0,.707.569,18.252,18.252,0,0,0,.568-1.9l.354.2a.426.426,0,0,0,.426-.739l-.6-.345a14.216,14.216,0,0,0,.207-1.98l.636.073a.426.426,0,0,0,.1-.847l-.733-.084a12.4,12.4,0,0,0-.2-1.886l.826-.51a.427.427,0,0,0-.448-.726l-.579.357A7.368,7.368,0,0,0,71.3,314.3a5.987,5.987,0,0,0-.685.544A7.534,7.534,0,0,1,71.076,316.223Z" transform="translate(-70.037 -314.302)" fill="#ff596d"/>
    </g>
  </g>
</svg>
