<svg xmlns="http://www.w3.org/2000/svg" width="17.95" height="19.147" viewBox="0 0 17.95 19.147">
  <path id="Path_1121" data-name="Path 1121" d="M17.666.09A.6.6,0,0,1,17.95.6v17.95a.6.6,0,0,1-.6.6h-3.59a.6.6,0,0,1-.6-.6V16.753h-1.2v1.795a.6.6,0,0,1-.6.6H.6a.6.6,0,0,1-.6-.6V11.966A.6.6,0,0,1,.41,11.4L7.18,9.142V5.385a.6.6,0,0,1,.33-.535L17.083.063a.6.6,0,0,1,.583.026ZM7.18,10.4,1.2,12.4V17.95H7.18Zm1.2,7.546H10.77V16.155a.6.6,0,0,1,.6-.6h2.393a.6.6,0,0,1,.6.6V17.95h2.393V1.566L8.377,5.754Z" transform="translate(0 0)" fill="#1d4269" fill-rule="evenodd"/>
</svg>
