<svg xmlns="http://www.w3.org/2000/svg" width="54.658" height="69.293" viewBox="0 0 54.658 69.293">
  <g id="student" transform="translate(-17.013 -14.875)">
    <g id="Group_1309" data-name="Group 1309" transform="translate(17.013 64.789)">
      <path id="Path_513" data-name="Path 513" d="M319.3,390.2l.36.042Z" transform="translate(-281.606 -389.83)" fill="#f2ae27"/>
      <path id="Path_514" data-name="Path 514" d="M298.36,388.48l.262.016Z" transform="translate(-263.934 -388.378)" fill="#f2ae27"/>
      <path id="Path_515" data-name="Path 515" d="M380.368,404.932c.064.027.126.057.19.085C380.494,404.989,380.432,404.959,380.368,404.932Z" transform="translate(-333.143 -402.263)" fill="#f2ae27"/>
      <path id="Path_516" data-name="Path 516" d="M357.076,397.084c.081.022.164.041.245.064C357.24,397.125,357.157,397.106,357.076,397.084Z" transform="translate(-313.487 -395.64)" fill="#f2ae27"/>
      <path id="Path_517" data-name="Path 517" d="M393.7,411.424c.118.066.233.136.349.2C393.929,411.561,393.814,411.49,393.7,411.424Z" transform="translate(-344.391 -407.742)" fill="#f2ae27"/>
      <path id="Path_518" data-name="Path 518" d="M291.84,388.18l.175.008Z" transform="translate(-258.432 -388.125)" fill="#f2ae27"/>
      <path id="Path_519" data-name="Path 519" d="M387.144,408.008c.1.051.2.105.307.157C387.348,408.113,387.248,408.058,387.144,408.008Z" transform="translate(-338.862 -404.859)" fill="#f2ae27"/>
      <path id="Path_520" data-name="Path 520" d="M349.24,395.16l.315.071Z" transform="translate(-306.873 -394.016)" fill="#f2ae27"/>
      <path id="Path_521" data-name="Path 521" d="M334.052,392.22l.365.06C334.295,392.259,334.174,392.239,334.052,392.22Z" transform="translate(-294.056 -391.535)" fill="#f2ae27"/>
      <path id="Path_522" data-name="Path 522" d="M326.608,391.108l.37.051Z" transform="translate(-287.774 -390.596)" fill="#f2ae27"/>
      <path id="Path_523" data-name="Path 523" d="M312.132,389.472l.341.032Z" transform="translate(-275.557 -389.216)" fill="#f2ae27"/>
      <path id="Path_524" data-name="Path 524" d="M341.584,393.556l.351.068Z" transform="translate(-300.412 -392.662)" fill="#f2ae27"/>
      <path id="Path_525" data-name="Path 525" d="M305.152,388.908l.306.023Z" transform="translate(-269.666 -388.74)" fill="#f2ae27"/>
      <path id="Path_526" data-name="Path 526" d="M365.724,399.572l.032.009Z" transform="translate(-320.785 -397.739)" fill="#f2ae27"/>
      <path id="Path_527" data-name="Path 527" d="M426.252,440.232c.092.134.185.267.272.4C426.437,440.5,426.344,440.366,426.252,440.232Z" transform="translate(-371.867 -432.054)" fill="#f2ae27"/>
      <path id="Path_528" data-name="Path 528" d="M421.808,434.336c.1.124.205.248.3.377C422.013,434.584,421.911,434.46,421.808,434.336Z" transform="translate(-368.116 -427.078)" fill="#f2ae27"/>
      <path id="Path_529" data-name="Path 529" d="M416.928,428.912c.111.114.221.228.329.346C417.15,429.14,417.04,429.026,416.928,428.912Z" transform="translate(-363.998 -422.5)" fill="#f2ae27"/>
      <path id="Path_530" data-name="Path 530" d="M130.143,398.759c-3.552-9.449-16.311-10.78-23.9-10.916-.507.006-.951.012-1.306.012-4.319,0-20.876-.921-27.161,8.065a39.914,39.914,0,0,0,52.371,2.838Z" transform="translate(-77.772 -387.829)" fill="#f2ae27"/>
      <path id="Path_531" data-name="Path 531" d="M411.636,423.928c.118.1.234.208.349.314C411.87,424.136,411.755,424.03,411.636,423.928Z" transform="translate(-359.532 -418.294)" fill="#f2ae27"/>
      <path id="Path_532" data-name="Path 532" d="M405.98,419.368c.122.091.242.185.361.28C406.222,419.553,406.1,419.459,405.98,419.368Z" transform="translate(-354.758 -414.446)" fill="#f2ae27"/>
      <path id="Path_533" data-name="Path 533" d="M285.584,387.98h0Z" transform="translate(-253.152 -387.956)" fill="#f2ae27"/>
      <path id="Path_534" data-name="Path 534" d="M399.988,415.2c.123.079.243.162.363.245C400.23,415.367,400.111,415.283,399.988,415.2Z" transform="translate(-349.702 -410.932)" fill="#f2ae27"/>
    </g>
    <ellipse id="Ellipse_4" data-name="Ellipse 4" cx="8.74" cy="3.433" rx="8.74" ry="3.433" transform="translate(35.434 62.319)" fill="#1d4269"/>
    <path id="Path_558" data-name="Path 558" d="M217.367,344.066h0l-2.137-6.646L209.615,337,204,337.42l-2.137,6.646h0a.842.842,0,0,0-.051.277c0,1.377,3.494,2.493,7.8,2.493s7.8-1.116,7.8-2.493A.839.839,0,0,0,217.367,344.066Z" transform="translate(-165.441 -280.147)" fill="#e7ad68"/>
    <path id="Path_559" data-name="Path 559" d="M253.657,344.066h0l-2.137-6.646L245.9,337l-1.092.081,4.526.335,2.137,6.646h0a.842.842,0,0,1,.051.277c0,1.259-2.92,2.3-6.711,2.466.357.015.72.027,1.092.027,4.309,0,7.8-1.116,7.8-2.493A.839.839,0,0,0,253.657,344.066Z" transform="translate(-201.73 -280.147)" fill="#d9bfb8"/>
    <path id="Path_560" data-name="Path 560" d="M166.77,83.606V77.112c0-5.065-3.6-9.112-16.231-9.112s-16.231,4.048-16.231,9.112v6.494s-2.5.184-2.5,1.873v6.91c0,1.688.624,3.078,2.5,3.078,0,8.441,7.505,18.1,16.231,18.1s16.231-9.663,16.231-18.1c1.873,0,2.5-1.39,2.5-3.078v-6.91C169.267,83.791,166.77,83.606,166.77,83.606Z" transform="translate(-106.366 -53.125)" fill="#f0c087"/>
    <path id="Path_561" data-name="Path 561" d="M246.748,68c-.32,0-.629,0-.936.009,11.868.2,15.294,4.166,15.294,9.1V95.467c0,8.137-6.977,17.406-15.294,18.064.311.024.622.04.936.04,8.725,0,16.231-9.663,16.231-18.1V77.112C262.979,72.048,259.378,68,246.748,68Z" transform="translate(-202.574 -53.125)" fill="#ecb26d"/>
    <path id="Path_562" data-name="Path 562" d="M164.043,68c-12.628,0-16.231,4.048-16.231,9.112V90.473c.578-2.89,2.229-11.131,5.94-13.821a40.3,40.3,0,0,0,20.581,0c3.711,2.691,5.362,10.931,5.94,13.821V77.112C180.273,72.048,176.672,68,164.043,68Z" transform="translate(-119.869 -53.125)" fill="#664545"/>
    <path id="Path_563" data-name="Path 563" d="M246.758,68c-.318,0-.627,0-.935.009,11.867.2,15.292,4.166,15.292,9.1v6.161a53.57,53.57,0,0,1,1.873,7.2V77.112C262.989,72.048,259.388,68,246.758,68Z" transform="translate(-202.584 -53.125)" fill="#534747"/>
    <ellipse id="Ellipse_6" data-name="Ellipse 6" cx="1.5" cy="1" rx="1.5" ry="1" transform="translate(38.023 35.084)" fill="#242424"/>
    <ellipse id="Ellipse_7" data-name="Ellipse 7" cx="2.5" cy="2" rx="2.5" ry="2" transform="translate(48.023 34.084)" fill="#f5f5f5"/>
    <ellipse id="Ellipse_8" data-name="Ellipse 8" cx="1.5" cy="1" rx="1.5" ry="1" transform="translate(49.023 35.084)" fill="#242424"/>
  </g>
</svg>
