<svg xmlns="http://www.w3.org/2000/svg" width="32" height="34.212" viewBox="0 0 32 34.212">
  <g id="text" transform="translate(-8 -3.98)">
    <g id="Group_3314" data-name="Group 3314" transform="translate(8 3.857)">
      <g id="Group_3288" data-name="Group 3288" transform="translate(0 7.454)">
        <path id="Path_1450" data-name="Path 1450" d="M34.881,19.666A6.117,6.117,0,0,1,29.285,16H8V41.659H20.558a2.424,2.424,0,0,0,4.209,0H37.324V19.152A6.066,6.066,0,0,1,34.881,19.666Z" transform="translate(-8 -16)" fill="#64c8f0"/>
      </g>
      <g id="Group_3289" data-name="Group 3289" transform="translate(2.444 28.225)">
        <path id="Path_1451" data-name="Path 1451" d="M12,50H36.437v2.444H12Z" transform="translate(-12 -50)" fill="#288cb4"/>
      </g>
      <g id="Group_3290" data-name="Group 3290" transform="translate(2.444 5.01)">
        <path id="Path_1452" data-name="Path 1452" d="M30.328,12H28.18a3.668,3.668,0,0,0-2.592,1.073l-1.37,1.37-1.37-1.37A3.665,3.665,0,0,0,20.257,12H12V35.215h8.257a3.668,3.668,0,0,1,2.592,1.073l1.37,1.37,1.37-1.37a3.665,3.665,0,0,1,2.592-1.073h8.257V18.109A6.116,6.116,0,0,1,30.328,12Z" transform="translate(-12 -12)" fill="#f0f0f0"/>
      </g>
      <g id="Group_3291" data-name="Group 3291" transform="translate(2.444 5.01)">
        <path id="Path_1453" data-name="Path 1453" d="M12,12h2.444V35.215H12Z" transform="translate(-12 -12)" fill="#d2d2d2"/>
      </g>
      <g id="Group_3292" data-name="Group 3292" transform="translate(0 7.454)">
        <path id="Path_1454" data-name="Path 1454" d="M8,16h2.444V41.659H8Z" transform="translate(-8 -16)" fill="#46aad2"/>
      </g>
      <g id="Group_3293" data-name="Group 3293" transform="translate(14.051 6.843)">
        <path id="Path_1455" data-name="Path 1455" d="M31,38.215l.611.611.611-.611V15l-.611.611L31,15Z" transform="translate(-31 -15)" fill="#d2d2d2"/>
      </g>
      <g id="Group_3294" data-name="Group 3294" transform="translate(6.109 13.563)">
        <path id="Path_1456" data-name="Path 1456" d="M18,26h6.109v1.222H18Z" transform="translate(-18 -26)" fill="#d2d2d2"/>
      </g>
      <g id="Group_3295" data-name="Group 3295" transform="translate(6.109 16.006)">
        <path id="Path_1457" data-name="Path 1457" d="M18,30h6.109v1.222H18Z" transform="translate(-18 -30)" fill="#d2d2d2"/>
      </g>
      <g id="Group_3296" data-name="Group 3296" transform="translate(6.109 18.45)">
        <path id="Path_1458" data-name="Path 1458" d="M18,34h6.109v1.222H18Z" transform="translate(-18 -34)" fill="#d2d2d2"/>
      </g>
      <g id="Group_3297" data-name="Group 3297" transform="translate(6.109 20.894)">
        <path id="Path_1459" data-name="Path 1459" d="M18,38h6.109v1.222H18Z" transform="translate(-18 -38)" fill="#d2d2d2"/>
      </g>
      <g id="Group_3298" data-name="Group 3298" transform="translate(6.109 23.338)">
        <path id="Path_1460" data-name="Path 1460" d="M18,42h6.109v1.222H18Z" transform="translate(-18 -42)" fill="#d2d2d2"/>
      </g>
      <g id="Group_3299" data-name="Group 3299" transform="translate(17.106 8.675)">
        <path id="Path_1461" data-name="Path 1461" d="M42.109,19.21A6.139,6.139,0,0,1,40.9,18H36v1.222h6.109Z" transform="translate(-36 -18)" fill="#d2d2d2"/>
      </g>
      <g id="Group_3300" data-name="Group 3300" transform="translate(17.106 11.119)">
        <path id="Path_1462" data-name="Path 1462" d="M36,22h6.109v1.222H36Z" transform="translate(-36 -22)" fill="#d2d2d2"/>
      </g>
      <g id="Group_3301" data-name="Group 3301" transform="translate(17.106 13.563)">
        <path id="Path_1463" data-name="Path 1463" d="M36,26h6.109v1.222H36Z" transform="translate(-36 -26)" fill="#d2d2d2"/>
      </g>
      <g id="Group_3302" data-name="Group 3302" transform="translate(17.106 16.006)">
        <path id="Path_1464" data-name="Path 1464" d="M36,30h6.109v1.222H36Z" transform="translate(-36 -30)" fill="#d2d2d2"/>
      </g>
      <g id="Group_3303" data-name="Group 3303" transform="translate(17.106 18.45)">
        <path id="Path_1465" data-name="Path 1465" d="M36,34h6.109v1.222H36Z" transform="translate(-36 -34)" fill="#d2d2d2"/>
      </g>
      <g id="Group_3304" data-name="Group 3304" transform="translate(17.106 20.894)">
        <path id="Path_1466" data-name="Path 1466" d="M36,38h6.109v1.222H36Z" transform="translate(-36 -38)" fill="#d2d2d2"/>
      </g>
      <g id="Group_3305" data-name="Group 3305" transform="translate(17.106 23.338)">
        <path id="Path_1467" data-name="Path 1467" d="M36,42h6.109v1.222H36Z" transform="translate(-36 -42)" fill="#d2d2d2"/>
      </g>
      <g id="Group_3308" data-name="Group 3308" transform="translate(4.887 28.225)">
        <g id="Group_3306" data-name="Group 3306">
          <path id="Path_1468" data-name="Path 1468" d="M16,50v6.109l2.444-1.222,2.444,1.222V50Z" transform="translate(-16 -50)" fill="#fa6450"/>
        </g>
        <g id="Group_3307" data-name="Group 3307">
          <path id="Path_1469" data-name="Path 1469" d="M17.222,50H16v6.109l1.222-.611Z" transform="translate(-16 -50)" fill="#dc4632"/>
        </g>
      </g>
      <g id="Group_3309" data-name="Group 3309" transform="translate(22.317 0)">
        <circle id="Ellipse_294" data-name="Ellipse 294" cx="5" cy="5" r="5" transform="translate(-0.316 0.334)" fill="#3cc8b4"/>
      </g>
      <g id="Group_3310" data-name="Group 3310" transform="translate(21.993 0.122)">
        <path id="Path_1470" data-name="Path 1470" d="M45.222,8.887A4.885,4.885,0,0,1,49.5,4.042a4.887,4.887,0,1,0,0,9.691A4.885,4.885,0,0,1,45.222,8.887Z" transform="translate(-44 -4)" fill="#1eaa96"/>
      </g>
      <g id="Group_3311" data-name="Group 3311" transform="translate(23.826 2.566)">
        <path id="Path_1471" data-name="Path 1471" d="M53.109,9.222l-3.666,3.666L47,10.444l1.222-1.222,1.222,1.222L51.887,8Z" transform="translate(-47 -8)" fill="#f0f0f0"/>
      </g>
      <g id="Group_3313" data-name="Group 3313" transform="translate(6.72 7.454)">
        <g id="Group_3312" data-name="Group 3312">
          <path id="Path_1472" data-name="Path 1472" d="M23.887,18.932v-.977h-.553a1.95,1.95,0,0,0-.208-.5l.391-.391-.691-.691-.391.391a1.95,1.95,0,0,0-.5-.208V16h-.977v.553a1.95,1.95,0,0,0-.5.208l-.391-.391-.691.691.391.391a1.95,1.95,0,0,0-.208.5H19v.977h.553a1.95,1.95,0,0,0,.208.5l-.391.391.691.691.391-.391a1.95,1.95,0,0,0,.5.208v.553h.977v-.553a1.95,1.95,0,0,0,.5-.208l.391.391.691-.691-.391-.391a1.95,1.95,0,0,0,.208-.5Zm-2.444.489a.977.977,0,1,1,.977-.977A.979.979,0,0,1,21.444,19.421Z" transform="translate(-19 -16)" fill="#d2d2d2"/>
        </g>
      </g>
    </g>
  </g>
</svg>
