<svg xmlns="http://www.w3.org/2000/svg" width="39.178" height="39.853" viewBox="0 0 39.178 39.853">
  <g id="teacher" transform="translate(-24 -23.999)">
    <path id="Path_1372" data-name="Path 1372" d="M166.551,44.966l-.223,2.005-.15,1.351H147.265l-.15-1.351-.223-2.005a10.393,10.393,0,0,1,.777-5.241,10.4,10.4,0,0,0,.827-4.613l-.117-2.337a8.353,8.353,0,1,1,16.686,0l-.117,2.337a10.4,10.4,0,0,0,.827,4.613A10.388,10.388,0,0,1,166.551,44.966Z" transform="translate(-112.457 -0.006)" fill="#8f4d2e"/>
    <path id="Path_1373" data-name="Path 1373" d="M251.179,44.96l-.223,2.005h-7.581v-7.43l1.351-2.7v-5.4a7.438,7.438,0,0,0-5.466-7.168,8.363,8.363,0,0,1,10.432,8.508l-.117,2.337a10.4,10.4,0,0,0,.827,4.613A10.388,10.388,0,0,1,251.179,44.96Z" transform="translate(-197.085 0)" fill="#82462a"/>
    <path id="Path_1374" data-name="Path 1374" d="M216.376,221.4a.945.945,0,0,1-.946-.946V216h-5.4v4.458a.945.945,0,0,1-.946.946H208v4.053h9.457V221.4Z" transform="translate(-168.464 -175.789)" fill="#fec9a3"/>
    <path id="Path_1375" data-name="Path 1375" d="M235.109,219.377a3.706,3.706,0,0,0,2.295-.828V216H232v2.549a3.706,3.706,0,0,0,2.295.828Z" transform="translate(-190.438 -175.789)" fill="#feb784"/>
    <path id="Path_1376" data-name="Path 1376" d="M204.159,84.053V87.43a6.079,6.079,0,0,1-12.159,0V84.053a9.164,9.164,0,0,0,3.116-3.529l.262-.523.383.32a16.865,16.865,0,0,0,8.4,3.733Z" transform="translate(-153.815 -51.273)" fill="#fec9a3"/>
    <path id="Path_1377" data-name="Path 1377" d="M282.673,121.307v3.377a6.082,6.082,0,0,1-4.918,5.968,7.4,7.4,0,0,0,2.216-5.293v-4.67A16.845,16.845,0,0,0,282.673,121.307Z" transform="translate(-232.33 -88.527)" fill="#fec093"/>
    <path id="Path_1378" data-name="Path 1378" d="M217.013,138.026a1.013,1.013,0,1,1,1.013-1.013A1.013,1.013,0,0,1,217.013,138.026Z" transform="translate(-175.789 -102.544)" fill="#7a432a"/>
    <path id="Path_1379" data-name="Path 1379" d="M289.013,138.026a1.013,1.013,0,1,1,1.013-1.013A1.013,1.013,0,0,1,289.013,138.026Z" transform="translate(-241.709 -102.544)" fill="#7a432a"/>
    <path id="Path_1380" data-name="Path 1380" d="M242.026,178.026A2.029,2.029,0,0,1,240,176h1.351a.675.675,0,1,0,1.351,0h1.351A2.029,2.029,0,0,1,242.026,178.026Z" transform="translate(-197.762 -139.167)" fill="#f7a468"/>
    <path id="Path_1381" data-name="Path 1381" d="M224,312h6.755v4.728H224Z" transform="translate(-183.113 -263.684)" fill="#e0e0de"/>
    <path id="Path_1382" data-name="Path 1382" d="M109.237,297.535a2.05,2.05,0,0,1-2.277-1.36L102.5,287.8a5.26,5.26,0,0,1-.942,5.03v5.4H89.4v-5.4a5.269,5.269,0,0,1-.932-5.092l-4.534,8.433a2.049,2.049,0,1,1-3.892-1.287L85,282.542A4.052,4.052,0,0,1,88.76,280h2.664l4.053,7.43L99.53,280h2.654a4.056,4.056,0,0,1,3.766,2.556l4.9,12.332a2.051,2.051,0,0,1-1.615,2.647Z" transform="translate(-51.213 -234.386)" fill="#ec8c8c"/>
    <path id="Path_1383" data-name="Path 1383" d="M74.157,390.333,74.644,384H78.7v6.508a2.273,2.273,0,1,1-4.54-.174Z" transform="translate(-45.916 -329.604)" fill="#f59898"/>
    <path id="Path_1384" data-name="Path 1384" d="M30.317,266.872a1.314,1.314,0,0,0-.857,1.862l.618,1.236H27.659a4.053,4.053,0,0,1-1.813-.428l-.673-.337a.811.811,0,0,0-1.173.725v1.906a1.351,1.351,0,0,0,.747,1.208l1.1.55a4.052,4.052,0,0,0,1.812.428h5.123v-4.053l-.925-2.312a1.314,1.314,0,0,0-1.539-.786Z" transform="translate(0 -222.33)" fill="#fec9a3"/>
    <path id="Path_1385" data-name="Path 1385" d="M80,352h4.053v2.7H80Z" transform="translate(-51.272 -300.306)" fill="#e0e0de"/>
    <path id="Path_1386" data-name="Path 1386" d="M214.248,301.417a2.05,2.05,0,0,1-2.277-1.36l-4.462-8.37a5.26,5.26,0,0,1-.942,5.03v5.4H194.63c5.575-3.641,10.279-8.261,14.227-17.88a4.046,4.046,0,0,1,2.1,2.2l4.9,12.332a2.051,2.051,0,0,1-1.615,2.647Z" transform="translate(-156.223 -238.268)" fill="#e07f7f"/>
    <path id="Path_1387" data-name="Path 1387" d="M302.755,346.808,296,345.457V336l6.755,1.351Z" transform="translate(-249.034 -285.657)" fill="#a36548"/>
    <path id="Path_1388" data-name="Path 1388" d="M408,346.808l6.755-1.351V336L408,337.351Z" transform="translate(-351.577 -285.657)" fill="#8f4d2e"/>
    <path id="Path_1389" data-name="Path 1389" d="M376,352h2.7v9.457H376Z" transform="translate(-322.279 -300.306)" fill="#95573a"/>
    <path id="Path_1390" data-name="Path 1390" d="M304.106,315.377a2.392,2.392,0,0,0-2-2.36L296,312v2.026l6.755,1.351h1.351a2.392,2.392,0,0,1,2-2.36L312.211,312v2.026l-6.755,1.351Z" transform="translate(-249.034 -263.684)" fill="#d4bd81"/>
    <path id="Path_1391" data-name="Path 1391" d="M435.488,419.99l-2.7.45a.675.675,0,0,1-.786-.666v-2.511a.879.879,0,0,1,.735-.867l2.294-.382a.879.879,0,0,1,1.024.867v2.443a.676.676,0,0,1-.564.666Z" transform="translate(-373.551 -358.904)" fill="#fec9a3"/>
  </g>
</svg>
