<svg xmlns="http://www.w3.org/2000/svg" width="52.604" height="72.056" viewBox="0 0 52.604 72.056">
  <g id="teacher-svgrepo-com" transform="translate(-7.744 -2.469)">
    <path id="Path_494" data-name="Path 494" d="M218.068,177.869c0,5.129-3.459,6.8-7.634,6.8s-7.634-1.67-7.634-6.8S206.2,166,210.434,166,218.068,172.74,218.068,177.869Z" transform="translate(-176.388 -142.469)" fill="#f9b54c"/>
    <path id="Path_495" data-name="Path 495" d="M210.938,233.235l-.418,21.173-2.445,6.918-4.294,12.167h-1.909l-4.294-11.928L194,251.545V235.382l1.252-2.982.06.06.417.418,4.712,4.891.835.835,1.491-.835.06-.06,1.312-.716h0l5.785-3.28.537-.3h0Z" transform="translate(-168.9 -198.968)" fill="#e6e9ee"/>
    <path id="Path_496" data-name="Path 496" d="M227.551,268.4,226,270.487l1.968,2.624h4.414l1.968-2.624L232.8,268.4Z" transform="translate(-196.129 -229.6)" fill="#f2ae27"/>
    <path id="Path_497" data-name="Path 497" d="M224.465,325.348l-2.147,2.445h0l-2.8,3.161H216.95l-2.8-3.161h0L212,325.348l.3-1.73.716-4.592,1.014-6.561h0L216,300h4.414l2.028,12.465h0l1.014,6.382.775,4.771Z" transform="translate(-184.216 -256.489)" fill="#f2ae27"/>
    <path id="Path_498" data-name="Path 498" d="M88.157,301.945c-.537.418-1.074,4.592-1.67,10.2a.208.208,0,0,1-.119-.06,38.149,38.149,0,0,1-8.767-6.322c.954-12.525,1.849-22.962,1.849-22.962h0v.06Z" transform="translate(-69.856 -241.853)" fill="#163658"/>
    <path id="Path_499" data-name="Path 499" d="M114.836,257.5h-.954a8,8,0,0,1-1.193-.06,37.741,37.741,0,0,1-14.911-4.115.208.208,0,0,1-.119-.06A204.867,204.867,0,0,0,90.8,224.037v-.06h0a30.491,30.491,0,0,0,17.475-10.318h0a.058.058,0,0,1,.06-.06.219.219,0,0,1-.06.179,14.528,14.528,0,0,0-.3,3.161,38.7,38.7,0,0,0,.239,4.294h0c0,.3.06.6.06.954h0c.477,4.95,1.551,11.034,2.624,16.759h0c1.849,9.722,3.877,18.37,3.877,18.37A.219.219,0,0,1,114.836,257.5Z" transform="translate(-81.088 -182.971)" fill="#1d4269"/>
    <path id="Path_500" data-name="Path 500" d="M175.079,257.156h-.954a8,8,0,0,1-1.193-.06c-.537-1.014-1.074-2.028-1.61-3.1h0c-.656-1.312-1.253-2.744-1.849-4.175a184.406,184.406,0,0,1-7.873-24.1c.954.119,3.519-1.074,3.519-1.074l-3.519-4.115c3.757-.954,6.382-5.964,6.978-7.1.06-.119.119-.179.119-.239a.219.219,0,0,1-.06.179,14.529,14.529,0,0,0-.3,3.161,38.7,38.7,0,0,0,.239,4.294h0c0,.3.06.6.06.954h0c.477,4.95,1.551,11.034,2.624,16.759h0c1.849,9.722,3.877,18.37,3.877,18.37A.451.451,0,0,0,175.079,257.156Z" transform="translate(-141.331 -182.631)" fill="#acb3ba"/>
    <path id="Path_501" data-name="Path 501" d="M370.157,305.762a36.908,36.908,0,0,1-8.767,6.322.208.208,0,0,0-.119.06c-.537-5.666-1.133-9.781-1.67-10.2l8.648-19.085v-.06h0S369.2,293.3,370.157,305.762Z" transform="translate(-309.809 -241.853)" fill="#163658"/>
    <path id="Path_502" data-name="Path 502" d="M280.1,223.918h0a209.247,209.247,0,0,0-6.859,29.284.208.208,0,0,0-.119.06,37.308,37.308,0,0,1-14.911,4.115c-.418,0-.775.06-1.193.06H256v-.119s2.028-8.648,3.877-18.37h0c1.074-5.726,2.087-11.869,2.624-16.759h0c0-.3.06-.6.06-.895h0c.119-1.252.179-2.445.239-3.459a15.33,15.33,0,0,0-.3-4.056h0a.219.219,0,0,0-.06-.179h0l.06.06h0A31.1,31.1,0,0,0,280.1,223.918Z" transform="translate(-221.656 -182.971)" fill="#1d4269"/>
    <path id="Path_503" data-name="Path 503" d="M269.539,226.406a187.567,187.567,0,0,1-7.873,24.1c-.6,1.431-1.252,2.8-1.849,4.175h0c-.537,1.074-1.074,2.147-1.61,3.1-.418,0-.775.06-1.193.06H256v-.119s2.028-8.648,3.877-18.37h0c1.074-5.726,2.087-11.869,2.624-16.759h0c0-.3.06-.6.06-.895h0c.119-1.252.179-2.445.239-3.459a15.33,15.33,0,0,0-.3-4.056h0a.219.219,0,0,0-.06-.179h0a.261.261,0,0,1,.06.179h0c.537,1.074,3.221,6.143,6.978,7.1l-3.459,4.056S268.585,226.525,269.539,226.406Z" transform="translate(-221.656 -183.312)" fill="#ced5e0"/>
    <g id="Group_1306" data-name="Group 1306" transform="translate(26.419 30.569)">
      <path id="Path_504" data-name="Path 504" d="M260.74,213.2s1.67,3.757-6.74,8.171l3.817,5.666C257.817,227.1,263.841,218.508,260.74,213.2Z" transform="translate(-246.373 -213.2)" fill="#fff"/>
      <path id="Path_505" data-name="Path 505" d="M203.736,213.2s-1.67,3.757,6.74,8.171l-3.817,5.666C206.658,227.1,200.634,218.508,203.736,213.2Z" transform="translate(-202.848 -213.2)" fill="#fff"/>
    </g>
    <g id="Group_1307" data-name="Group 1307" transform="translate(21.506 8.501)">
      <path id="Path_506" data-name="Path 506" d="M207.12,74.922c0,7.4-4.473,17.058-9.96,17.058s-9.96-9.662-9.96-17.058,4.473-9.722,9.96-9.722S207.12,67.526,207.12,74.922Z" transform="translate(-184.62 -65.2)" fill="#ffd05b"/>
      <path id="Path_507" data-name="Path 507" d="M317.237,137.038c-.6,1.372-1.73,2.207-2.5,1.909s-.954-1.61-.358-2.982,1.73-2.207,2.5-1.909C317.714,134.294,317.833,135.666,317.237,137.038Z" transform="translate(-292.53 -123.738)" fill="#ffd05b"/>
      <path id="Path_508" data-name="Path 508" d="M170.273,137.038c.6,1.372,1.73,2.207,2.5,1.909s.954-1.61.358-2.982-1.73-2.207-2.5-1.909C169.8,134.294,169.676,135.666,170.273,137.038Z" transform="translate(-169.9 -123.738)" fill="#ffd05b"/>
    </g>
    <path id="Path_509" data-name="Path 509" d="M184.706,33.4c2.922-1.61,9.722-3.877,9.722,10.736,0,0,6.561-16.759-3.459-17,0,0-7.038-7.157-16.163,3.28l1.431-.716S168.9,34,175.163,44.138c0,0-1.074-14.672,7.038-10.676A2.663,2.663,0,0,0,184.706,33.4Z" transform="translate(-150.719 -22.277)" fill="#414141"/>
    <g id="Group_1308" data-name="Group 1308" transform="translate(24.563 18.283)">
      <path id="Path_510" data-name="Path 510" d="M268.757,135.392h-5.964A1.2,1.2,0,0,1,261.6,134.2v-2.207a1.2,1.2,0,0,1,1.193-1.193h5.964a1.2,1.2,0,0,1,1.193,1.193V134.2A1.2,1.2,0,0,1,268.757,135.392Z" transform="translate(-250.984 -130.8)" fill="none" stroke="#1d4269" stroke-miterlimit="10" stroke-width="1.549"/>
      <path id="Path_511" data-name="Path 511" d="M197.557,135.392h-5.964A1.2,1.2,0,0,1,190.4,134.2v-2.207a1.2,1.2,0,0,1,1.193-1.193h5.964a1.2,1.2,0,0,1,1.193,1.193V134.2A1.282,1.282,0,0,1,197.557,135.392Z" transform="translate(-190.4 -130.8)" fill="none" stroke="#1d4269" stroke-miterlimit="10" stroke-width="1.549"/>
      <path id="Path_512" data-name="Path 512" d="M246.4,136.733a1.132,1.132,0,0,1,1.133-1.133,1.173,1.173,0,0,1,1.133,1.133" transform="translate(-238.05 -134.884)" fill="none" stroke="#1d4269" stroke-linecap="round" stroke-miterlimit="10" stroke-width="1.549"/>
    </g>
  </g>
</svg>
