<svg xmlns="http://www.w3.org/2000/svg" width="300.414" height="267.875" viewBox="0 0 300.414 267.875">
  <g id="Group_2163" data-name="Group 2163" transform="translate(-190.833 -171.768)">
    <g id="Group_1262" data-name="Group 1262" transform="translate(190.833 171.768)">
      <path id="Path_288" data-name="Path 288" d="M235.006,438.968s-39.319-38.528-43.526-96.559c-5.233-72.183,21.483-110.428,71.664-118.148,15.4-2.37,35.785-18.405,57.006-38.113,42.83-39.777,164.469,2.456,136.441,133.044-13.185,61.433,40.737,58,16.114,119.908Z" transform="translate(-190.833 -171.768)" fill="#ebf3fa"/>
      <path id="Path_334" data-name="Path 334" d="M622.5,1852.432H351.216a.638.638,0,0,1-.636-.636h0a.638.638,0,0,1,.636-.636H622.5a.638.638,0,0,1,.636.636h0A.638.638,0,0,1,622.5,1852.432Z" transform="translate(-325.22 -1584.557)" fill="#2e3552"/>
      <g id="Group_3117" data-name="Group 3117" transform="translate(-23.392 -48.158)">
        <g id="Table" transform="translate(34.24 315.135)">
          <g id="Group_3053" data-name="Group 3053">
            <g id="Group_3052" data-name="Group 3052">
              <path id="Path_1052" data-name="Path 1052" d="M325.635,410.93c0,.1-64.827.187-144.775.187-79.978,0-144.79-.084-144.79-.187s64.813-.188,144.79-.188C260.808,410.742,325.635,410.826,325.635,410.93Z" transform="translate(-36.069 -410.742)" fill="#263238"/>
            </g>
          </g>
        </g>
        <g id="Character" transform="translate(64.301 146.87)">
          <g id="Group_3107" data-name="Group 3107" transform="translate(0 0)">
            <g id="Group_3071" data-name="Group 3071" transform="translate(0 73.315)">
              <path id="Path_1053" data-name="Path 1053" d="M132.083,322.728l-20.466-20.554,10.29-18.9c10.29-13.171,32.07-12.323,32.07-12.323a124.841,124.841,0,0,1,32.122,1.939c17.3,3.367,15.907,14.816,15.907,14.816l2.318,42.41,2.484,34.532L143,365.935l-10.916-43.207" transform="translate(-90.474 -270.652)" fill="#f2ae27"/>
              <path id="Path_1054" data-name="Path 1054" d="M156.4,374.478l-57.153.7a18.579,18.579,0,0,1-17.021-26.525l24.438-45.321,22.259,15.047-15.184,31.513,46.269.826Z" transform="translate(-80.422 -281.182)" fill="#f2ae27"/>
              <path id="Path_1055" data-name="Path 1055" d="M241.965,285.659l45.866,70.812-26.758,1.75s-15.979-25.182-15.618-24.661C246.108,334.5,241.965,285.659,241.965,285.659Z" transform="translate(-132.476 -275.487)" fill="#f2ae27"/>
              <path id="Path_1056" data-name="Path 1056" d="M139.137,351.976" transform="translate(-99.342 -296.857)" fill="#e8505b"/>
              <g id="Group_3054" data-name="Group 3054" transform="translate(39.809 8.722)">
                <path id="Path_1057" data-name="Path 1057" d="M146.707,316.064a1.408,1.408,0,0,1,.064-.364c.064-.273.145-.613.243-1.026.211-.891.52-2.178.843-3.781s.663-3.52.9-5.665a29.916,29.916,0,0,0,.024-6.984,18.4,18.4,0,0,0-2.367-6.519,26.3,26.3,0,0,0-3.4-4.582,32.245,32.245,0,0,0-2.778-2.686,14.148,14.148,0,0,1-1.072-.935,1.44,1.44,0,0,1,.312.2c.195.143.493.34.847.632a26.9,26.9,0,0,1,2.872,2.621,25.284,25.284,0,0,1,3.5,4.589,18.356,18.356,0,0,1,2.437,6.633,29.235,29.235,0,0,1-.051,7.069,57.287,57.287,0,0,1-.977,5.682c-.356,1.6-.7,2.883-.954,3.764-.127.441-.232.781-.308,1.01A1.473,1.473,0,0,1,146.707,316.064Z" transform="translate(-139.157 -283.52)" fill="#263238"/>
              </g>
              <g id="Group_3055" data-name="Group 3055" transform="translate(33.244 43.708)">
                <path id="Path_1058" data-name="Path 1058" d="M141.747,335.139a6.587,6.587,0,0,1-.394,1.025c-.274.65-.685,1.585-1.2,2.734-1.035,2.3-2.509,5.458-4.2,8.913s-3.293,6.555-4.478,8.781c-.593,1.114-1.081,2.01-1.427,2.624a6.478,6.478,0,0,1-.569.937,6.5,6.5,0,0,1,.447-1l1.328-2.675,4.382-8.821,4.3-8.863,1.3-2.687A6.457,6.457,0,0,1,141.747,335.139Z" transform="translate(-129.47 -335.139)" fill="#263238"/>
              </g>
              <g id="Group_3056" data-name="Group 3056" transform="translate(20.274 68.411)">
                <path id="Path_1059" data-name="Path 1059" d="M166.043,396.471a.432.432,0,0,1,0-.119c.008-.094.017-.207.028-.348.033-.329.078-.778.136-1.351.132-1.2.322-2.923.56-5.085.506-4.38,1.219-10.553,2.058-17.825l.16.18-16.883.015-29.537-.052-8.951-.056-2.433-.033-.633-.017a.109.109,0,1,1,0-.037l.633-.018,2.433-.033,8.951-.056,29.537-.052,16.883.015h.183l-.022.18c-.892,7.266-1.648,13.433-2.186,17.81l-.65,5.074c-.079.571-.141,1.018-.186,1.345l-.054.345A.415.415,0,0,1,166.043,396.471Z" transform="translate(-110.334 -371.586)" fill="#263238"/>
              </g>
              <g id="Group_3057" data-name="Group 3057" transform="translate(24.332 61.256)">
                <path id="Path_1060" data-name="Path 1060" d="M125.715,368.968a16.263,16.263,0,0,1-1.141-1.429,22.277,22.277,0,0,0-6.654-5.619,16.313,16.313,0,0,1-1.6-.885,6.676,6.676,0,0,1,1.714.664,18.316,18.316,0,0,1,6.737,5.689A6.712,6.712,0,0,1,125.715,368.968Z" transform="translate(-116.321 -361.03)" fill="#263238"/>
              </g>
              <g id="Group_3058" data-name="Group 3058" transform="translate(111.23 15.551)">
                <path id="Path_1061" data-name="Path 1061" d="M248.1,351.722a3.719,3.719,0,0,1-.09-.586q-.071-.625-.191-1.687c-.157-1.465-.367-3.588-.593-6.214-.464-5.251-1-12.513-1.475-20.541s-.807-15.3-1-20.572c-.1-2.633-.16-4.765-.193-6.238q-.017-1.068-.028-1.7a3.687,3.687,0,0,1,.014-.592,3.744,3.744,0,0,1,.057.59q.035.628.094,1.694c.074,1.505.178,3.626.3,6.233.254,5.264.626,12.534,1.1,20.562s.972,15.288,1.372,20.541c.2,2.6.365,4.719.481,6.222q.079,1.065.125,1.692A3.649,3.649,0,0,1,248.1,351.722Z" transform="translate(-244.533 -293.596)" fill="#263238"/>
              </g>
              <g id="Group_3059" data-name="Group 3059" transform="translate(56.435 16.774)">
                <path id="Path_1062" data-name="Path 1062" d="M171.033,313.773a5.713,5.713,0,0,1,.073-.927c.078-.646.182-1.506.31-2.563l1.177-8.851.263.161-4.385,3.07-4.461,3.1-.321.224.059-.386c.538-3.518,1-6.555,1.342-8.772.172-1.044.312-1.892.418-2.53a5.75,5.75,0,0,1,.188-.9,5.577,5.577,0,0,1-.077.919c-.081.641-.188,1.495-.321,2.544-.308,2.222-.729,5.265-1.217,8.791l-.262-.162,4.452-3.117,4.395-3.057.319-.222-.056.384c-.522,3.541-.973,6.6-1.3,8.833-.168,1.052-.3,1.907-.407,2.55A5.814,5.814,0,0,1,171.033,313.773Z" transform="translate(-163.687 -295.4)" fill="#e0e0e0"/>
              </g>
              <g id="Group_3060" data-name="Group 3060" transform="translate(71.744 28.294)">
                <path id="Path_1063" data-name="Path 1063" d="M203.817,322a5.625,5.625,0,0,1-.666-.648l-1.774-1.877-6.055-6.562.292-.1c-.138,1.661-.287,3.463-.442,5.335-.163,1.9-.321,3.73-.465,5.414l-.034.39-.259-.292-5.888-6.639-1.679-1.938a5.661,5.661,0,0,1-.574-.722,5.651,5.651,0,0,1,.657.647l1.751,1.873,5.982,6.555-.292.1c.14-1.685.291-3.515.448-5.415.161-1.871.316-3.672.458-5.333l.034-.388.258.289,5.962,6.647,1.7,1.943A5.813,5.813,0,0,1,203.817,322Z" transform="translate(-186.274 -312.397)" fill="#e0e0e0"/>
              </g>
              <g id="Group_3061" data-name="Group 3061" transform="translate(94.963 36.988)">
                <path id="Path_1064" data-name="Path 1064" d="M227.7,325.225a5.855,5.855,0,0,1-.461.807l-1.372,2.187-4.835,7.507-.169-.258,5.275-.91,5.358-.908.386-.065-.218.324-4.95,7.365-1.456,2.111a5.7,5.7,0,0,1-.554.736,5.527,5.527,0,0,1,.461-.8l1.375-2.165,4.845-7.434.168.258-5.355.924-5.278.894-.384.065.214-.323,4.94-7.438,1.454-2.134A5.68,5.68,0,0,1,227.7,325.225Z" transform="translate(-220.533 -325.225)" fill="#e0e0e0"/>
              </g>
              <g id="Group_3062" data-name="Group 3062" transform="translate(77.892 50.121)">
                <path id="Path_1065" data-name="Path 1065" d="M202.508,344.6a5.631,5.631,0,0,1-.46.807l-1.372,2.187-4.835,7.507-.169-.258,5.275-.91,5.358-.908.386-.065-.218.323-4.95,7.365-1.456,2.111a5.571,5.571,0,0,1-.555.736,5.676,5.676,0,0,1,.462-.8l1.375-2.165,4.845-7.434.168.258-5.355.924-5.278.894-.384.065.214-.323,4.94-7.438,1.454-2.134A5.855,5.855,0,0,1,202.508,344.6Z" transform="translate(-195.345 -344.601)" fill="#e0e0e0"/>
              </g>
              <g id="Group_3063" data-name="Group 3063" transform="translate(114.777 36.802)">
                <path id="Path_1066" data-name="Path 1066" d="M256.929,324.95a5.728,5.728,0,0,1-.46.807l-1.372,2.187-4.835,7.507-.169-.258,5.275-.91,5.358-.908.386-.065-.218.323L255.944,341l-1.455,2.111a5.651,5.651,0,0,1-.555.736,5.707,5.707,0,0,1,.461-.8l1.375-2.165,4.845-7.435.169.258-5.355.924-5.278.894-.384.065.215-.323,4.94-7.438,1.454-2.134A5.7,5.7,0,0,1,256.929,324.95Z" transform="translate(-249.766 -324.95)" fill="#e0e0e0"/>
              </g>
              <g id="Group_3064" data-name="Group 3064" transform="translate(28.396 25.953)">
                <path id="Path_1067" data-name="Path 1067" d="M129.481,308.943a5.626,5.626,0,0,1-.46.807l-1.372,2.187-4.835,7.507-.169-.258,5.275-.91,5.358-.908.386-.065-.218.323-4.95,7.365L127.04,327.1a5.555,5.555,0,0,1-.555.737,5.679,5.679,0,0,1,.462-.8l1.375-2.165c1.224-1.879,2.9-4.453,4.845-7.435l.168.258-5.355.924-5.278.894-.384.064.214-.323,4.94-7.438,1.454-2.134A5.8,5.8,0,0,1,129.481,308.943Z" transform="translate(-122.318 -308.942)" fill="#e0e0e0"/>
              </g>
              <g id="Group_3065" data-name="Group 3065" transform="translate(8.763 75.254)">
                <path id="Path_1068" data-name="Path 1068" d="M93.352,383.061a5.709,5.709,0,0,1,.624.689l1.652,1.984,5.633,6.928-.3.08c.241-1.65.5-3.439.774-5.3.282-1.886.553-3.7.8-5.375l.058-.387.24.308,5.462,6.994,1.554,2.039a5.608,5.608,0,0,1,.527.756,5.718,5.718,0,0,1-.615-.687l-1.631-1.979-5.56-6.916.3-.079-.786,5.377-.79,5.295-.058.385-.24-.3-5.535-7.007-1.576-2.045A5.78,5.78,0,0,1,93.352,383.061Z" transform="translate(-93.351 -381.683)" fill="#e0e0e0"/>
              </g>
              <g id="Group_3066" data-name="Group 3066" transform="translate(53.074 43.805)">
                <path id="Path_1069" data-name="Path 1069" d="M175.616,335.3a5.743,5.743,0,0,1-.921.119l-2.573.222-8.9.664.1-.291,3.9,3.663,3.952,3.73.285.269-.389.021-8.861.486-2.562.11a5.6,5.6,0,0,1-.922,0,5.676,5.676,0,0,1,.916-.113l2.556-.207,8.853-.612-.105.29-3.964-3.718-3.893-3.674-.283-.267.387-.023,8.912-.538,2.58-.125A5.786,5.786,0,0,1,175.616,335.3Z" transform="translate(-158.729 -335.283)" fill="#e0e0e0"/>
              </g>
              <g id="Group_3067" data-name="Group 3067" transform="translate(54.943 76.42)">
                <path id="Path_1070" data-name="Path 1070" d="M161.487,384.963a5.8,5.8,0,0,1,.637.676l1.691,1.952,5.767,6.816-.3.087.67-5.311.7-5.39.05-.388.246.3,5.6,6.886,1.594,2.008a5.716,5.716,0,0,1,.542.746,5.616,5.616,0,0,1-.629-.674l-1.669-1.947-5.7-6.805.3-.085c-.211,1.677-.441,3.5-.68,5.392-.241,1.862-.472,3.655-.687,5.309l-.049.386-.247-.3-5.67-6.9-1.617-2.014A5.644,5.644,0,0,1,161.487,384.963Z" transform="translate(-161.486 -383.404)" fill="#e0e0e0"/>
              </g>
              <g id="Group_3068" data-name="Group 3068" transform="translate(11.215 52.913)">
                <path id="Path_1071" data-name="Path 1071" d="M113.855,348.734a5.753,5.753,0,0,1-.921.119l-2.573.222-8.9.664.1-.291,3.9,3.663,3.952,3.73.285.268-.39.022-8.861.486-2.562.11a5.692,5.692,0,0,1-.922,0,5.693,5.693,0,0,1,.915-.113l2.556-.207,8.854-.612-.105.29-3.964-3.718-3.893-3.674-.283-.267.387-.024,8.913-.537,2.58-.125A5.686,5.686,0,0,1,113.855,348.734Z" transform="translate(-96.968 -348.721)" fill="#e0e0e0"/>
              </g>
              <g id="Group_3069" data-name="Group 3069" transform="translate(34.274 77.197)">
                <path id="Path_1072" data-name="Path 1072" d="M147.878,384.563a5.74,5.74,0,0,1-.921.119l-2.573.222-8.9.664.1-.29,3.9,3.662,3.952,3.73.285.268-.389.022-8.861.485-2.562.11a5.7,5.7,0,0,1-.922,0,5.71,5.71,0,0,1,.916-.113l2.556-.207,8.853-.611-.105.29-3.964-3.718-3.893-3.674-.283-.267.387-.024,8.912-.538,2.58-.125A5.686,5.686,0,0,1,147.878,384.563Z" transform="translate(-130.991 -384.55)" fill="#e0e0e0"/>
              </g>
              <g id="Group_3070" data-name="Group 3070" transform="translate(86.335 15.413)">
                <path id="Path_1073" data-name="Path 1073" d="M224.689,293.4a5.669,5.669,0,0,1-.922.119l-2.572.223-8.9.664.1-.29,3.9,3.662,3.952,3.73.285.269-.389.021-8.861.486-2.562.11a5.746,5.746,0,0,1-.922,0,5.581,5.581,0,0,1,.915-.113l2.556-.207,8.853-.611-.1.289-3.964-3.718-3.894-3.674-.283-.267.387-.023,8.913-.538,2.579-.125A5.753,5.753,0,0,1,224.689,293.4Z" transform="translate(-207.802 -293.392)" fill="#e0e0e0"/>
              </g>
            </g>
            <g id="Group_3075" data-name="Group 3075" transform="translate(76.36 146.249)">
              <path id="Path_1074" data-name="Path 1074" d="M194.624,382.536s11.4-3.285,15.177-4.248c1.471-.375,7.77,2.948,12.121,5.71,0,0,5.992,3.552,5.507,4.647-.533,1.2-2.744.958-6.266-.7,0,0,1.229,3.57-1.184,3.493,0,0,1.2,3.858-1.064,4.257s-2.794-4.523-4.789-4.789-6.12-.532-6.12-.532-3.434,5.687-6.1,6.086-8.826-.32-8.826-.32Z" transform="translate(-193.085 -378.259)" fill="#ffbe9d"/>
              <g id="Group_3072" data-name="Group 3072" transform="translate(21.001 5.057)">
                <path id="Path_1075" data-name="Path 1075" d="M224.072,385.726a37.987,37.987,0,0,1,6.182,3.9,37.9,37.9,0,0,1-6.182-3.9Z" transform="translate(-224.071 -385.721)" fill="#eb996e"/>
              </g>
              <g id="Group_3073" data-name="Group 3073" transform="translate(20.328 7.249)">
                <path id="Path_1076" data-name="Path 1076" d="M223.078,388.961a47.392,47.392,0,0,1,7.415,3.422,47.238,47.238,0,0,1-7.415-3.422Z" transform="translate(-223.077 -388.954)" fill="#eb996e"/>
              </g>
              <g id="Group_3074" data-name="Group 3074" transform="translate(21.549 12.532)">
                <path id="Path_1077" data-name="Path 1077" d="M224.879,396.79a18.82,18.82,0,0,1,5.1.7,18.88,18.88,0,0,1-5.1-.7Z" transform="translate(-224.879 -396.749)" fill="#eb996e"/>
              </g>
            </g>
            <g id="Group_3106" data-name="Group 3106" transform="translate(53.668)">
              <g id="Group_3100" data-name="Group 3100">
                <path id="Path_1078" data-name="Path 1078" d="M169,195.376a2.343,2.343,0,0,1-3.3,2.771c-1.545-.784-1.741-2.915-1.437-4.621s.884-3.526.169-5.1c-.548-1.207-1.733-1.972-2.658-2.922a7.479,7.479,0,0,1-2.077-6.343,6.287,6.287,0,0,1,4.322-4.944c2.271-.634,5.068.063,6.758-1.581,1.225-1.191,1.3-3.143,2.248-4.564,1.471-2.207,4.582-2.557,7.21-2.2s5.3,1.2,7.877.562c2.15-.535,3.914-2.036,5.929-2.958a11.61,11.61,0,0,1,15.117,15.939,7.422,7.422,0,0,1-3.6,3.564" transform="translate(-159.604 -162.48)" fill="#263238"/>
                <g id="Group_3091" data-name="Group 3091" transform="translate(8.618 13.696)">
                  <g id="Group_3090" data-name="Group 3090">
                    <g id="Group_3089" data-name="Group 3089">
                      <g id="Group_3076" data-name="Group 3076">
                        <path id="Path_1079" data-name="Path 1079" d="M186.178,257.871h0a13.066,13.066,0,0,0,13.051-13.247l-.172-12.46s10.467-1.049,11.161-11.418.192-34.3.192-34.3h0a36.119,36.119,0,0,0-36.488,2.581l-1.6,1.1.779,54.862A13.066,13.066,0,0,0,186.178,257.871Z" transform="translate(-172.32 -182.687)" fill="#ffbe9d"/>
                      </g>
                      <g id="Group_3080" data-name="Group 3080" transform="translate(32.128 17.609)">
                        <g id="Group_3077" data-name="Group 3077" transform="translate(1.838 1.837)">
                          <path id="Path_1080" data-name="Path 1080" d="M223.808,214.476a1.553,1.553,0,0,1,.017-3.087.7.7,0,0,1,.253,0,1.553,1.553,0,0,1-.018,3.087A.7.7,0,0,1,223.808,214.476Z" transform="translate(-222.434 -211.379)" fill="#263238"/>
                        </g>
                        <g id="Group_3079" data-name="Group 3079">
                          <g id="Group_3078" data-name="Group 3078">
                            <path id="Path_1081" data-name="Path 1081" d="M224.97,210.292c-.173.171-1.149-.669-2.578-.754-1.428-.106-2.506.6-2.655.405-.073-.086.107-.4.579-.721a3.53,3.53,0,0,1,4.176.279C224.917,209.881,225.053,210.217,224.97,210.292Z" transform="translate(-219.722 -208.668)" fill="#263238"/>
                          </g>
                        </g>
                      </g>
                      <g id="Group_3084" data-name="Group 3084" transform="translate(16.535 18.022)">
                        <g id="Group_3081" data-name="Group 3081" transform="translate(1.937 1.291)">
                          <path id="Path_1082" data-name="Path 1082" d="M201.943,211.451a1.509,1.509,0,1,1-2.1.381A1.508,1.508,0,0,1,201.943,211.451Z" transform="translate(-199.574 -211.182)" fill="#263238"/>
                        </g>
                        <g id="Group_3083" data-name="Group 3083">
                          <g id="Group_3082" data-name="Group 3082">
                            <path id="Path_1083" data-name="Path 1083" d="M201.963,210.9c-.172.171-1.149-.669-2.577-.753-1.428-.106-2.506.6-2.655.4-.073-.086.107-.4.578-.72a3.528,3.528,0,0,1,4.176.278C201.91,210.49,202.047,210.826,201.963,210.9Z" transform="translate(-196.716 -209.277)" fill="#263238"/>
                          </g>
                        </g>
                      </g>
                      <g id="Group_3086" data-name="Group 3086" transform="translate(26.678 19.277)">
                        <g id="Group_3085" data-name="Group 3085">
                          <path id="Path_1084" data-name="Path 1084" d="M211.874,223.6a6.942,6.942,0,0,1,2.338-.364c.376-.02.674-.089.712-.288a2.043,2.043,0,0,0-.209-1.085l-.972-2.966c-1.337-4.223-2.245-7.7-2.031-7.768s1.471,3.3,2.807,7.522c.314,1.03.615,2.014.911,2.986a2.389,2.389,0,0,1,.12,1.565.981.981,0,0,1-.677.562,2.4,2.4,0,0,1-.642.048A6.942,6.942,0,0,1,211.874,223.6Z" transform="translate(-211.681 -211.13)" fill="#263238"/>
                        </g>
                      </g>
                      <g id="Group_3087" data-name="Group 3087" transform="translate(22.02 33.075)">
                        <path id="Path_1085" data-name="Path 1085" d="M204.93,231.487a26.817,26.817,0,0,0,6.9,2.419,3.955,3.955,0,0,1-4.746,1.318C204.038,233.918,204.93,231.487,204.93,231.487Z" transform="translate(-204.808 -231.487)" fill="#fff"/>
                      </g>
                      <g id="Group_3088" data-name="Group 3088" transform="translate(13.443 44.746)">
                        <path id="Path_1086" data-name="Path 1086" d="M205.473,253.288a24.164,24.164,0,0,1-13.319-4.582s2.79,7.643,13.2,7.272Z" transform="translate(-192.154 -248.706)" fill="#eb996e"/>
                      </g>
                    </g>
                  </g>
                </g>
                <path id="Path_1087" data-name="Path 1087" d="M209.231,187.771s-6.263,3.183-14.571-.763c-5.452-2.59-11.772-3.784-13.138-2.672s-1.551,6.682-6.869,8.41c0,0,.573,10.608-3.666,10.312s-1.914-16.788-1.914-16.788l10.255-5.258,11.257-2.355,10.676,1.294,8.281,2.1Z" transform="translate(-162.451 -167.693)" fill="#263238"/>
                <g id="Group_3095" data-name="Group 3095" transform="translate(2.133 31.493)">
                  <g id="Group_3092" data-name="Group 3092">
                    <path id="Path_1088" data-name="Path 1088" d="M169.929,209.408c-.173-.086-7.016-2.5-7.176,4.61s7.009,5.8,7.026,5.6S169.929,209.408,169.929,209.408Z" transform="translate(-162.751 -208.946)" fill="#ffbe9d"/>
                  </g>
                  <g id="Group_3094" data-name="Group 3094" transform="translate(1.803 2.276)">
                    <g id="Group_3093" data-name="Group 3093">
                      <path id="Path_1089" data-name="Path 1089" d="M168.526,217.956c-.031-.024-.126.084-.338.176a1.239,1.239,0,0,1-.925,0,3.063,3.063,0,0,1-1.356-2.78,4.081,4.081,0,0,1,.386-1.765,1.433,1.433,0,0,1,.953-.93.631.631,0,0,1,.723.356c.091.2.042.342.08.355.019.018.155-.116.1-.411a.791.791,0,0,0-.27-.451.937.937,0,0,0-.68-.2,1.741,1.741,0,0,0-1.318,1.073,4.2,4.2,0,0,0-.474,1.972c.014,1.433.716,2.789,1.737,3.11a1.327,1.327,0,0,0,1.137-.163C168.51,218.128,168.551,217.97,168.526,217.956Z" transform="translate(-165.412 -212.303)" fill="#eb996e"/>
                    </g>
                  </g>
                </g>
                <g id="Group_3096" data-name="Group 3096" transform="translate(5.692 9.522)">
                  <path id="Path_1090" data-name="Path 1090" d="M168,176.713a3.922,3.922,0,0,1,4.388,1.637A6.7,6.7,0,0,0,168,176.713Z" transform="translate(-168.003 -176.529)" fill="#263238"/>
                </g>
                <g id="Group_3097" data-name="Group 3097" transform="translate(9.706 5.449)">
                  <path id="Path_1091" data-name="Path 1091" d="M174.186,170.52c.125.007-.07,1.5.178,3.276a14.03,14.03,0,0,0,.992,3.1c-.034.024-.293-.253-.6-.785a6.67,6.67,0,0,1-.745-2.259A7.394,7.394,0,0,1,174.186,170.52Z" transform="translate(-173.924 -170.52)" fill="#263238"/>
                </g>
                <g id="Group_3098" data-name="Group 3098" transform="translate(39.168 28.524)">
                  <path id="Path_1092" data-name="Path 1092" d="M217.4,205.556c-.038-.083.267-.328.843-.564a6.491,6.491,0,0,1,4.757.047c.571.247.871.5.832.58-.087.188-1.456-.346-3.213-.35C218.859,205.239,217.48,205.746,217.4,205.556Z" transform="translate(-217.393 -204.565)" fill="#263238"/>
                </g>
                <g id="Group_3099" data-name="Group 3099" transform="translate(23.32 27.028)">
                  <path id="Path_1093" data-name="Path 1093" d="M194.014,203.35c-.038-.083.266-.328.843-.564a6.49,6.49,0,0,1,4.756.047c.572.247.872.5.832.58-.087.188-1.456-.346-3.213-.35C195.477,203.033,194.1,203.54,194.014,203.35Z" transform="translate(-194.011 -202.359)" fill="#263238"/>
                </g>
              </g>
              <g id="Group_3105" data-name="Group 3105" transform="translate(8.371 30.117)">
                <g id="Group_3101" data-name="Group 3101" transform="translate(29.474 0.35)">
                  <path id="Path_1094" data-name="Path 1094" d="M215.544,207.6a3.222,3.222,0,0,1,.027.421c.009.3.02.68.034,1.147.011.5.023,1.1.037,1.779a6.738,6.738,0,0,0,.338,2.305,6.165,6.165,0,0,0,1.5,2.368,6.034,6.034,0,0,0,2.8,1.539,5.727,5.727,0,0,0,1.733.152,5.562,5.562,0,0,0,1.773-.374,5.976,5.976,0,0,0,2.923-2.365,6.09,6.09,0,0,0,.953-3.47c0-1.213.006-2.384.009-3.5l.163.163-8.8-.08-2.554-.044-.691-.02a1.339,1.339,0,0,1-.251-.02,7.2,7.2,0,0,1,.871-.039l2.517-.045,8.9-.079.164,0v.166c0,1.118.006,2.289.009,3.5a6.405,6.405,0,0,1-1,3.661,6.292,6.292,0,0,1-3.1,2.5,5.889,5.889,0,0,1-1.877.387,6.037,6.037,0,0,1-1.828-.172,6.3,6.3,0,0,1-2.931-1.646,6.376,6.376,0,0,1-1.53-2.5,6.8,6.8,0,0,1-.3-2.4q.02-1.048.037-1.825c.014-.46.026-.834.035-1.131A1.867,1.867,0,0,1,215.544,207.6Z" transform="translate(-215.441 -207.432)" fill="#263238"/>
                </g>
                <g id="Group_3102" data-name="Group 3102" transform="translate(12.857)">
                  <path id="Path_1095" data-name="Path 1095" d="M191.027,207.08a3.073,3.073,0,0,1,.027.42l.035,1.147q.015.756.037,1.779a6.752,6.752,0,0,0,.338,2.305,6.178,6.178,0,0,0,1.5,2.369,6.035,6.035,0,0,0,2.8,1.539,5.752,5.752,0,0,0,1.734.152,5.581,5.581,0,0,0,1.773-.374,5.98,5.98,0,0,0,2.923-2.365,6.085,6.085,0,0,0,.952-3.47c0-1.213.007-2.384.01-3.5l.164.164-8.8-.08-2.555-.044-.691-.02a1.436,1.436,0,0,1-.251-.02,7.234,7.234,0,0,1,.871-.039l2.517-.045,8.9-.08h.163v.165c0,1.118.006,2.289.009,3.5a6.417,6.417,0,0,1-1,3.661,6.3,6.3,0,0,1-3.1,2.5,5.884,5.884,0,0,1-1.877.386,6,6,0,0,1-1.828-.172,6.3,6.3,0,0,1-2.931-1.646,6.367,6.367,0,0,1-1.529-2.5,6.8,6.8,0,0,1-.3-2.4c.014-.7.026-1.309.037-1.825.014-.46.025-.834.034-1.131A2,2,0,0,1,191.027,207.08Z" transform="translate(-190.925 -206.915)" fill="#263238"/>
                </g>
                <g id="Group_3103" data-name="Group 3103" transform="translate(25.046 0.834)">
                  <path id="Path_1096" data-name="Path 1096" d="M213.588,208.321a15.565,15.565,0,0,1-4.68,0,15.625,15.625,0,0,1,4.68,0Z" transform="translate(-208.908 -208.145)" fill="#263238"/>
                </g>
                <g id="Group_3104" data-name="Group 3104" transform="translate(0 0.906)">
                  <path id="Path_1097" data-name="Path 1097" d="M171.955,208.448a59.632,59.632,0,0,1,6.48-.2,59.862,59.862,0,0,1,6.481.157,59.5,59.5,0,0,1-6.48.2A59.537,59.537,0,0,1,171.955,208.448Z" transform="translate(-171.955 -208.251)" fill="#263238"/>
                </g>
              </g>
            </g>
          </g>
        </g>
        <g id="Shield" transform="translate(211.619 179.264)">
          <g id="Group_3115" data-name="Group 3115" transform="translate(0 0)">
            <g id="Group_3112" data-name="Group 3112">
              <g id="Group_3109" data-name="Group 3109">
                <g id="Group_3108" data-name="Group 3108">
                  <path id="Path_1098" data-name="Path 1098" d="M342.724,217.52l-20.177-7.245-19.981,7.148c-2.551,1.205-4.788,1.926-4.788,4.3v11.831A44.718,44.718,0,0,0,304.36,257.1a40.971,40.971,0,0,0,18.383,16.235c8.167-2.653,14.264-9.725,17.991-15.774a44.718,44.718,0,0,0,6.582-23.546v-10.64C347.316,219.99,345.52,218.335,342.724,217.52Z" transform="translate(-297.778 -210.275)" fill="#1d4269"/>
                </g>
              </g>
              <g id="Group_3110" data-name="Group 3110" opacity="0.3">
                <path id="Path_1099" data-name="Path 1099" d="M322.743,266.472a32.585,32.585,0,0,1-14.544-12.95,35.378,35.378,0,0,1-5.207-18.629v-8.3a5.234,5.234,0,0,1,3.386-4.692l16.173-6.047,0-5.579-19.981,7.148c-2.1.916-4.788,1.926-4.788,4.3v11.831A44.718,44.718,0,0,0,304.36,257.1a40.971,40.971,0,0,0,18.383,16.235Z" transform="translate(-297.778 -210.275)"/>
              </g>
              <g id="Group_3111" data-name="Group 3111" transform="translate(24.769)" opacity="0.4">
                <path id="Path_1100" data-name="Path 1100" d="M334.519,273.338a24.289,24.289,0,0,0,3.964-1.7,35.557,35.557,0,0,0,8.388-6.6,45.208,45.208,0,0,0,5.835-7.839,43.044,43.044,0,0,0,6.386-23.773l.012-9.768c-.012-4.864-2.507-5.222-4.6-6.139l-20.177-7.245,0,5.579L350.688,222a5.234,5.234,0,0,1,3.386,4.692v8.3a35.379,35.379,0,0,1-5.207,18.629,31.851,31.851,0,0,1-14.348,12.853Z" transform="translate(-334.323 -210.275)"/>
              </g>
            </g>
            <path id="Path_1101" data-name="Path 1101" d="M336.051,242.561l.022-1.6a5.238,5.238,0,0,0-10.477-.008l-.023,1.627a2.929,2.929,0,0,0-2.5,2.9V254.9a2.931,2.931,0,0,0,2.931,2.931h9.778a2.931,2.931,0,0,0,2.931-2.931v-9.418A2.931,2.931,0,0,0,336.051,242.561Zm-3.819,9.992h-2.557l.4-1.847a1.557,1.557,0,1,1,1.69-.029C331.944,251.393,332.231,252.553,332.231,252.553Zm2.691-10.005H326.7l.022-1.583a4.11,4.11,0,0,1,8.22-.008Z" transform="translate(-305.929 -218.476)" fill="#fff" opacity="0.5"/>
            <g id="Group_3113" data-name="Group 3113" transform="translate(8.004 13.318)">
              <path id="Path_1102" data-name="Path 1102" d="M310.066,240.577a6.389,6.389,0,0,1-.3-1.638,28.054,28.054,0,0,1-.164-4.017c.022-.786.075-1.533.146-2.21a4.737,4.737,0,0,1,.451-1.786,2.049,2.049,0,0,1,.884-.888c.273-.127.444-.121.447-.1a2.283,2.283,0,0,0-1.107,1.1,4.906,4.906,0,0,0-.35,1.7c-.054.672-.095,1.412-.117,2.191-.046,1.555,0,2.965.06,3.985A9.962,9.962,0,0,1,310.066,240.577Z" transform="translate(-309.587 -229.925)" fill="#fff"/>
            </g>
            <g id="Group_3114" data-name="Group 3114" transform="translate(8.581 26.942)">
              <path id="Path_1103" data-name="Path 1103" d="M310.637,252.2c-.1,0-.186-.485-.2-1.086s.058-1.091.155-1.093.186.484.2,1.086S310.734,252.2,310.637,252.2Z" transform="translate(-310.438 -250.026)" fill="#fff"/>
            </g>
          </g>
        </g>
        <g id="Device" transform="translate(136.045 257.174)">
          <g id="Group_3116" data-name="Group 3116" transform="translate(0 0)">
            <path id="Path_1104" data-name="Path 1104" d="M249.341,325.225l-22.5,55.637H186.275v2.511h120.83l24.715-58.149Z" transform="translate(-186.275 -325.225)" fill="#1d4269"/>
            <path id="Path_1105" data-name="Path 1105" d="M326.294,370.691c-.815,2.8-3.189,4.571-5.3,3.956s-3.165-3.384-2.35-6.184,3.189-4.572,5.3-3.956S327.109,367.89,326.294,370.691Z" transform="translate(-228.839 -337.843)" fill="#fafafa"/>
          </g>
        </g>
      </g>
    </g>
    <g id="Group_1263" data-name="Group 1263" transform="translate(382.732 196.234)">
      <path id="Path_335" data-name="Path 335" d="M1408.031,362.047a6.845,6.845,0,0,1-3.972,1.272,6.2,6.2,0,0,1-3.26-1.563l-1.152,2.236s2.946,1.6,5.38,1.014a6.244,6.244,0,0,0,2.456-1.571A2.133,2.133,0,0,0,1408.031,362.047Z" transform="translate(-1399.648 -356.062)" fill="#6bb7bf"/>
      <path id="Path_336" data-name="Path 336" d="M1438.326,327.336l3.087-1.45s-.128,6.563-5.442,8.813C1435.972,334.7,1439.18,330.062,1438.326,327.336Z" transform="translate(-1430.206 -325.886)" fill="#86d1cd"/>
    </g>
    <g id="Group_1264" data-name="Group 1264" transform="translate(277.928 261.805)">
      <path id="Path_337" data-name="Path 337" d="M757.419,781.814a9.62,9.62,0,0,1-.41,5.847,8.715,8.715,0,0,1-3.739,3.441l2.319,2.669s3.63-3.009,4.128-6.494a8.778,8.778,0,0,0-.77-4.025A3,3,0,0,0,757.419,781.814Z" transform="translate(-751.079 -775.007)" fill="#6bb7bf"/>
      <path id="Path_338" data-name="Path 338" d="M739.75,743.719l-.284-4.786s8.5,3.588,8.668,11.7C748.134,750.631,743.753,744.026,739.75,743.719Z" transform="translate(-739.466 -738.933)" fill="#86d1cd"/>
    </g>
    <g id="Group_1265" data-name="Group 1265" transform="translate(376.811 271.19)">
      <path id="Path_339" data-name="Path 339" d="M1370.341,995.589a9.2,9.2,0,0,1-4.189-3.721,8.33,8.33,0,0,1-.425-4.838l-3.374.2s.162,4.5,2.509,6.913a8.391,8.391,0,0,0,3.5,1.765A2.865,2.865,0,0,0,1370.341,995.589Z" transform="translate(-1362.354 -987.03)" fill="#6bb7bf"/>
      <path id="Path_340" data-name="Path 340" d="M1390.913,1019.484l3.79,2.577s-7.675,4.344-13.913-.259C1380.789,1021.8,1388.345,1022.336,1390.913,1019.484Z" transform="translate(-1377.862 -1014.332)" fill="#86d1cd"/>
    </g>
    <g id="Group_1266" data-name="Group 1266" transform="translate(426.551 270.322)">
      <path id="Path_341" data-name="Path 341" d="M1700.943,794.582a5.568,5.568,0,0,1,7.854,1.53l3.7-1.591s-1.827-2.884-9-1.605C1698.81,793.752,1700.943,794.582,1700.943,794.582Z" transform="translate(-1696.525 -792.588)" fill="#5685d8"/>
      <path id="Path_342" data-name="Path 342" d="M1675.679,797.63s1.222-5.042,10.423-5.042c0,0-3.448.327-6.142,4.8Z" transform="translate(-1675.679 -792.588)" fill="#739af0"/>
    </g>
    <g id="Group_1267" data-name="Group 1267" transform="translate(248.443 320.106)">
      <path id="Path_343" data-name="Path 343" d="M565.278,1114.052a5.568,5.568,0,0,1-7.775-1.892l-3.769,1.418s1.691,2.965,8.912,2.02C567.371,1114.98,565.278,1114.052,565.278,1114.052Z" transform="translate(-553.735 -1111.212)" fill="#5685d8"/>
      <path id="Path_344" data-name="Path 344" d="M598.727,1106.189s-1.454,4.98-10.645,4.553c0,0,3.459-.167,6.358-4.512Z" transform="translate(-582.629 -1106.189)" fill="#739af0"/>
    </g>
    <path id="Path_345" data-name="Path 345" d="M1431.727,606.058s-2.478-1.565-2.739-3.456c0,0-2.413.13-2.934.913,0,0,1.108,3.13,2.413,3.717C1428.467,607.232,1431.4,607.427,1431.727,606.058Z" transform="translate(-1039.13 -362.44)" fill="#ed7d2b"/>
    <path id="Path_346" data-name="Path 346" d="M422.344,761.183s-2.478-1.565-2.739-3.456c0,0-2.413.13-2.934.913,0,0,1.109,3.13,2.413,3.717C419.084,762.357,422.018,762.552,422.344,761.183Z" transform="translate(-189.986 -492.939)" fill="#ed7d2b"/>
    <path id="Path_347" data-name="Path 347" d="M365.554,1322.3s2.544-1.607,2.812-3.548c0,0,2.477.134,3.013.937,0,0-1.138,3.214-2.477,3.816C368.9,1323.51,365.889,1323.71,365.554,1322.3Z" transform="translate(-146.984 -964.905)" fill="#f99746"/>
  </g>
</svg>
